<?xml version="1.0" standalone="no"?>
<!DOCTYPE svg PUBLIC "-//W3C//DTD SVG 1.1//EN" "http://www.w3.org/Graphics/SVG/1.1/DTD/svg11.dtd" >
<svg xmlns="http://www.w3.org/2000/svg">
<metadata>
Created by FontPrep 20130207 at Sun Nov  9 12:48:42 2014
 By Destroyer
Copyright (c) 2014 Typotheque.com All rights reserved.
</metadata>
<defs>
<font id="19bbb355e0bad7b3782c5fb2ed0e0f5a" horiz-adv-x='1024' >
  <font-face 
    font-family="NeutralStd-Regular"
    font-weight="400"
    font-stretch="normal"
    units-per-em="2048"
    panose-1="0 0 0 0 0 0 0 0 0 0"
    ascent="1593"
    descent="-455"
    x-height="1096"
    cap-height="1546"
    bbox="-444 -475 2427 2102"
    underline-thickness="143"
    underline-position="-240"
    unicode-range="U+0020-FB02"
  />
<missing-glyph horiz-adv-x="1458" 
d="M1239 1382v56h55v-56h-55zM1239 1229v55h55v-55h-55zM1239 1075v55h55v-55h-55zM1239 922v55h55v-55h-55zM1239 768v55h55v-55h-55zM1239 614v56h55v-56h-55zM1239 461v55h55v-55h-55zM1239 307v55h55v-55h-55zM1239 154v55h55v-55h-55zM1239 0v55h55v-55h-55zM1085 1382
v56h56v-56h-56zM1085 0v55h56v-55h-56zM932 1382v56h55v-56h-55zM932 1075v55h55v-55h-55zM932 922v55h55v-55h-55zM932 768v55h55v-55h-55zM932 0v55h55v-55h-55zM778 1382v56h56v-56h-56zM778 1075v55h56v-55h-56zM778 768v55h56v-55h-56zM778 0v55h56v-55h-56zM625 1382
v56h55v-56h-55zM625 1075v55h55v-55h-55zM625 768v55h55v-55h-55zM625 614v56h55v-56h-55zM625 307v55h55v-55h-55zM625 0v55h55v-55h-55zM471 1382v56h55v-56h-55zM471 1075v55h55v-55h-55zM471 0v55h55v-55h-55zM317 1382v56h56v-56h-56zM317 0v55h56v-55h-56zM164 1382
v56h55v-56h-55zM164 1229v55h55v-55h-55zM164 1075v55h55v-55h-55zM164 922v55h55v-55h-55zM164 768v55h55v-55h-55zM164 614v56h55v-56h-55zM164 461v55h55v-55h-55zM164 307v55h55v-55h-55zM164 154v55h55v-55h-55zM164 0v55h55v-55h-55z" />
    <glyph glyph-name=".notdef" horiz-adv-x="1458" 
d="M1239 1382v56h55v-56h-55zM1239 1229v55h55v-55h-55zM1239 1075v55h55v-55h-55zM1239 922v55h55v-55h-55zM1239 768v55h55v-55h-55zM1239 614v56h55v-56h-55zM1239 461v55h55v-55h-55zM1239 307v55h55v-55h-55zM1239 154v55h55v-55h-55zM1239 0v55h55v-55h-55zM1085 1382
v56h56v-56h-56zM1085 0v55h56v-55h-56zM932 1382v56h55v-56h-55zM932 1075v55h55v-55h-55zM932 922v55h55v-55h-55zM932 768v55h55v-55h-55zM932 0v55h55v-55h-55zM778 1382v56h56v-56h-56zM778 1075v55h56v-55h-56zM778 768v55h56v-55h-56zM778 0v55h56v-55h-56zM625 1382
v56h55v-56h-55zM625 1075v55h55v-55h-55zM625 768v55h55v-55h-55zM625 614v56h55v-56h-55zM625 307v55h55v-55h-55zM625 0v55h55v-55h-55zM471 1382v56h55v-56h-55zM471 1075v55h55v-55h-55zM471 0v55h55v-55h-55zM317 1382v56h56v-56h-56zM317 0v55h56v-55h-56zM164 1382
v56h55v-56h-55zM164 1229v55h55v-55h-55zM164 1075v55h55v-55h-55zM164 922v55h55v-55h-55zM164 768v55h55v-55h-55zM164 614v56h55v-56h-55zM164 461v55h55v-55h-55zM164 307v55h55v-55h-55zM164 154v55h55v-55h-55zM164 0v55h55v-55h-55z" />
    <glyph glyph-name=".null" horiz-adv-x="0" 
 />
    <glyph glyph-name="nonmarkingreturn" horiz-adv-x="681" 
 />
    <glyph glyph-name="space" unicode=" " horiz-adv-x="532" 
 />
    <glyph glyph-name="exclam" unicode="!" horiz-adv-x="587" 
d="M195 1593h196v-600l-31 -573h-135l-30 573v600zM162 0v264h264v-264h-264z" />
    <glyph glyph-name="quotedbl" unicode="&#x22;" horiz-adv-x="882" 
d="M594 969l-92 577h268l-92 -577h-84zM205 969l-92 577h268l-92 -577h-84z" />
    <glyph glyph-name="numbersign" unicode="#" horiz-adv-x="1290" 
d="M61 395v137h267l59 361h-244v137h267l57 352h133l-57 -352h317l58 352h133l-58 -352h236v-137h-258l-60 -361h236v-137h-258l-64 -395h-133l64 395h-318l-63 -395h-133l63 395h-244zM778 532l60 361h-318l-59 -361h317z" />
    <glyph glyph-name="dollar" unicode="$" horiz-adv-x="1316" 
d="M721 -291h-123v262q-420 29 -496 437l177 43q39 -156 113 -232t206 -90v594l-51 10q-385 86 -385 410q0 172 118 288t318 134v207h123v-205q332 -23 440 -346l-170 -47q-80 211 -270 239v-528l53 -15q217 -51 313 -153q97 -103 97 -285t-128 -311t-335 -150v-262z
M993 426q0 207 -272 270v-565q127 14 200 91q72 77 72 204zM348 1160q0 -106 60 -158q60 -54 190 -87v500q-126 -13 -188 -81t-62 -174z" />
    <glyph glyph-name="percent" unicode="%" horiz-adv-x="1708" 
d="M1282 627q-170 -1 -170 -271t170 -270t170 270t-170 271zM952 353q0 183 94 285t248 103q152 0 237 -97q85 -96 85 -284t-92 -288t-245 -100t-240 98q-87 100 -87 283zM422 1454q-170 0 -170 -270t172 -271q168 1 168 271t-170 270zM264 -29l1030 1598h152l-1028 -1598
h-154zM756 1187q0 -187 -92 -287t-245 -101t-240 99t-87 283t94 285t247 102t238 -96q85 -98 85 -285z" />
    <glyph glyph-name="ampersand" unicode="&#x26;" horiz-adv-x="1411" 
d="M612 129q205 0 340 156l-387 454q-150 -89 -205 -159t-55 -186t80 -190q80 -75 227 -75zM469 1240q0 -73 32 -128t130 -172q135 84 183 155t48 151t-50 132t-142 52t-146 -58t-55 -132zM610 -31q-250 0 -377 116t-127 302q0 143 85 245t282 216q-155 185 -175 271
q-11 46 -11 104q1 153 109 249t282 96t272 -94q98 -95 99 -225q0 -221 -326 -420l328 -387q61 145 61 326h166q0 -254 -119 -457l197 -231l-135 -111l-168 199q-193 -199 -443 -199z" />
    <glyph glyph-name="quotesingle" unicode="'" horiz-adv-x="493" 
d="M205 969l-92 577h268l-92 -577h-84z" />
    <glyph glyph-name="parenleft" unicode="(" horiz-adv-x="655" 
d="M174 662q0 354 113 617q77 178 129 259q53 80 54 82t4 6t5 8h152q-189 -313 -244 -632q-29 -167 -29 -353q1 -534 273 -983h-152q-75 109 -143 243q-162 321 -162 753z" />
    <glyph glyph-name="parenright" unicode=")" horiz-adv-x="655" 
d="M297 651q0 534 -272 983h151q47 -68 69 -102q23 -34 75 -140q164 -328 162 -720q-1 -392 -113 -650q-79 -184 -134 -267q-55 -82 -59 -89h-151q187 311 243 632q29 167 29 353z" />
    <glyph glyph-name="asterisk" unicode="*" horiz-adv-x="958" 
d="M563 1593l-22 -358l8 -4l315 133l51 -152l-323 -102l-2 -8l229 -275l-139 -96l-195 297h-12l-201 -291l-139 97l236 268l-2 8l-322 96l51 152l312 -127l8 6l-21 356h168z" />
    <glyph glyph-name="plus" unicode="+" horiz-adv-x="1228" 
d="M133 598v139h408v418h147v-418h408v-139h-408v-426h-147v426h-408z" />
    <glyph glyph-name="comma" unicode="," horiz-adv-x="550" 
d="M268 0h-125v264h265v-229q0 -276 -287 -350l-29 96q88 27 132 76t44 143z" />
    <glyph glyph-name="hyphen" unicode="-" horiz-adv-x="921" 
d="M133 516v178h655v-178h-655z" />
    <glyph glyph-name="hyphen" unicode="&#xad;" horiz-adv-x="921" 
d="M133 516v178h655v-178h-655z" />
    <glyph glyph-name="period" unicode="." horiz-adv-x="550" 
d="M143 0v264h265v-264h-265z" />
    <glyph glyph-name="slash" unicode="/" horiz-adv-x="854" 
d="M-55 -334l723 1968h147l-721 -1968h-149z" />
    <glyph glyph-name="zero" unicode="0" horiz-adv-x="1400" 
d="M700 1407q-348 0 -348 -638t353 -638q344 0 344 637q1 315 -89 477t-260 162zM143 768q0 391 150 596t413 205t407 -202t144 -596q1 -394 -151 -598t-404 -204q-559 0 -559 799z" />
    <glyph glyph-name="one" unicode="1" horiz-adv-x="921" 
d="M676 0h-193v1307l-297 -213l-100 135l430 317h160v-1546z" />
    <glyph glyph-name="two" unicode="2" horiz-adv-x="1284" 
d="M664 1569q230 0 346 -119q115 -119 114 -285q0 -72 -9 -127q-31 -191 -375 -530q-168 -166 -347 -338v-6h758v-164h-1008v170q494 477 590 584q156 170 185 288q10 49 10 113q0 119 -72 185t-201 65q-264 0 -297 -297l-4 -37l-184 19l2 30q12 188 137 318t355 131z" />
    <glyph glyph-name="three" unicode="3" horiz-adv-x="1310" 
d="M652 129q138 0 227 78q88 78 88 215t-86 218t-263 81h-110v164h121q135 -1 215 73t80 192t-73 188t-202 69q-264 0 -297 -301l-184 20q10 190 143 316t355 127q222 0 340 -113t118 -295q0 -121 -70 -210t-200 -134v-8q145 -33 229 -128t84 -249q0 -201 -141 -332
q-142 -131 -374 -131t-361 111t-160 309l186 31q35 -145 116 -218t219 -73z" />
    <glyph glyph-name="four" unicode="4" horiz-adv-x="1290" 
d="M782 557v725h-14q-16 -41 -90 -149l-385 -576h489zM971 0h-189v397h-684v150l676 999h197v-987h227v-162h-227v-397z" />
    <glyph glyph-name="five" unicode="5" horiz-adv-x="1300" 
d="M674 1022q208 0 344 -133t137 -379t-141 -394t-390 -147q-248 0 -370 120t-148 300l191 25q63 -289 338 -289q135 0 229 95q94 94 94 272t-88 271t-245 93q-199 0 -310 -162l-153 68l125 784h803v-170h-658l-78 -489h4q108 135 316 135z" />
    <glyph glyph-name="six" unicode="6" horiz-adv-x="1339" 
d="M1018 480q0 167 -86 262q-86 96 -236 96t-240 -96q-89 -96 -89 -263q0 -168 94 -261t232 -93t232 94q93 94 93 261zM719 1417q-187 0 -281 -172t-98 -479h4q127 236 391 235q207 0 342 -129t135 -359t-144 -387t-376 -157q-547 0 -547 740q0 411 151 635t427 225
q383 -1 461 -363l-191 -20q-55 231 -274 231z" />
    <glyph glyph-name="seven" unicode="7" horiz-adv-x="1138" 
d="M78 1376v170h987v-164l-645 -1382h-209l659 1376h-792z" />
    <glyph glyph-name="eight" unicode="8" horiz-adv-x="1310" 
d="M983 425q0 140 -88 223q-89 83 -237 83t-239 -83t-91 -222t90 -222t240 -83t238 82q87 82 87 222zM373 1146q0 -130 79 -199q80 -69 204 -69t203 72q79 70 79 199t-80 200t-206 71t-202 -72t-77 -202zM656 1569q224 0 352 -115t127 -291q0 -250 -226 -352v-4
q276 -106 277 -399q0 -188 -144 -314t-389 -125q-246 0 -387 123t-141 318q0 285 274 397v4q-223 100 -223 352q0 176 128 291t352 115z" />
    <glyph glyph-name="nine" unicode="9" horiz-adv-x="1333" 
d="M616 121q193 0 284 166t93 499h-6q-55 -117 -157 -176t-228 -59q-209 0 -344 131t-135 379q0 207 145 357t379 151q234 0 389 -162q154 -162 154 -579q0 -416 -139 -638t-443 -221q-200 -1 -320 99t-145 270l185 18q32 -123 102 -179t186 -56zM648 1411q-138 0 -234 -90
t-95 -256q-1 -166 89 -258t229 -92t234 96t95 255t-90 252t-228 93z" />
    <glyph glyph-name="colon" unicode=":" horiz-adv-x="550" 
d="M143 0v264h265v-264h-265zM143 729v264h265v-264h-265z" />
    <glyph glyph-name="semicolon" unicode=";" horiz-adv-x="550" 
d="M258 0h-115v264h265v-229q0 -137 -58 -233t-192 -160l-56 86q80 45 118 105t38 167zM143 729v264h265v-264h-265z" />
    <glyph glyph-name="less" unicode="&#x3c;" horiz-adv-x="1228" 
d="M1096 98l-963 461v117l963 461v-158l-760 -358l760 -357v-166z" />
    <glyph glyph-name="equal" unicode="=" horiz-adv-x="1228" 
d="M133 424v139h963v-139h-963zM133 772v139h963v-139h-963z" />
    <glyph glyph-name="greater" unicode="&#x3e;" horiz-adv-x="1228" 
d="M133 1139l963 -461v-117l-963 -461v158l760 358l-760 357v166z" />
    <glyph glyph-name="question" unicode="?" horiz-adv-x="1075" 
d="M418 418v129q0 121 31 178t151 157t166 168q47 69 47 171t-75 164t-203 63q-276 0 -328 -299l-178 29q20 198 160 314q139 116 359 116t341 -108t121 -283q0 -125 -65 -225t-175 -188q-110 -90 -140 -142t-30 -130v-114h-182zM377 0v264h264v-264h-264z" />
    <glyph glyph-name="at" unicode="@" horiz-adv-x="2193" 
d="M1018 240q96 0 168 76q131 137 131 390q0 254 -205 255q-147 1 -223 -133t-76 -310q0 -278 205 -278zM1055 -381q-410 0 -668 255q-258 254 -258 688t291 718t723 285q432 0 677 -242t244 -596q0 -289 -143 -462t-336 -173q-236 0 -285 184h-8q-100 -172 -311 -172
q-158 0 -251 108t-93 325t122 389t337 172q100 0 170 -42t100 -110h6l27 135h151l-90 -624q-31 -233 148 -234q123 0 216 138t93 362q0 313 -215 514q-216 201 -578 201t-600 -250t-238 -626t234 -595q232 -219 578 -219t590 180l67 -98q-129 -104 -291 -158t-409 -53z" />
    <glyph glyph-name="A" unicode="A" horiz-adv-x="1486" 
d="M1214 0l-155 444h-645l-158 -444h-195l560 1546h239l565 -1546h-211zM682 1204l-211 -596h530l-208 592l-52 168h-6q-22 -80 -53 -164z" />
    <glyph glyph-name="B" unicode="B" horiz-adv-x="1439" 
d="M393 166h406q159 0 243 73t84 210t-84 209t-219 71h-430v-563zM393 1389v-506h375q147 1 221 67t74 192t-72 186t-237 61h-361zM195 0v1546h596q223 0 348 -99t125 -267q0 -258 -248 -353v-6q133 -31 222 -120t89 -246q0 -211 -146 -333t-407 -122h-579z" />
    <glyph glyph-name="C" unicode="C" horiz-adv-x="1521" 
d="M811 -31q-307 0 -496 207q-188 206 -188 580t191 594t497 219q233 0 379 -108t211 -267l-176 -82q-139 289 -418 289q-223 0 -349 -175t-126 -459t127 -456t348 -172q319 0 428 318l180 -56q-27 -118 -151 -257q-68 -75 -188 -125t-269 -50z" />
    <glyph glyph-name="D" unicode="D" horiz-adv-x="1536" 
d="M393 162h248q287 0 423 140t136 462t-134 468q-134 144 -425 144h-248v-1214zM195 0v1546h446q762 0 762 -770q1 -392 -195 -586t-567 -190h-446z" />
    <glyph glyph-name="E" unicode="E" horiz-adv-x="1304" 
d="M195 0v1546h962v-172h-764v-506h684v-172h-684v-524h778v-172h-976z" />
    <glyph glyph-name="F" unicode="F" horiz-adv-x="1202" 
d="M195 0v1546h925v-172h-727v-526h617v-170h-617v-678h-198z" />
    <glyph glyph-name="G" unicode="G" horiz-adv-x="1583" 
d="M784 -31q-295 0 -476 206t-181 583t196 594t506 217q231 1 369 -103t201 -254l-176 -79q-72 133 -166 201t-240 67q-223 0 -354 -176q-131 -177 -131 -453t123 -456t348 -179q326 0 406 290q22 77 22 165v43h-414v164h592v-799h-168l-8 201h-8q-146 -232 -441 -232z" />
    <glyph glyph-name="H" unicode="H" horiz-adv-x="1560" 
d="M1167 0v709h-774v-709h-198v1546h198v-669h774v669h199v-1546h-199z" />
    <glyph glyph-name="I" unicode="I" horiz-adv-x="587" 
d="M195 0v1546h198v-1546h-198z" />
    <glyph glyph-name="J" unicode="J" horiz-adv-x="1261" 
d="M561 -31q-231 0 -350 122t-139 337l182 27q35 -326 311 -326q315 0 316 328v1089h196v-1061q0 -199 -96 -344q-53 -80 -159 -126t-261 -46z" />
    <glyph glyph-name="K" unicode="K" horiz-adv-x="1439" 
d="M393 0h-198v1546h198v-774l697 774h237l-594 -645l625 -901h-242l-518 758l-205 -221v-537z" />
    <glyph glyph-name="L" unicode="L" horiz-adv-x="1208" 
d="M195 0v1546h198v-1372h744v-174h-942z" />
    <glyph glyph-name="M" unicode="M" horiz-adv-x="1933" 
d="M195 1546h311l418 -1177l49 -156h4q25 90 49 156l422 1177h291v-1546h-189v1323h-8q-10 -47 -37 -119l-434 -1204h-211l-434 1204l-35 119h-8v-1323h-188v1546z" />
    <glyph glyph-name="N" unicode="N" horiz-adv-x="1552" 
d="M195 0v1546h233l674 -1155l61 -123h4v1278h189v-1546h-234l-673 1155l-62 123h-4v-1278h-188z" />
    <glyph glyph-name="O" unicode="O" horiz-adv-x="1624" 
d="M810 135q224 0 352 168t128 469t-127 466t-351 165t-351 -169t-127 -466t126 -465t350 -168zM818 1569q312 0 496 -210t183 -586q1 -376 -189 -590t-504 -214t-496 210q-181 210 -181 586t189 590q190 214 502 214z" />
    <glyph glyph-name="P" unicode="P" horiz-adv-x="1304" 
d="M688 1384h-295v-602h287q172 0 263 77t91 224q0 301 -346 301zM195 0v1546h505q242 0 387 -114t145 -344q0 -232 -149 -351q-150 -119 -399 -119h-291v-618h-198z" />
    <glyph glyph-name="Q" unicode="Q" horiz-adv-x="1628" 
d="M813 131q109 0 197 41l-172 197l129 110l178 -203q145 170 145 476t-128 480q-128 173 -351 173t-349 -171t-126 -464t127 -466t350 -173zM811 -31q-313 0 -499 210q-185 210 -185 587t190 590q191 213 501 213t494 -210q184 -211 185 -603q0 -392 -235 -613l180 -206
l-129 -111l-191 217q-141 -74 -311 -74z" />
    <glyph glyph-name="R" unicode="R" horiz-adv-x="1404" 
d="M393 645v-645h-198v1546h520q256 0 394 -114t138 -336q0 -158 -84 -264t-241 -152v-2l391 -678h-228l-366 645h-326zM690 1384h-297v-577h322q161 0 245 62q84 63 84 221t-89 226t-265 68z" />
    <glyph glyph-name="S" unicode="S" horiz-adv-x="1400" 
d="M1278 451q0 -221 -157 -351t-409 -131q-252 0 -406 117q-155 117 -202 285l187 59q102 -291 411 -291q174 0 275 72q100 72 100 209q0 100 -68 163q-69 62 -245 101l-174 39q-184 43 -293 138t-111 277t140 306q142 125 374 125q230 0 358 -89t193 -249l-174 -72
q-55 125 -142 183t-240 58t-231 -70q-78 -72 -79 -180q0 -108 72 -162t229 -93l193 -45q399 -94 399 -399z" />
    <glyph glyph-name="T" unicode="T" horiz-adv-x="1284" 
d="M61 1374v172h1162v-172h-482v-1374h-198v1374h-482z" />
    <glyph glyph-name="U" unicode="U" horiz-adv-x="1544" 
d="M1360 528q0 -264 -146 -412t-439 -147q-294 1 -442 147t-149 412v1018h199v-997q0 -207 93 -309t299 -102t300 104t94 307v997h191v-1018z" />
    <glyph glyph-name="V" unicode="V" horiz-adv-x="1464" 
d="M272 1546l414 -1171l51 -164h8q18 80 50 164l413 1171h195l-561 -1546h-219l-562 1546h211z" />
    <glyph glyph-name="W" unicode="W" horiz-adv-x="2134" 
d="M1399 0l-322 1337l-321 -1337h-277l-397 1546h207l334 -1376l333 1376h244l334 -1347l326 1347h192l-395 -1546h-258z" />
    <glyph glyph-name="X" unicode="X" horiz-adv-x="1374" 
d="M92 1546h234l370 -594l369 594h215l-479 -747l512 -799h-232l-397 635l-410 -635h-213l517 797z" />
    <glyph glyph-name="Y" unicode="Y" horiz-adv-x="1353" 
d="M582 0v631l-521 915h220l407 -737l408 737h196l-510 -903v-643h-200z" />
    <glyph glyph-name="Z" unicode="Z" horiz-adv-x="1351" 
d="M113 0v147l886 1231h-843v168h1083v-147l-889 -1231h873v-168h-1110z" />
    <glyph glyph-name="bracketleft" unicode="[" horiz-adv-x="655" 
d="M205 -334v1968h399v-116h-221v-1735h221v-117h-399z" />
    <glyph glyph-name="backslash" unicode="\" horiz-adv-x="854" 
d="M180 1634l723 -1968h-149l-721 1968h147z" />
    <glyph glyph-name="bracketright" unicode="]" horiz-adv-x="655" 
d="M451 1634v-1968h-400v117h221v1735h-221v116h400z" />
    <glyph glyph-name="asciicircum" unicode="^" horiz-adv-x="868" 
d="M514 1546l313 -598h-168l-227 432l-233 -432h-158l321 598h152z" />
    <glyph glyph-name="underscore" unicode="_" horiz-adv-x="1085" 
d="M61 -455v144h963v-144h-963z" />
    <glyph glyph-name="grave" unicode="`" horiz-adv-x="1024" 
d="M563 1593l166 -342h-156l-262 342h252z" />
    <glyph glyph-name="a" unicode="a" horiz-adv-x="1189" 
d="M464 -29q-152 0 -252 89q-101 89 -101 237q0 178 146 270t392 92l193 -6v29q0 137 -54 212t-202 75q-195 0 -252 -187l-172 52q24 116 132 204t308 88q424 0 424 -432v-405l10 -289h-182l-10 166q-60 -92 -144 -144t-236 -51zM309 316q1 -94 59 -143q58 -48 148 -48
q244 0 310 248q15 55 16 108v25q-84 4 -178 4q-199 0 -277 -50t-78 -144z" />
    <glyph glyph-name="b" unicode="b" horiz-adv-x="1314" 
d="M679 131q157 0 240 117q83 116 83 308t-80 300t-239 107q-159 0 -242 -114t-83 -304t82 -302t239 -112zM680 -31q-121 1 -201 53t-112 125v-147h-183v1593h197v-669q43 78 129 139t234 61t260 -86q110 -86 154 -209t44 -272q0 -258 -133 -423t-389 -165z" />
    <glyph glyph-name="c" unicode="c" horiz-adv-x="1165" 
d="M627 -31q-254 0 -384 154q-130 153 -130 405t138 424t396 172q313 0 424 -264l-176 -76q-64 132 -160 166q-45 16 -104 17q-152 0 -238 -118q-86 -119 -86 -305t84 -300t246 -115q199 0 295 190l155 -69q-66 -133 -174 -207t-286 -74z" />
    <glyph glyph-name="d" unicode="d" horiz-adv-x="1314" 
d="M608 -31q-228 1 -362 147q-133 146 -133 421q0 338 229 501q121 86 293 86q106 0 187 -51t118 -123v643h190v-1593h-184v170q-110 -201 -338 -201zM313 548q0 -192 77 -302t238 -111q160 0 244 114t84 302t-82 302t-238 114t-240 -114q-83 -113 -83 -305z" />
    <glyph glyph-name="e" unicode="e" horiz-adv-x="1202" 
d="M615 971q-134 0 -211 -91t-89 -223h586q-10 143 -81 229t-205 85zM625 -31q-242 0 -377 158t-135 414t137 420q137 163 384 163q248 0 362 -169t114 -447h-799q2 -164 91 -270t250 -106t266 155l151 -82q-61 -106 -173 -171t-271 -65z" />
    <glyph glyph-name="f" unicode="f" horiz-adv-x="747" 
d="M551 1604q60 0 145 -19l-10 -162q-66 16 -108 17q-86 0 -113 -44t-27 -132v-168h246v-150h-246v-946h-190v946h-187v150h187v213q0 145 83 220t220 75z" />
    <glyph glyph-name="g" unicode="g" horiz-adv-x="1314" 
d="M610 -475q-371 0 -469 287l181 55q66 -188 286 -189q176 0 254 79t78 243v201q-102 -209 -354 -209q-223 0 -348 156t-125 402q0 247 131 411q132 163 368 163t336 -190v162h182v-1041q0 -256 -120 -393t-400 -137zM313 556q0 -184 80 -292t237 -108q158 0 242 110
t84 294q0 183 -83 295t-237 112t-239 -114q-84 -114 -84 -297z" />
    <glyph glyph-name="h" unicode="h" horiz-adv-x="1271" 
d="M375 1593v-655q121 186 342 186q184 0 282 -114t99 -297v-713h-191v655q0 301 -248 301q-131 0 -207 -82t-77 -245v-629h-191v1593h191z" />
    <glyph glyph-name="i" unicode="i" horiz-adv-x="559" 
d="M184 0v1096h191v-1096h-191zM172 1327v219h215v-219h-215z" />
    <glyph glyph-name="j" unicode="j" horiz-adv-x="559" 
d="M86 -455q-86 0 -152 19l15 145q51 -10 112 -10q123 0 123 164v1233h191v-1246q0 -147 -78 -226t-211 -79zM172 1327v219h215v-219h-215z" />
    <glyph glyph-name="k" unicode="k" horiz-adv-x="1155" 
d="M375 0h-191v1593h191v-1022l446 525h226l-392 -453l463 -643h-235l-363 506l-145 -172v-334z" />
    <glyph glyph-name="l" unicode="l" horiz-adv-x="559" 
d="M184 0v1593h191v-1593h-191z" />
    <glyph glyph-name="m" unicode="m" horiz-adv-x="1994" 
d="M184 0v1096h185v-162q129 190 348 190q258 0 346 -219q147 219 377 219q184 0 282 -114t99 -297v-713h-191v655q0 301 -248 301q-132 0 -208 -82t-76 -245v-629h-191v655q0 301 -248 301q-131 0 -207 -82t-77 -245v-629h-191z" />
    <glyph glyph-name="n" unicode="n" horiz-adv-x="1271" 
d="M184 0v1096h185v-162q129 190 348 190q184 0 282 -114t99 -297v-713h-191v655q0 301 -248 301q-131 0 -207 -82t-77 -245v-629h-191z" />
    <glyph glyph-name="o" unicode="o" horiz-adv-x="1273" 
d="M639 125q162 0 243 114q81 113 81 307t-83 308t-245 115q-162 0 -243 -114q-81 -113 -81 -307t83 -308t245 -115zM630 -31q-249 0 -383 160t-134 416t141 418q141 161 390 161t383 -160t134 -415q0 -256 -141 -418t-390 -162z" />
    <glyph glyph-name="p" unicode="p" horiz-adv-x="1314" 
d="M184 -455v1551h183v-183q49 87 140 149t218 62t222 -49t149 -131q109 -166 106 -387q0 -258 -140 -423t-382 -165q-113 0 -192 48t-113 114v-586h-191zM679 131q157 0 240 117q83 116 83 308t-80 300t-239 107q-159 0 -242 -114t-83 -304t82 -302t239 -112z" />
    <glyph glyph-name="q" unicode="q" horiz-adv-x="1314" 
d="M629 135q159 0 243 116t84 304t-82 300t-238 112t-240 -116q-83 -116 -83 -304t78 -300t238 -112zM934 -455v625q-43 -78 -129 -139t-219 -62q-227 0 -350 160t-123 413q0 254 130 418t365 164q125 0 215 -55t125 -135v162h182v-1551h-196z" />
    <glyph glyph-name="r" unicode="r" horiz-adv-x="804" 
d="M184 0v1096h185v-199h6q90 221 368 221v-196q-39 4 -111 4t-140 -47q-70 -47 -94 -129t-23 -306v-444h-191z" />
    <glyph glyph-name="s" unicode="s" horiz-adv-x="1062" 
d="M952 319q0 -158 -114 -254t-302 -96t-287 70t-155 203l162 67q86 -186 274 -186q113 0 176 45q62 46 62 114t-38 105t-142 64l-152 38q-295 76 -295 322q-1 127 105 220t284 93q301 0 408 -237l-162 -72q-80 154 -244 154q-106 0 -155 -43t-49 -107q0 -65 43 -101
t139 -61l176 -45q266 -68 266 -293z" />
    <glyph glyph-name="t" unicode="t" horiz-adv-x="798" 
d="M61 946v150h189l12 297h172v-297h250v-150h-246v-676q0 -82 34 -110t114 -29l102 8l8 -141q-98 -20 -172 -21q-156 0 -217 67t-61 224l4 678h-189z" />
    <glyph glyph-name="u" unicode="u" horiz-adv-x="1251" 
d="M545 -29q-174 0 -273 118q-98 118 -98 312v695h191v-656q0 -303 237 -303q147 0 211 90q63 90 64 234v635h190v-1096h-184v158q-111 -187 -338 -187z" />
    <glyph glyph-name="v" unicode="v" horiz-adv-x="1083" 
d="M655 0h-227l-387 1096h205l252 -762l47 -156h6q18 66 49 156l254 762h188z" />
    <glyph glyph-name="w" unicode="w" horiz-adv-x="1697" 
d="M1085 0l-204 678l-33 139h-6q-6 -53 -35 -143l-209 -674h-211l-336 1096h201l213 -752l31 -147h6q12 68 37 147l227 752h172l227 -752l37 -162h8q12 80 35 160l213 754h191l-340 -1096h-224z" />
    <glyph glyph-name="x" unicode="x" horiz-adv-x="1077" 
d="M805 0l-277 422l-276 -422h-201l375 559l-354 537h221l248 -387l252 387h204l-356 -527l385 -569h-221z" />
    <glyph glyph-name="y" unicode="y" horiz-adv-x="1056" 
d="M281 -455l151 455l-391 1096h205l254 -744q28 -78 37 -141h6q8 55 41 151l243 734h189l-547 -1551h-188z" />
    <glyph glyph-name="z" unicode="z" horiz-adv-x="1034" 
d="M113 936v160h817v-160l-621 -776h637v-160h-850v158l625 778h-608z" />
    <glyph glyph-name="braceleft" unicode="{" horiz-adv-x="686" 
d="M82 573v156h63q86 0 113 43t21 137l-29 416q-12 160 63 235q76 75 209 74h103v-127h-60q-85 0 -117 -40t-26 -142l24 -455q10 -178 -143 -217v-4q154 -39 143 -217l-24 -457q-6 -102 27 -142t116 -40h60v-127h-103q-133 0 -209 75t-63 234l29 418q6 94 -21 137t-113 43
h-63z" />
    <glyph glyph-name="bar" unicode="|" horiz-adv-x="649" 
d="M256 -334v1968h137v-1968h-137z" />
    <glyph glyph-name="braceright" unicode="}" horiz-adv-x="686" 
d="M584 725v-156h-64q-86 0 -112 -43t-21 -137l29 -416q12 -161 -64 -235t-209 -74h-102v127h59q84 0 117 40t27 142l-25 455q-10 178 143 217v4q-154 39 -143 217l25 457q6 102 -27 142t-117 40h-59v127h102q133 0 209 -74t64 -235l-29 -418q-6 -94 21 -137t112 -43h64z
" />
    <glyph glyph-name="asciitilde" unicode="~" horiz-adv-x="1228" 
d="M137 547q0 119 71 202t200 82q94 -1 229 -79t190 -78q104 0 138 145h125q0 -111 -74 -197t-182 -87t-244 79t-192 80t-92 -39t-44 -108h-125z" />
    <glyph glyph-name="uni00A0" unicode="&#xa0;" horiz-adv-x="532" 
 />
    <glyph glyph-name="exclamdown" unicode="&#xa1;" horiz-adv-x="587" 
d="M393 -342h-196v600l30 573h135l31 -573v-600zM426 1251v-264h-264v264h264z" />
    <glyph glyph-name="cent" unicode="&#xa2;" horiz-adv-x="1179" 
d="M305 545q0 -162 65 -275t189 -141v838q-119 -29 -187 -145t-67 -277zM682 -291h-123v264q-221 20 -334 171t-112 382q0 231 114 398q115 166 332 194v287h123v-281q160 -10 253 -86t136 -178l-174 -74q-23 45 -43 76t-66 65t-106 44v-848q166 20 252 194l153 -67
q-127 -258 -405 -279v-262z" />
    <glyph glyph-name="sterling" unicode="&#xa3;" horiz-adv-x="1345" 
d="M1208 176v-176h-1075v154q303 10 240 409l-19 123h-180v133h160l-35 217q-37 229 87 381t372 152q184 0 303 -93t151 -282l-182 -35q-31 129 -96 192q-66 62 -184 62q-313 0 -250 -405l30 -189h431v-133h-410l16 -98q25 -154 -5 -246t-113 -160v-6h759z" />
    <glyph glyph-name="currency" unicode="&#xa4;" horiz-adv-x="1292" 
d="M276 708q0 110 54 199l-162 162l117 117l159 -162q90 55 201 55t203 -59l168 172l112 -113l-172 -170q56 -89 56 -199t-56 -198l166 -164l-116 -117l-164 166q-88 -53 -199 -53t-199 53l-165 -168l-113 113l168 166q-58 90 -58 200zM422 711q0 -104 61 -172t159 -68
t162 68q62 68 62 172t-62 173q-62 68 -160 68t-161 -68q-61 -69 -61 -173z" />
    <glyph glyph-name="yen" unicode="&#xa5;" horiz-adv-x="1331" 
d="M1208 289h-436v-289h-188v289h-461v131h461v207h-461v131h440l-454 788h206l367 -674l348 674h193l-432 -788h417v-131h-436v-207h436v-131z" />
    <glyph glyph-name="brokenbar" unicode="&#xa6;" horiz-adv-x="649" 
d="M256 -334v760h137v-760h-137zM256 874v760h137v-760h-137z" />
    <glyph glyph-name="section" unicode="&#xa7;" horiz-adv-x="1116" 
d="M536 -31q-204 0 -303 82q-98 82 -122 201l174 43q55 -174 254 -174q238 0 237 166q0 125 -147 164l-230 59q-272 70 -272 287q0 82 32 138t105 105v7q-90 78 -90 212t104 226t280 92q178 0 278 -77t127 -189l-170 -47q-55 170 -242 170q-99 0 -149 -43t-50 -111t39 -104
t113 -58l231 -61q272 -74 273 -283q0 -82 -32 -140t-106 -106v-6q90 -78 90 -222t-109 -237q-111 -94 -315 -94zM303 844q0 -82 42 -115t134 -57l170 -47q76 -23 107 -35q76 45 76 128t-40 118t-137 61l-170 47q-63 16 -108 35q-74 -53 -74 -135z" />
    <glyph glyph-name="dieresis" unicode="&#xa8;" horiz-adv-x="1024" 
d="M199 1337v209h202v-209h-202zM623 1337v209h202v-209h-202z" />
    <glyph glyph-name="copyright" unicode="&#xa9;" horiz-adv-x="1894" 
d="M952 305q-202 0 -314 130t-112 336t116 347t327 142q242 0 350 -218l-145 -63q-68 152 -220 151q-126 0 -196 -98t-70 -252t70 -249t203 -95q166 0 243 158l129 -57q-115 -232 -381 -232zM256 772q0 -293 202 -499q202 -205 488 -205t490 206q203 206 202 498
q0 293 -202 500q-203 207 -490 207q-286 0 -488 -207t-202 -500zM143 772q1 334 235 570t568 235q334 0 570 -236q236 -235 236 -569t-236 -568t-570 -234t-568 234t-235 568z" />
    <glyph glyph-name="ordfeminine" unicode="&#xaa;" horiz-adv-x="927" 
d="M387 711q-131 -1 -208 67t-77 191t110 191t290 67l131 -6v18q0 211 -182 211q-125 0 -179 -137l-139 45q68 219 334 219q155 0 237 -76t82 -264v-287l9 -217h-154l-8 125q-90 -147 -246 -147zM399 838q119 0 176 82t58 167v19q-59 6 -125 6q-238 0 -238 -149
q0 -57 35 -91t94 -34z" />
    <glyph glyph-name="guillemotleft" unicode="&#xab;" horiz-adv-x="1003" 
d="M348 950h174l-239 -413l239 -420h-178l-252 418zM717 950h174l-240 -413l240 -420h-178l-252 418z" />
    <glyph glyph-name="logicalnot" unicode="&#xac;" horiz-adv-x="1228" 
d="M133 598v139h963v-565h-148v426h-815z" />
    <glyph glyph-name="registered" unicode="&#xae;" horiz-adv-x="966" 
d="M322 922v464h161q172 0 172 -141q0 -94 -88 -125l109 -198h-90l-94 182h-91v-182h-79zM401 1178h78q92 0 92 67q0 72 -88 72h-82v-139zM483 1507q-145 0 -249 -105q-104 -104 -103 -252q0 -148 103 -254q102 -106 248 -105q146 0 250 105q104 104 104 252t-104 254
t-249 105zM483 725q-176 0 -300 124t-124 300t124 300t300 124t300 -124t124 -300t-124 -300t-300 -124z" />
    <glyph glyph-name="macron" unicode="&#xaf;" horiz-adv-x="1024" 
d="M164 1337v154h684v-154h-684z" />
    <glyph glyph-name="degree" unicode="&#xb0;" horiz-adv-x="819" 
d="M223 1270q0 -88 51 -144q50 -56 134 -55q84 0 136 55q52 56 52 144t-52 144t-135 56t-135 -56t-51 -144zM102 1270q0 131 88 219t220 88t220 -88q87 -88 87 -219t-89 -218t-221 -87t-219 87q-86 87 -86 218z" />
    <glyph glyph-name="plusminus" unicode="&#xb1;" horiz-adv-x="1228" 
d="M133 0v139h963v-139h-963zM133 690v139h408v367h147v-367h408v-139h-408v-375h-147v375h-408z" />
    <glyph glyph-name="twosuperior" unicode="&#xb2;" horiz-adv-x="835" 
d="M420 1696q141 0 214 -69t73 -179t-71 -192q-71 -83 -335 -306v-4h412v-127h-615v117q338 297 387 350q68 82 70 150q0 68 -36 104t-99 35q-152 0 -162 -172l-141 8q4 121 83 203t220 82z" />
    <glyph glyph-name="threesuperior" unicode="&#xb3;" horiz-adv-x="858" 
d="M422 918q80 0 125 40t45 109q0 135 -170 135h-94v121h90q152 0 151 127q0 61 -40 94t-105 33q-139 0 -166 -152l-133 17q12 114 92 184t214 70t208 -64t74 -162q0 -147 -150 -194v-4q178 -35 178 -207q0 -113 -90 -189t-230 -75q-140 -1 -222 69t-95 183l142 16
q26 -151 176 -151z" />
    <glyph glyph-name="acute" unicode="&#xb4;" horiz-adv-x="1024" 
d="M293 1251l196 342h252l-290 -342h-158z" />
    <glyph glyph-name="paragraph" unicode="&#xb6;" horiz-adv-x="1187" 
d="M803 -455v2001h190v-2001h-190zM623 750h-103q-194 0 -306 112t-112 285q0 172 114 286t304 113h103v-796z" />
    <glyph glyph-name="periodcentered" unicode="&#xb7;" horiz-adv-x="612" 
d="M174 473v264h264v-264h-264z" />
    <glyph glyph-name="cedilla" unicode="&#xb8;" horiz-adv-x="1024" 
d="M676 -109q58 0 108 -44q50 -43 50 -125t-64 -138t-179 -57q-116 0 -200 65l60 86q59 -43 143 -43q40 -1 64 19t24 55t-23 53t-59 18t-68 -24l-92 47l95 215h102l-68 -141l9 -2q40 16 98 16z" />
    <glyph glyph-name="onesuperior" unicode="&#xb9;" horiz-adv-x="628" 
d="M446 819h-145v682l-174 -104l-64 106l277 178h106v-862z" />
    <glyph glyph-name="ordmasculine" unicode="&#xba;" horiz-adv-x="995" 
d="M498 840q109 0 165 83t56 221q-1 138 -59 221t-166 83t-163 -82t-55 -221t56 -222t166 -83zM490 711q-185 -1 -281 113t-96 319t101 319q100 114 286 115q186 0 284 -114q98 -115 98 -317t-103 -318q-104 -116 -289 -117z" />
    <glyph glyph-name="guillemotright" unicode="&#xbb;" horiz-adv-x="1003" 
d="M287 117h-174l239 413l-239 420h178l252 -418zM655 117h-174l240 413l-240 420h178l252 -418z" />
    <glyph glyph-name="onequarter" unicode="&#xbc;" horiz-adv-x="1808" 
d="M1460 322v423h-8q-35 -94 -129 -235l-125 -188h262zM1597 0h-137v203h-411v96l370 561h178v-536h132v-121h-132v-203zM264 -29l1028 1598h146l-1026 -1598h-148zM446 686h-145v682l-174 -104l-64 106l277 178h106v-862z" />
    <glyph glyph-name="onehalf" unicode="&#xbd;" horiz-adv-x="1873" 
d="M1456 877q141 0 214 -69q73 -68 73 -178t-71 -193t-335 -306v-4h412v-127h-614v117q338 297 387 350q68 81 68 149t-35 104q-36 36 -99 36q-152 0 -162 -172l-141 8q4 121 83 203t220 82zM264 -29l1028 1598h146l-1026 -1598h-148zM446 686h-145v682l-174 -104l-64 106
l277 178h106v-862z" />
    <glyph glyph-name="threequarters" unicode="&#xbe;" horiz-adv-x="1996" 
d="M1651 322v423h-9q-35 -94 -129 -235l-124 -188h262zM1788 0h-137v203h-412v96l371 561h178v-536h131v-121h-131v-203zM467 -29l1028 1598h145l-1026 -1598h-147zM422 784q80 0 125 40t45 110q0 135 -170 135h-94v121h90q152 0 151 127q0 61 -40 94t-105 33
q-139 0 -166 -152l-133 17q12 113 92 183t214 71t208 -63t74 -163q0 -147 -150 -194v-4q178 -35 178 -207q0 -113 -90 -189q-90 -75 -230 -75t-222 70t-95 182l142 16q26 -152 176 -152z" />
    <glyph glyph-name="questiondown" unicode="&#xbf;" horiz-adv-x="1075" 
d="M657 834v-129q-1 -121 -31 -179t-150 -156q-120 -99 -167 -168q-47 -70 -47 -172t75 -164t204 -63q276 0 327 299l179 -28q-21 -197 -161 -314q-140 -116 -360 -116t-340 108q-121 108 -120 283q0 125 64 224q66 99 176 189t139 141q30 52 30 130v115h182zM698 1251v-264
h-264v264h264z" />
    <glyph glyph-name="Agrave" unicode="&#xc0;" horiz-adv-x="1486" 
d="M639 1942l190 -291h-163l-287 291h260zM1214 0l-155 444h-645l-158 -444h-195l560 1546h239l565 -1546h-211zM682 1204l-211 -596h530l-208 592l-52 168h-6q-22 -80 -53 -164z" />
    <glyph glyph-name="Aacute" unicode="&#xc1;" horiz-adv-x="1486" 
d="M657 1651l191 291h260l-287 -291h-164zM1214 0l-155 444h-645l-158 -444h-195l560 1546h239l565 -1546h-211zM682 1204l-211 -596h530l-208 592l-52 168h-6q-22 -80 -53 -164z" />
    <glyph glyph-name="Acircumflex" unicode="&#xc2;" horiz-adv-x="1486" 
d="M436 1628v160l309 168l306 -168v-166l-316 154zM1214 0l-155 444h-645l-158 -444h-195l560 1546h239l565 -1546h-211zM682 1204l-211 -596h530l-208 592l-52 168h-6q-22 -80 -53 -164z" />
    <glyph glyph-name="Atilde" unicode="&#xc3;" horiz-adv-x="1486" 
d="M504 1673h-137q0 117 56 196t145 79q90 0 194 -58t141 -59q90 0 90 125h137q-6 -272 -221 -273q-78 1 -177 59t-136 58q-92 0 -92 -127zM1214 0l-155 444h-645l-158 -444h-195l560 1546h239l565 -1546h-211zM682 1204l-211 -596h530l-208 592l-52 168h-6
q-22 -80 -53 -164z" />
    <glyph glyph-name="Adieresis" unicode="&#xc4;" horiz-adv-x="1486" 
d="M420 1692v206h203v-206h-203zM864 1692v206h203v-206h-203zM1214 0l-155 444h-645l-158 -444h-195l560 1546h239l565 -1546h-211zM682 1204l-211 -596h530l-208 592l-52 168h-6q-22 -80 -53 -164z" />
    <glyph glyph-name="Aring" unicode="&#xc5;" horiz-adv-x="1486" 
d="M594 1855q0 -63 44 -108t104 -45t104 45q43 45 43 107t-43 106q-44 44 -104 45t-104 -43t-44 -107zM494 1855q0 102 72 175q73 72 177 72t178 -72q73 -72 73 -174t-74 -175q-72 -71 -176 -71t-178 71q-72 72 -72 174zM1214 0l-155 444h-645l-158 -444h-195l560 1546h239
l565 -1546h-211zM682 1204l-211 -596h530l-208 592l-52 168h-6q-22 -80 -53 -164z" />
    <glyph glyph-name="AE" unicode="&#xc6;" horiz-adv-x="1953" 
d="M926 0v444h-490l-188 -444h-197l678 1546h1077v-172h-682v-508h602v-168h-602v-526h697v-172h-895zM926 608v766h-99q-30 -84 -65 -166l-256 -600h420z" />
    <glyph glyph-name="Ccedilla" unicode="&#xc7;" horiz-adv-x="1521" 
d="M1044 -278q0 -82 -63 -138t-179 -57q-116 0 -200 65l60 86q59 -43 143 -43q39 -1 63 19t25 55q0 35 -23 53q-24 18 -60 18t-67 -24l-92 47l74 170q-272 29 -435 234t-163 564t191 579t497 219q233 0 379 -108t211 -267l-176 -82q-139 289 -418 289q-223 0 -349 -175
t-126 -459t127 -456t348 -172q319 0 428 318l180 -56q-22 -100 -91 -184q-68 -85 -133 -133t-162 -82q-97 -33 -210 -33l-43 -92l8 -2q40 16 98 16t108 -44q50 -43 50 -125z" />
    <glyph glyph-name="Egrave" unicode="&#xc8;" horiz-adv-x="1304" 
d="M594 1942l190 -291h-163l-287 291h260zM195 0v1546h962v-172h-764v-506h684v-172h-684v-524h778v-172h-976z" />
    <glyph glyph-name="Eacute" unicode="&#xc9;" horiz-adv-x="1304" 
d="M596 1651l190 291h261l-287 -291h-164zM195 0v1546h962v-172h-764v-506h684v-172h-684v-524h778v-172h-976z" />
    <glyph glyph-name="Ecircumflex" unicode="&#xca;" horiz-adv-x="1304" 
d="M391 1628v160l309 168l306 -168v-166l-316 154zM195 0v1546h962v-172h-764v-506h684v-172h-684v-524h778v-172h-976z" />
    <glyph glyph-name="Edieresis" unicode="&#xcb;" horiz-adv-x="1304" 
d="M375 1692v206h203v-206h-203zM819 1692v206h203v-206h-203zM195 0v1546h962v-172h-764v-506h684v-172h-684v-524h778v-172h-976z" />
    <glyph glyph-name="Igrave" unicode="&#xcc;" horiz-adv-x="587" 
d="M188 1942l191 -291h-164l-287 291h260zM195 0v1546h198v-1546h-198z" />
    <glyph glyph-name="Iacute" unicode="&#xcd;" horiz-adv-x="587" 
d="M207 1651l190 291h260l-286 -291h-164zM195 0v1546h198v-1546h-198z" />
    <glyph glyph-name="Icircumflex" unicode="&#xce;" horiz-adv-x="587" 
d="M195 0v1546h198v-1546h-198zM27 1628v166l268 164l264 -164v-172l-274 150z" />
    <glyph glyph-name="Idieresis" unicode="&#xcf;" horiz-adv-x="587" 
d="M195 0v1546h198v-1546h-198zM25 1692v206h202v-206h-202zM360 1692v206h203v-206h-203z" />
    <glyph glyph-name="Eth" unicode="&#xd0;" horiz-adv-x="1536" 
d="M393 162h248q287 0 423 140t136 462t-134 468q-134 144 -425 144h-248v-530h424v-133h-424v-551zM1403 776q0 -391 -196 -586t-566 -190h-446v713h-177v133h177v700h446q762 0 762 -770z" />
    <glyph glyph-name="Ntilde" unicode="&#xd1;" horiz-adv-x="1552" 
d="M563 1673h-137q0 117 56 196t146 79t193 -58q104 -58 142 -59q90 0 90 125h137q-6 -272 -221 -273q-78 1 -177 59t-137 58q-92 0 -92 -127zM195 0v1546h233l674 -1155l61 -123h4v1278h189v-1546h-234l-673 1155l-62 123h-4v-1278h-188z" />
    <glyph glyph-name="Ograve" unicode="&#xd2;" horiz-adv-x="1624" 
d="M707 1942l190 -291h-164l-287 291h261zM810 135q224 0 352 168t128 469t-127 466t-351 165t-351 -169t-127 -466t126 -465t350 -168zM818 1569q312 0 496 -210t183 -586q1 -376 -189 -590t-504 -214t-496 210q-181 210 -181 586t189 590q190 214 502 214z" />
    <glyph glyph-name="Oacute" unicode="&#xd3;" horiz-adv-x="1624" 
d="M725 1651l190 291h261l-287 -291h-164zM810 135q224 0 352 168t128 469t-127 466t-351 165t-351 -169t-127 -466t126 -465t350 -168zM818 1569q312 0 496 -210t183 -586q1 -376 -189 -590t-504 -214t-496 210q-181 210 -181 586t189 590q190 214 502 214z" />
    <glyph glyph-name="Ocircumflex" unicode="&#xd4;" horiz-adv-x="1624" 
d="M504 1628v160l309 168l305 -168v-166l-315 154zM810 135q224 0 352 168t128 469t-127 466t-351 165t-351 -169t-127 -466t126 -465t350 -168zM818 1569q312 0 496 -210t183 -586q1 -376 -189 -590t-504 -214t-496 210q-181 210 -181 586t189 590q190 214 502 214z" />
    <glyph glyph-name="Otilde" unicode="&#xd5;" horiz-adv-x="1624" 
d="M584 1673h-138q0 117 56 196t146 79t194 -58t141 -59q90 0 90 125h137q-6 -272 -221 -273q-78 1 -177 59t-136 58q-92 0 -92 -127zM810 135q224 0 352 168t128 469t-127 466t-351 165t-351 -169t-127 -466t126 -465t350 -168zM818 1569q312 0 496 -210t183 -586
q1 -376 -189 -590t-504 -214t-496 210q-181 210 -181 586t189 590q190 214 502 214z" />
    <glyph glyph-name="Odieresis" unicode="&#xd6;" horiz-adv-x="1624" 
d="M487 1692v206h203v-206h-203zM932 1692v206h203v-206h-203zM810 135q224 0 352 168t128 469t-127 466t-351 165t-351 -169t-127 -466t126 -465t350 -168zM818 1569q312 0 496 -210t183 -586q1 -376 -189 -590t-504 -214t-496 210q-181 210 -181 586t189 590
q190 214 502 214z" />
    <glyph glyph-name="multiply" unicode="&#xd7;" horiz-adv-x="1228" 
d="M233 176l-104 107l379 379l-379 380l104 107l379 -383l379 383l107 -107l-381 -380l381 -379l-107 -107l-379 381z" />
    <glyph glyph-name="Oslash" unicode="&#xd8;" horiz-adv-x="1624" 
d="M809 -31q-233 0 -397 121l-140 -199l-104 72l149 213q-190 217 -190 591t189 587t499 215q231 0 395 -119l150 215l104 -68l-161 -231q195 -213 195 -591t-190 -592t-499 -214zM809 135q223 0 352 173q129 172 129 454t-100 442l-676 -964q117 -105 295 -105zM334 782
q0 -276 98 -442l674 963q-115 100 -295 100q-221 0 -349 -173q-128 -172 -128 -448z" />
    <glyph glyph-name="Ugrave" unicode="&#xd9;" horiz-adv-x="1544" 
d="M668 1942l190 -291h-164l-286 291h260zM1360 528q0 -264 -146 -412t-439 -147q-294 1 -442 147t-149 412v1018h199v-997q0 -207 93 -309t299 -102t300 104t94 307v997h191v-1018z" />
    <glyph glyph-name="Uacute" unicode="&#xda;" horiz-adv-x="1544" 
d="M686 1651l191 291h260l-287 -291h-164zM1360 528q0 -264 -146 -412t-439 -147q-294 1 -442 147t-149 412v1018h199v-997q0 -207 93 -309t299 -102t300 104t94 307v997h191v-1018z" />
    <glyph glyph-name="Ucircumflex" unicode="&#xdb;" horiz-adv-x="1544" 
d="M465 1628v160l309 168l305 -168v-166l-315 154zM1360 528q0 -264 -146 -412t-439 -147q-294 1 -442 147t-149 412v1018h199v-997q0 -207 93 -309t299 -102t300 104t94 307v997h191v-1018z" />
    <glyph glyph-name="Udieresis" unicode="&#xdc;" horiz-adv-x="1544" 
d="M449 1692v206h202v-206h-202zM893 1692v206h203v-206h-203zM1360 528q0 -264 -146 -412t-439 -147q-294 1 -442 147t-149 412v1018h199v-997q0 -207 93 -309t299 -102t300 104t94 307v997h191v-1018z" />
    <glyph glyph-name="Yacute" unicode="&#xdd;" horiz-adv-x="1353" 
d="M600 1651l191 291h260l-287 -291h-164zM582 0v631l-521 915h220l407 -737l408 737h196l-510 -903v-643h-200z" />
    <glyph glyph-name="Thorn" unicode="&#xde;" horiz-adv-x="1284" 
d="M711 1034h-328v-520h319q328 0 328 260t-319 260zM184 0v1546h199v-350h328q512 0 512 -422q1 -213 -139 -318t-390 -106h-311v-350h-199z" />
    <glyph glyph-name="germandbls" unicode="&#xdf;" horiz-adv-x="1335" 
d="M184 0v1118q0 242 118 363t339 121q174 0 289 -92t114 -228q0 -72 -32 -140t-57 -96q-24 -26 -72 -76t-74 -81q-26 -30 -28 -73q-1 -42 15 -64t35 -35q20 -12 70 -33l100 -43q262 -111 263 -319q0 -152 -104 -251t-280 -99t-269 77q-93 78 -115 197l153 49
q63 -176 234 -176q86 0 139 45t53 117q0 127 -180 204l-82 35q-105 44 -161 102t-56 158t58 165q22 27 46 51l31 30q115 119 115 217q0 99 -55 155t-164 56q-248 0 -248 -305v-1149h-195z" />
    <glyph glyph-name="agrave" unicode="&#xe0;" horiz-adv-x="1189" 
d="M528 1593l166 -342h-155l-263 342h252zM464 -29q-152 0 -252 89q-101 89 -101 237q0 178 146 270t392 92l193 -6v29q0 137 -54 212t-202 75q-195 0 -252 -187l-172 52q24 116 132 204t308 88q424 0 424 -432v-405l10 -289h-182l-10 166q-60 -92 -144 -144t-236 -51z
M309 316q1 -94 59 -143q58 -48 148 -48q244 0 310 248q15 55 16 108v25q-84 4 -178 4q-199 0 -277 -50t-78 -144z" />
    <glyph glyph-name="aacute" unicode="&#xe1;" horiz-adv-x="1189" 
d="M492 1251l196 342h252l-291 -342h-157zM464 -29q-152 0 -252 89q-101 89 -101 237q0 178 146 270t392 92l193 -6v29q0 137 -54 212t-202 75q-195 0 -252 -187l-172 52q24 116 132 204t308 88q424 0 424 -432v-405l10 -289h-182l-10 166q-60 -92 -144 -144t-236 -51z
M309 316q1 -94 59 -143q58 -48 148 -48q244 0 310 248q15 55 16 108v25q-84 4 -178 4q-199 0 -277 -50t-78 -144z" />
    <glyph glyph-name="acircumflex" unicode="&#xe2;" horiz-adv-x="1189" 
d="M299 1200v166l309 209l305 -205v-170l-309 193zM464 -29q-152 0 -252 89q-101 89 -101 237q0 178 146 270t392 92l193 -6v29q0 137 -54 212t-202 75q-195 0 -252 -187l-172 52q24 116 132 204t308 88q424 0 424 -432v-405l10 -289h-182l-10 166q-60 -92 -144 -144
t-236 -51zM309 316q1 -94 59 -143q58 -48 148 -48q244 0 310 248q15 55 16 108v25q-84 4 -178 4q-199 0 -277 -50t-78 -144z" />
    <glyph glyph-name="atilde" unicode="&#xe3;" horiz-adv-x="1189" 
d="M360 1264h-137q1 118 57 196t145 78t193 -58t142 -59q90 0 90 125h137q-6 -272 -221 -272q-78 0 -177 58t-136 59q-93 0 -93 -127zM464 -29q-152 0 -252 89q-101 89 -101 237q0 178 146 270t392 92l193 -6v29q0 137 -54 212t-202 75q-195 0 -252 -187l-172 52
q24 116 132 204t308 88q424 0 424 -432v-405l10 -289h-182l-10 166q-60 -92 -144 -144t-236 -51zM309 316q1 -94 59 -143q58 -48 148 -48q244 0 310 248q15 55 16 108v25q-84 4 -178 4q-199 0 -277 -50t-78 -144z" />
    <glyph glyph-name="adieresis" unicode="&#xe4;" horiz-adv-x="1189" 
d="M293 1337v209h203v-209h-203zM717 1337v209h203v-209h-203zM464 -29q-152 0 -252 89q-101 89 -101 237q0 178 146 270t392 92l193 -6v29q0 137 -54 212t-202 75q-195 0 -252 -187l-172 52q24 116 132 204t308 88q424 0 424 -432v-405l10 -289h-182l-10 166
q-60 -92 -144 -144t-236 -51zM309 316q1 -94 59 -143q58 -48 148 -48q244 0 310 248q15 55 16 108v25q-84 4 -178 4q-199 0 -277 -50t-78 -144z" />
    <glyph glyph-name="aring" unicode="&#xe5;" horiz-adv-x="1189" 
d="M457 1466q0 -63 44 -108t104 -45t104 45q43 45 43 107q0 63 -43 107t-103 44t-105 -44q-44 -44 -44 -106zM356 1466q0 102 73 174t177 72t177 -72t73 -174t-73 -174t-177 -72t-177 72t-73 174zM464 -29q-152 0 -252 89q-101 89 -101 237q0 178 146 270t392 92l193 -6v29
q0 137 -54 212t-202 75q-195 0 -252 -187l-172 52q24 116 132 204t308 88q424 0 424 -432v-405l10 -289h-182l-10 166q-60 -92 -144 -144t-236 -51zM309 316q1 -94 59 -143q58 -48 148 -48q244 0 310 248q15 55 16 108v25q-84 4 -178 4q-199 0 -277 -50t-78 -144z" />
    <glyph glyph-name="ae" unicode="&#xe6;" horiz-adv-x="1902" 
d="M511 125q89 0 159 38q114 62 155 210q16 57 17 108v15h-99q-233 0 -332 -39t-99 -137t54 -146q56 -49 145 -49zM1316 971q-134 0 -210 -92t-88 -226h584q-10 143 -81 231t-205 87zM111 297q0 176 150 264q151 88 396 88h185v51q0 123 -54 196t-202 73q-195 0 -252 -187
l-172 52q24 116 132 204t308 88q260 0 367 -182q139 180 375 180t351 -173q116 -173 115 -451h-796q2 -166 89 -268t249 -101q162 0 266 156l151 -82q-59 -106 -171 -171t-264 -65q-152 -1 -262 59q-112 60 -161 175q-141 -231 -438 -232q-158 -1 -260 89t-102 237z" />
    <glyph glyph-name="ccedilla" unicode="&#xe7;" horiz-adv-x="1165" 
d="M864 -278q0 -82 -63 -138t-179 -57q-116 0 -200 65l59 86q59 -43 144 -43q39 -1 63 19t25 55q0 35 -23 53q-24 18 -60 18t-67 -24l-92 47l74 170q-213 25 -323 175t-110 392q0 240 139 412q138 172 396 172q313 0 424 -264l-176 -76q-64 132 -160 166q-45 16 -104 17
q-152 0 -238 -118q-86 -119 -86 -305t84 -300t246 -115q199 0 295 190l155 -69q-63 -129 -167 -203t-275 -78l-45 -92l8 -2q40 16 98 16t108 -44q50 -43 50 -125z" />
    <glyph glyph-name="egrave" unicode="&#xe8;" horiz-adv-x="1202" 
d="M563 1593l166 -342h-156l-262 342h252zM615 971q-134 0 -211 -91t-89 -223h586q-10 143 -81 229t-205 85zM625 -31q-242 0 -377 158t-135 414t137 420q137 163 384 163q248 0 362 -169t114 -447h-799q2 -164 91 -270t250 -106t266 155l151 -82q-61 -106 -173 -171
t-271 -65z" />
    <glyph glyph-name="eacute" unicode="&#xe9;" horiz-adv-x="1202" 
d="M535 1251l196 342h252l-291 -342h-157zM615 971q-134 0 -211 -91t-89 -223h586q-10 143 -81 229t-205 85zM625 -31q-242 0 -377 158t-135 414t137 420q137 163 384 163q248 0 362 -169t114 -447h-799q2 -164 91 -270t250 -106t266 155l151 -82q-61 -106 -173 -171
t-271 -65z" />
    <glyph glyph-name="ecircumflex" unicode="&#xea;" horiz-adv-x="1202" 
d="M317 1200v166l310 209l305 -205v-170l-309 193zM615 971q-134 0 -211 -91t-89 -223h586q-10 143 -81 229t-205 85zM625 -31q-242 0 -377 158t-135 414t137 420q137 163 384 163q248 0 362 -169t114 -447h-799q2 -164 91 -270t250 -106t266 155l151 -82
q-61 -106 -173 -171t-271 -65z" />
    <glyph glyph-name="edieresis" unicode="&#xeb;" horiz-adv-x="1202" 
d="M311 1337v209h203v-209h-203zM735 1337v209h203v-209h-203zM615 971q-134 0 -211 -91t-89 -223h586q-10 143 -81 229t-205 85zM625 -31q-242 0 -377 158t-135 414t137 420q137 163 384 163q248 0 362 -169t114 -447h-799q2 -164 91 -270t250 -106t266 155l151 -82
q-61 -106 -173 -171t-271 -65z" />
    <glyph glyph-name="igrave" unicode="&#xec;" horiz-adv-x="559" 
d="M209 1593l166 -342h-156l-262 342h252zM184 0v1096h191v-1096h-191z" />
    <glyph glyph-name="iacute" unicode="&#xed;" horiz-adv-x="559" 
d="M184 1251l197 342h252l-291 -342h-158zM184 0v1096h191v-1096h-191z" />
    <glyph glyph-name="icircumflex" unicode="&#xee;" horiz-adv-x="559" 
d="M184 0v1096h191v-1096h-191zM20 1206v160l261 209l258 -205v-164l-260 185z" />
    <glyph glyph-name="idieresis" unicode="&#xef;" horiz-adv-x="559" 
d="M184 0v1096h191v-1096h-191zM20 1337v209h203v-209h-203zM336 1337v209h203v-209h-203z" />
    <glyph glyph-name="eth" unicode="&#xf0;" horiz-adv-x="1275" 
d="M639 127q322 0 322 440q0 399 -326 400q-160 0 -241 -114q-81 -115 -81 -307t83 -306t243 -113zM638 -31q-257 0 -391 160t-134 414q0 253 138 413t370 160q137 0 243 -92l13 6q-117 190 -238 301l-277 -149l-57 108l232 125q-72 55 -158 113l106 100q94 -49 203 -129
l205 111l59 -109l-164 -88q176 -164 276 -374t99 -441q0 -289 -134 -459t-391 -170z" />
    <glyph glyph-name="ntilde" unicode="&#xf1;" horiz-adv-x="1273" 
d="M416 1264h-137q0 118 56 196t145 78q90 0 194 -58t141 -59q90 0 90 125h137q-6 -272 -221 -272q-78 0 -177 58t-136 59q-92 0 -92 -127zM184 0v1096h185v-162q129 190 348 190q184 0 282 -114t99 -297v-713h-191v655q0 301 -248 301q-131 0 -207 -82t-77 -245v-629h-191z
" />
    <glyph glyph-name="ograve" unicode="&#xf2;" horiz-adv-x="1273" 
d="M559 1593l166 -342h-156l-262 342h252zM639 125q162 0 243 114q81 113 81 307t-83 308t-245 115q-162 0 -243 -114q-81 -113 -81 -307t83 -308t245 -115zM630 -31q-249 0 -383 160t-134 416t141 418q141 161 390 161t383 -160t134 -415q0 -256 -141 -418t-390 -162z" />
    <glyph glyph-name="oacute" unicode="&#xf3;" horiz-adv-x="1273" 
d="M551 1251l197 342h251l-290 -342h-158zM639 125q162 0 243 114q81 113 81 307t-83 308t-245 115q-162 0 -243 -114q-81 -113 -81 -307t83 -308t245 -115zM630 -31q-249 0 -383 160t-134 416t141 418q141 161 390 161t383 -160t134 -415q0 -256 -141 -418t-390 -162z" />
    <glyph glyph-name="ocircumflex" unicode="&#xf4;" horiz-adv-x="1273" 
d="M332 1200v166l309 209l305 -205v-170l-309 193zM639 125q162 0 243 114q81 113 81 307t-83 308t-245 115q-162 0 -243 -114q-81 -113 -81 -307t83 -308t245 -115zM630 -31q-249 0 -383 160t-134 416t141 418q141 161 390 161t383 -160t134 -415q0 -256 -141 -418
t-390 -162z" />
    <glyph glyph-name="otilde" unicode="&#xf5;" horiz-adv-x="1273" 
d="M406 1264h-138q0 118 56 196t146 78t194 -58t141 -59q90 0 90 125h137q-6 -272 -221 -272q-78 0 -177 58t-136 59q-92 0 -92 -127zM639 125q162 0 243 114q81 113 81 307t-83 308t-245 115q-162 0 -243 -114q-81 -113 -81 -307t83 -308t245 -115zM630 -31
q-249 0 -383 160t-134 416t141 418q141 161 390 161t383 -160t134 -415q0 -256 -141 -418t-390 -162z" />
    <glyph glyph-name="odieresis" unicode="&#xf6;" horiz-adv-x="1273" 
d="M324 1337v209h202v-209h-202zM748 1337v209h202v-209h-202zM639 125q162 0 243 114q81 113 81 307t-83 308t-245 115q-162 0 -243 -114q-81 -113 -81 -307t83 -308t245 -115zM630 -31q-249 0 -383 160t-134 416t141 418q141 161 390 161t383 -160t134 -415
q0 -256 -141 -418t-390 -162z" />
    <glyph glyph-name="divide" unicode="&#xf7;" horiz-adv-x="1228" 
d="M514 207v201h201v-201h-201zM133 598v139h963v-139h-963zM514 928v200h201v-200h-201z" />
    <glyph glyph-name="oslash" unicode="&#xf8;" horiz-adv-x="1273" 
d="M629 -31q-133 0 -244 56l-102 -164l-109 63l109 174q-170 160 -170 432t141 433q141 162 391 161q137 0 246 -57l94 152l113 -58l-105 -166q168 -162 168 -432t-141 -432t-391 -162zM637 123q160 0 243 117t83 302t-70 294l-420 -670q68 -43 164 -43zM637 971
q-160 -1 -243 -117t-83 -302t70 -296l422 672q-68 43 -166 43z" />
    <glyph glyph-name="ugrave" unicode="&#xf9;" horiz-adv-x="1251" 
d="M551 1593l166 -342h-156l-262 342h252zM545 -29q-174 0 -273 118q-98 118 -98 312v695h191v-656q0 -303 237 -303q147 0 211 90q63 90 64 234v635h190v-1096h-184v158q-111 -187 -338 -187z" />
    <glyph glyph-name="uacute" unicode="&#xfa;" horiz-adv-x="1251" 
d="M543 1251l196 342h252l-291 -342h-157zM545 -29q-174 0 -273 118q-98 118 -98 312v695h191v-656q0 -303 237 -303q147 0 211 90q63 90 64 234v635h190v-1096h-184v158q-111 -187 -338 -187z" />
    <glyph glyph-name="ucircumflex" unicode="&#xfb;" horiz-adv-x="1251" 
d="M322 1200v166l309 209l305 -205v-170l-309 193zM545 -29q-174 0 -273 118q-98 118 -98 312v695h191v-656q0 -303 237 -303q147 0 211 90q63 90 64 234v635h190v-1096h-184v158q-111 -187 -338 -187z" />
    <glyph glyph-name="udieresis" unicode="&#xfc;" horiz-adv-x="1251" 
d="M315 1337v209h203v-209h-203zM739 1337v209h203v-209h-203zM545 -29q-174 0 -273 118q-98 118 -98 312v695h191v-656q0 -303 237 -303q147 0 211 90q63 90 64 234v635h190v-1096h-184v158q-111 -187 -338 -187z" />
    <glyph glyph-name="yacute" unicode="&#xfd;" horiz-adv-x="1056" 
d="M469 1251l197 342h252l-291 -342h-158zM281 -455l151 455l-391 1096h205l254 -744q28 -78 37 -141h6q8 55 41 151l243 734h189l-547 -1551h-188z" />
    <glyph glyph-name="thorn" unicode="&#xfe;" horiz-adv-x="1314" 
d="M184 -455v2048h197v-669q41 80 129 140t215 60t222 -49t149 -131q109 -166 106 -387q0 -258 -140 -423t-382 -165q-113 0 -192 48t-113 114v-586h-191zM679 131q157 0 240 117q83 116 83 308t-80 300t-239 107q-159 0 -242 -114t-83 -304t82 -302t239 -112z" />
    <glyph glyph-name="ydieresis" unicode="&#xff;" horiz-adv-x="1056" 
d="M242 1337v209h202v-209h-202zM666 1337v209h202v-209h-202zM281 -455l151 455l-391 1096h205l254 -744q28 -78 37 -141h6q8 55 41 151l243 734h189l-547 -1551h-188z" />
    <glyph glyph-name="Amacron" unicode="&#x100;" horiz-adv-x="1486" 
d="M401 1692v153h684v-153h-684zM1214 0l-155 444h-645l-158 -444h-195l560 1546h239l565 -1546h-211zM682 1204l-211 -596h530l-208 592l-52 168h-6q-22 -80 -53 -164z" />
    <glyph glyph-name="amacron" unicode="&#x101;" horiz-adv-x="1189" 
d="M264 1337v154h684v-154h-684zM464 -29q-152 0 -252 89q-101 89 -101 237q0 178 146 270t392 92l193 -6v29q0 137 -54 212t-202 75q-195 0 -252 -187l-172 52q24 116 132 204t308 88q424 0 424 -432v-405l10 -289h-182l-10 166q-60 -92 -144 -144t-236 -51zM309 316
q1 -94 59 -143q58 -48 148 -48q244 0 310 248q15 55 16 108v25q-84 4 -178 4q-199 0 -277 -50t-78 -144z" />
    <glyph glyph-name="Abreve" unicode="&#x102;" horiz-adv-x="1486" 
d="M747 1663q-124 0 -213 74t-110 211h123q39 -140 199 -140t208 140h111q-14 -131 -104 -208t-214 -77zM1214 0l-155 444h-645l-158 -444h-195l560 1546h239l565 -1546h-211zM682 1204l-211 -596h530l-208 592l-52 168h-6q-22 -80 -53 -164z" />
    <glyph glyph-name="abreve" unicode="&#x103;" horiz-adv-x="1189" 
d="M604 1227q-129 0 -218 80t-103 217h127q36 -152 202 -152t205 152h113q-14 -135 -106 -216t-220 -81zM464 -29q-152 0 -252 89q-101 89 -101 237q0 178 146 270t392 92l193 -6v29q0 137 -54 212t-202 75q-195 0 -252 -187l-172 52q24 116 132 204t308 88q424 0 424 -432
v-405l10 -289h-182l-10 166q-60 -92 -144 -144t-236 -51zM309 316q1 -94 59 -143q58 -48 148 -48q244 0 310 248q15 55 16 108v25q-84 4 -178 4q-199 0 -277 -50t-78 -144z" />
    <glyph glyph-name="Aogonek" unicode="&#x104;" horiz-adv-x="1486" 
d="M1319 -475q-238 0 -240 199q0 88 48 149t161 127h-74l-155 444h-645l-158 -444h-195l560 1546h239l565 -1546q-174 -127 -174 -231t115 -105q33 0 59 4v-137q-33 -6 -106 -6zM682 1204l-211 -596h530l-208 592l-52 168h-6q-22 -80 -53 -164z" />
    <glyph glyph-name="aogonek" unicode="&#x105;" horiz-adv-x="1189" 
d="M930 -475q-238 0 -240 199q0 88 48 149t161 127h-45l-10 166q-60 -92 -144 -143t-236 -51t-252 88q-101 89 -101 237q0 178 146 270t392 92l193 -6v29q0 137 -54 212t-202 75q-195 0 -252 -187l-172 52q24 116 132 204t308 88q424 0 424 -432v-405l10 -289
q-174 -127 -174 -231t115 -105q33 0 59 4v-137q-33 -6 -106 -6zM309 316q1 -94 59 -143q58 -48 148 -48q244 0 310 248q15 55 16 108v25q-84 4 -178 4q-199 0 -277 -50t-78 -144z" />
    <glyph glyph-name="Cacute" unicode="&#x106;" horiz-adv-x="1521" 
d="M723 1651l190 291h261l-287 -291h-164zM811 -31q-307 0 -496 207q-188 206 -188 580t191 594t497 219q233 0 379 -108t211 -267l-176 -82q-139 289 -418 289q-223 0 -349 -175t-126 -459t127 -456t348 -172q319 0 428 318l180 -56q-27 -118 -151 -257q-68 -75 -188 -125
t-269 -50z" />
    <glyph glyph-name="cacute" unicode="&#x107;" horiz-adv-x="1165" 
d="M545 1251l196 342h252l-291 -342h-157zM627 -31q-254 0 -384 154q-130 153 -130 405t138 424t396 172q313 0 424 -264l-176 -76q-64 132 -160 166q-45 16 -104 17q-152 0 -238 -118q-86 -119 -86 -305t84 -300t246 -115q199 0 295 190l155 -69q-66 -133 -174 -207
t-286 -74z" />
    <glyph glyph-name="Ccircumflex" unicode="&#x108;" horiz-adv-x="1521" 
d="M502 1628v160l309 168l305 -168v-166l-315 154zM811 -31q-307 0 -496 207q-188 206 -188 580t191 594t497 219q233 0 379 -108t211 -267l-176 -82q-139 289 -418 289q-223 0 -349 -175t-126 -459t127 -456t348 -172q319 0 428 318l180 -56q-27 -118 -151 -257
q-68 -75 -188 -125t-269 -50z" />
    <glyph glyph-name="ccircumflex" unicode="&#x109;" horiz-adv-x="1165" 
d="M324 1200v166l309 209l305 -205v-170l-309 193zM627 -31q-254 0 -384 154q-130 153 -130 405t138 424t396 172q313 0 424 -264l-176 -76q-64 132 -160 166q-45 16 -104 17q-152 0 -238 -118q-86 -119 -86 -305t84 -300t246 -115q199 0 295 190l155 -69
q-66 -133 -174 -207t-286 -74z" />
    <glyph glyph-name="Cdotaccent" unicode="&#x10a;" horiz-adv-x="1521" 
d="M711 1708v203h198v-203h-198zM811 -31q-307 0 -496 207q-188 206 -188 580t191 594t497 219q233 0 379 -108t211 -267l-176 -82q-139 289 -418 289q-223 0 -349 -175t-126 -459t127 -456t348 -172q319 0 428 318l180 -56q-27 -118 -151 -257q-68 -75 -188 -125t-269 -50z
" />
    <glyph glyph-name="cdotaccent" unicode="&#x10b;" horiz-adv-x="1165" 
d="M530 1337v209h203v-209h-203zM627 -31q-254 0 -384 154q-130 153 -130 405t138 424t396 172q313 0 424 -264l-176 -76q-64 132 -160 166q-45 16 -104 17q-152 0 -238 -118q-86 -119 -86 -305t84 -300t246 -115q199 0 295 190l155 -69q-66 -133 -174 -207t-286 -74z" />
    <glyph glyph-name="Ccaron" unicode="&#x10c;" horiz-adv-x="1521" 
d="M1126 1935v-161l-309 -168l-305 168v165l315 -153zM811 -31q-307 0 -496 207q-188 206 -188 580t191 594t497 219q233 0 379 -108t211 -267l-176 -82q-139 289 -418 289q-223 0 -349 -175t-126 -459t127 -456t348 -172q319 0 428 318l180 -56q-27 -118 -151 -257
q-68 -75 -188 -125t-269 -50z" />
    <glyph glyph-name="ccaron" unicode="&#x10d;" horiz-adv-x="1165" 
d="M938 1583v-166l-309 -209l-305 205v170l309 -192zM627 -31q-254 0 -384 154q-130 153 -130 405t138 424t396 172q313 0 424 -264l-176 -76q-64 132 -160 166q-45 16 -104 17q-152 0 -238 -118q-86 -119 -86 -305t84 -300t246 -115q199 0 295 190l155 -69
q-66 -133 -174 -207t-286 -74z" />
    <glyph glyph-name="Dcaron" unicode="&#x10e;" horiz-adv-x="1546" 
d="M1024 1935v-161l-309 -168l-305 168v165l315 -153zM393 162h248q287 0 423 140t136 462t-134 468q-134 144 -425 144h-248v-1214zM195 0v1546h446q762 0 762 -770q1 -392 -195 -586t-567 -190h-446z" />
    <glyph glyph-name="dcaron" unicode="&#x10f;" horiz-adv-x="1314" 
d="M1233 1180l51 413h225l-170 -413h-106zM608 -31q-228 1 -362 147q-133 146 -133 421q0 338 229 501q121 86 293 86q106 0 187 -51t118 -123v643h190v-1593h-184v170q-110 -201 -338 -201zM313 548q0 -192 77 -302t238 -111q160 0 244 114t84 302t-82 302t-238 114
t-240 -114q-83 -113 -83 -305z" />
    <glyph glyph-name="Dcroat" unicode="&#x110;" horiz-adv-x="1536" 
d="M393 162h248q287 0 423 140t136 462t-134 468q-134 144 -425 144h-248v-530h424v-133h-424v-551zM1403 776q0 -391 -196 -586t-566 -190h-446v713h-177v133h177v700h446q762 0 762 -770z" />
    <glyph glyph-name="dcroat" unicode="&#x111;" horiz-adv-x="1314" 
d="M607 -31q-228 1 -361 147t-133 421q0 338 229 501q121 86 293 86q106 0 187 -51t118 -123v318h-324v116h324v209h190v-209h142v-116h-142v-1268h-184v170q-111 -201 -339 -201zM313 548q0 -192 77 -302t238 -111q160 0 244 114t84 302t-82 302t-238 114t-240 -114
q-83 -113 -83 -305z" />
    <glyph glyph-name="Emacron" unicode="&#x112;" horiz-adv-x="1304" 
d="M356 1692v153h684v-153h-684zM195 0v1546h962v-172h-764v-506h684v-172h-684v-524h778v-172h-976z" />
    <glyph glyph-name="emacron" unicode="&#x113;" horiz-adv-x="1202" 
d="M276 1337v154h685v-154h-685zM615 971q-134 0 -211 -91t-89 -223h586q-10 143 -81 229t-205 85zM625 -31q-242 0 -377 158t-135 414t137 420q137 163 384 163q248 0 362 -169t114 -447h-799q2 -164 91 -270t250 -106t266 155l151 -82q-61 -106 -173 -171t-271 -65z" />
    <glyph glyph-name="Ebreve" unicode="&#x114;" horiz-adv-x="1304" 
d="M701 1663q-124 0 -213 74t-109 211h123q39 -140 199 -140t208 140h111q-14 -131 -104 -208t-215 -77zM195 0v1546h962v-172h-764v-506h684v-172h-684v-524h778v-172h-976z" />
    <glyph glyph-name="ebreve" unicode="&#x115;" horiz-adv-x="1202" 
d="M631 1227q-129 0 -218 80t-104 217h127q39 -152 204 -152t204 152h112q-14 -135 -105 -216t-220 -81zM615 971q-134 0 -211 -91t-89 -223h586q-10 143 -81 229t-205 85zM625 -31q-242 0 -377 158t-135 414t137 420q137 163 384 163q248 0 362 -169t114 -447h-799
q2 -164 91 -270t250 -106t266 155l151 -82q-61 -106 -173 -171t-271 -65z" />
    <glyph glyph-name="Edotaccent" unicode="&#x116;" horiz-adv-x="1304" 
d="M600 1708v203h199v-203h-199zM195 0v1546h962v-172h-764v-506h684v-172h-684v-524h778v-172h-976z" />
    <glyph glyph-name="edotaccent" unicode="&#x117;" horiz-adv-x="1202" 
d="M526 1337v209h203v-209h-203zM615 971q-134 0 -211 -91t-89 -223h586q-10 143 -81 229t-205 85zM625 -31q-242 0 -377 158t-135 414t137 420q137 163 384 163q248 0 362 -169t114 -447h-799q2 -164 91 -270t250 -106t266 155l151 -82q-61 -106 -173 -171t-271 -65z" />
    <glyph glyph-name="Eogonek" unicode="&#x118;" horiz-adv-x="1304" 
d="M1063 -475q-238 0 -240 199q0 88 48 149t161 127h-837v1546h962v-172h-764v-506h684v-172h-684v-524h778v-172h-2q-174 -127 -174 -231t115 -105q33 0 59 4v-137q-33 -6 -106 -6z" />
    <glyph glyph-name="eogonek" unicode="&#x119;" horiz-adv-x="1202" 
d="M615 971q-134 0 -211 -91t-89 -223h586q-10 143 -81 229t-205 85zM717 -230q1 -50 29 -78t72 -28t73 4v-137q-33 -6 -127 -6t-157 50q-62 50 -62 135t38 140t119 111v12q-45 -4 -77 -4q-240 0 -376 158t-136 414t137 420q137 163 384 163q248 0 362 -169t114 -447h-799
q2 -164 91 -270t250 -106t266 155l151 -82q-29 -51 -61 -83t-42 -43t-93 -80q-82 -69 -119 -124t-37 -105z" />
    <glyph glyph-name="Ecaron" unicode="&#x11a;" horiz-adv-x="1304" 
d="M1006 1935v-161l-310 -168l-305 168v165l316 -153zM195 0v1546h962v-172h-764v-506h684v-172h-684v-524h778v-172h-976z" />
    <glyph glyph-name="ecaron" unicode="&#x11b;" horiz-adv-x="1202" 
d="M936 1583v-166l-309 -209l-305 205v170l309 -192zM615 971q-134 0 -211 -91t-89 -223h586q-10 143 -81 229t-205 85zM625 -31q-242 0 -377 158t-135 414t137 420q137 163 384 163q248 0 362 -169t114 -447h-799q2 -164 91 -270t250 -106t266 155l151 -82
q-61 -106 -173 -171t-271 -65z" />
    <glyph glyph-name="Gcircumflex" unicode="&#x11c;" horiz-adv-x="1583" 
d="M510 1628v160l309 168l305 -168v-166l-315 154zM784 -31q-295 0 -476 206t-181 583t196 594t506 217q231 1 369 -103t201 -254l-176 -79q-72 133 -166 201t-240 67q-223 0 -354 -176q-131 -177 -131 -453t123 -456t348 -179q326 0 406 290q22 77 22 165v43h-414v164h592
v-799h-168l-8 201h-8q-146 -232 -441 -232z" />
    <glyph glyph-name="gcircumflex" unicode="&#x11d;" horiz-adv-x="1314" 
d="M326 1200v166l309 209l305 -205v-170l-309 193zM610 -475q-371 0 -469 287l181 55q66 -188 286 -189q176 0 254 79t78 243v201q-102 -209 -354 -209q-223 0 -348 156t-125 402q0 247 131 411q132 163 368 163t336 -190v162h182v-1041q0 -256 -120 -393t-400 -137z
M313 556q0 -184 80 -292t237 -108q158 0 242 110t84 294q0 183 -83 295t-237 112t-239 -114q-84 -114 -84 -297z" />
    <glyph glyph-name="Gbreve" unicode="&#x11e;" horiz-adv-x="1583" 
d="M820 1663q-124 0 -213 74t-109 211h123q39 -140 199 -140t208 140h111q-15 -131 -105 -208t-214 -77zM784 -31q-295 0 -476 206t-181 583t196 594t506 217q231 1 369 -103t201 -254l-176 -79q-72 133 -166 201t-240 67q-223 0 -354 -176q-131 -177 -131 -453t123 -456
t348 -179q326 0 406 290q22 77 22 165v43h-414v164h592v-799h-168l-8 201h-8q-146 -232 -441 -232z" />
    <glyph glyph-name="gbreve" unicode="&#x11f;" horiz-adv-x="1314" 
d="M643 1227q-129 0 -218 80t-103 217h127q39 -152 203 -152t204 152h113q-13 -135 -105 -216t-221 -81zM610 -475q-371 0 -469 287l181 55q66 -188 286 -189q176 0 254 79t78 243v201q-102 -209 -354 -209q-223 0 -348 156t-125 402q0 247 131 411q132 163 368 163
t336 -190v162h182v-1041q0 -256 -120 -393t-400 -137zM313 556q0 -184 80 -292t237 -108q158 0 242 110t84 294q0 183 -83 295t-237 112t-239 -114q-84 -114 -84 -297z" />
    <glyph glyph-name="Gdotaccent" unicode="&#x120;" horiz-adv-x="1583" 
d="M719 1708v203h199v-203h-199zM784 -31q-295 0 -476 206t-181 583t196 594t506 217q231 1 369 -103t201 -254l-176 -79q-72 133 -166 201t-240 67q-223 0 -354 -176q-131 -177 -131 -453t123 -456t348 -179q326 0 406 290q22 77 22 165v43h-414v164h592v-799h-168l-8 201
h-8q-146 -232 -441 -232z" />
    <glyph glyph-name="gdotaccent" unicode="&#x121;" horiz-adv-x="1314" 
d="M545 1337v209h203v-209h-203zM610 -475q-371 0 -469 287l181 55q66 -188 286 -189q176 0 254 79t78 243v201q-102 -209 -354 -209q-223 0 -348 156t-125 402q0 247 131 411q132 163 368 163t336 -190v162h182v-1041q0 -256 -120 -393t-400 -137zM313 556q0 -184 80 -292
t237 -108q158 0 242 110t84 294q0 183 -83 295t-237 112t-239 -114q-84 -114 -84 -297z" />
    <glyph glyph-name="Gcommaaccent" unicode="&#x122;" horiz-adv-x="1583" 
d="M702 -270v202h222v-96q0 -120 -42 -180t-173 -113l-37 72q121 45 137 115h-107zM784 -31q-295 0 -476 206t-181 583t196 594t506 217q231 1 369 -103t201 -254l-176 -79q-72 133 -166 201t-240 67q-223 0 -354 -176q-131 -177 -131 -453t123 -456t348 -179q326 0 406 290
q22 77 22 165v43h-414v164h592v-799h-168l-8 201h-8q-146 -232 -441 -232z" />
    <glyph glyph-name="gcommaaccent" unicode="&#x123;" horiz-adv-x="1314" 
d="M743 1540v-203h-202v97q1 120 39 190t149 127q37 -57 47 -72q-53 -31 -77 -59t-35 -80h79zM610 -475q-371 0 -469 287l181 55q66 -188 286 -189q176 0 254 79t78 243v201q-102 -209 -354 -209q-223 0 -348 156t-125 402q0 247 131 411q132 163 368 163t336 -190v162h182
v-1041q0 -256 -120 -393t-400 -137zM313 556q0 -184 80 -292t237 -108q158 0 242 110t84 294q0 183 -83 295t-237 112t-239 -114q-84 -114 -84 -297z" />
    <glyph glyph-name="Hcircumflex" unicode="&#x124;" horiz-adv-x="1560" 
d="M473 1628v160l309 168l305 -168v-166l-315 154zM1167 0v709h-774v-709h-198v1546h198v-669h774v669h199v-1546h-199z" />
    <glyph glyph-name="hcircumflex" unicode="&#x125;" horiz-adv-x="1271" 
d="M-18 1628v160l309 168l305 -168v-166l-315 154zM375 1593v-655q121 186 342 186q184 0 282 -114t99 -297v-713h-191v655q0 301 -248 301q-131 0 -207 -82t-77 -245v-629h-191v1593h191z" />
    <glyph glyph-name="Hbar" unicode="&#x126;" horiz-adv-x="1560" 
d="M393 709v-709h-198v1110h-185v129h185v307h198v-307h774v307h199v-307h184v-129h-184v-1110h-199v709h-774zM393 877h774v233h-774v-233z" />
    <glyph glyph-name="hbar" unicode="&#x127;" horiz-adv-x="1271" 
d="M375 629v-629h-191v1268h-139v116h139v209h191v-209h325v-116h-325v-330q121 186 342 186q184 0 282 -114t99 -297v-713h-191v655q0 301 -248 301q-131 0 -207 -82t-77 -245z" />
    <glyph glyph-name="Itilde" unicode="&#x128;" horiz-adv-x="587" 
d="M195 0v1546h198v-1546h-198zM86 1673h-129q0 131 51 203q52 72 134 72t162 -56t110 -57q70 0 69 121h127q0 -272 -190 -273q-72 1 -155 57t-107 56q-72 0 -72 -123z" />
    <glyph glyph-name="itilde" unicode="&#x129;" horiz-adv-x="559" 
d="M184 0v1096h191v-1096h-191zM90 1264h-119q0 274 183 274q47 0 129 -53t120 -53q76 0 76 114h117q0 -272 -190 -272q-64 0 -140 52t-106 52q-70 1 -70 -114z" />
    <glyph glyph-name="Imacron" unicode="&#x12a;" horiz-adv-x="587" 
d="M41 1692v153h512v-153h-512zM195 0v1546h198v-1546h-198z" />
    <glyph glyph-name="imacron" unicode="&#x12b;" horiz-adv-x="559" 
d="M25 1337v154h512v-154h-512zM184 0v1096h191v-1096h-191z" />
    <glyph glyph-name="Ibreve" unicode="&#x12c;" horiz-adv-x="587" 
d="M195 0v1546h198v-1546h-198zM296 1663q-118 0 -202 69t-88 216h111q35 -140 179 -140t187 140h101q2 -139 -84 -212t-204 -73z" />
    <glyph glyph-name="ibreve" unicode="&#x12d;" horiz-adv-x="559" 
d="M184 0v1096h191v-1096h-191zM282 1227q-108 0 -183 81t-85 216h117q31 -152 158 -152t160 152h104q-12 -135 -88 -216q-75 -81 -183 -81z" />
    <glyph glyph-name="Iogonek" unicode="&#x12e;" horiz-adv-x="587" 
d="M287 -475q-238 0 -240 199q0 88 48 149t161 127h-61v1546h198v-1546q-174 -127 -174 -231t115 -105q33 0 59 4v-137q-33 -6 -106 -6z" />
    <glyph glyph-name="iogonek" unicode="&#x12f;" horiz-adv-x="559" 
d="M184 0v1096h191v-1096q-174 -127 -174 -231t114 -105q33 0 60 4v-137q-33 -6 -127 -6t-157 50q-62 49 -62 143t48 155t161 127h-54zM172 1327v219h215v-219h-215z" />
    <glyph glyph-name="Idotaccent" unicode="&#x130;" horiz-adv-x="587" 
d="M195 1708v203h198v-203h-198zM195 0v1546h198v-1546h-198z" />
    <glyph glyph-name="dotlessi" unicode="&#x131;" horiz-adv-x="559" 
d="M184 0v1096h191v-1096h-191z" />
    <glyph glyph-name="IJ" unicode="&#x132;" horiz-adv-x="1808" 
d="M1108 -31q-231 0 -350 122t-140 337l183 27q35 -326 311 -326q315 0 315 328v1089h197v-1061q0 -199 -96 -344q-54 -80 -160 -126t-260 -46zM195 0v1546h198v-1546h-198z" />
    <glyph glyph-name="ij" unicode="&#x133;" horiz-adv-x="1118" 
d="M645 -455q-88 0 -151 19l14 145q51 -10 113 -10q123 0 122 164v1233h191v-1246q0 -147 -78 -226t-211 -79zM731 1327v219h215v-219h-215zM184 0v1096h191v-1096h-191zM172 1327v219h215v-219h-215z" />
    <glyph glyph-name="Jcircumflex" unicode="&#x134;" horiz-adv-x="1261" 
d="M680 1628v160l309 168l305 -168v-166l-315 154zM561 -31q-231 0 -350 122t-139 337l182 27q35 -326 311 -326q315 0 316 328v1089h196v-1061q0 -199 -96 -344q-53 -80 -159 -126t-261 -46z" />
    <glyph glyph-name="jcircumflex" unicode="&#x135;" horiz-adv-x="559" 
d="M86 -455q-86 0 -152 19l15 145q51 -10 112 -10q123 0 123 164v1233h191v-1246q0 -147 -78 -226t-211 -79zM20 1249v160l261 209l258 -205v-164l-263 193z" />
    <glyph glyph-name="Kcommaaccent" unicode="&#x136;" horiz-adv-x="1439" 
d="M629 -270v202h221v-96q0 -120 -42 -180t-173 -113l-37 72q121 45 137 115h-106zM393 0h-198v1546h198v-774l697 774h237l-594 -645l625 -901h-242l-518 758l-205 -221v-537z" />
    <glyph glyph-name="kcommaaccent" unicode="&#x137;" horiz-adv-x="1155" 
d="M498 -270v202h221v-96q0 -120 -42 -180t-173 -113l-37 72q121 45 137 115h-106zM375 0h-191v1593h191v-1022l446 525h226l-392 -453l463 -643h-235l-363 506l-145 -172v-334z" />
    <glyph glyph-name="Lacute" unicode="&#x139;" horiz-adv-x="1208" 
d="M215 1651l191 291h260l-287 -291h-164zM195 0v1546h198v-1372h744v-174h-942z" />
    <glyph glyph-name="lacute" unicode="&#x13a;" horiz-adv-x="559" 
d="M199 1671l190 291h260l-287 -291h-163zM184 0v1593h191v-1593h-191z" />
    <glyph glyph-name="Lcommaaccent" unicode="&#x13b;" horiz-adv-x="1208" 
d="M578 -270v202h221v-96q0 -120 -42 -180t-173 -113l-37 72q121 45 137 115h-106zM195 0v1546h198v-1372h744v-174h-942z" />
    <glyph glyph-name="lcommaaccent" unicode="&#x13c;" horiz-adv-x="559" 
d="M164 -270v202h221v-96q0 -120 -42 -180t-173 -113l-37 72q121 45 137 115h-106zM184 0v1593h191v-1593h-191z" />
    <glyph glyph-name="Lcaron" unicode="&#x13d;" horiz-adv-x="1208" 
d="M627 1133l51 413h225l-170 -413h-106zM195 0v1546h198v-1372h744v-174h-942z" />
    <glyph glyph-name="lcaron" unicode="&#x13e;" horiz-adv-x="559" 
d="M477 1180l51 413h226l-170 -413h-107zM184 0v1593h191v-1593h-191z" />
    <glyph glyph-name="Ldot" unicode="&#x13f;" horiz-adv-x="1208" 
d="M764 664v264h264v-264h-264zM195 0v1546h198v-1372h744v-174h-942z" />
    <glyph glyph-name="ldot" unicode="&#x140;" horiz-adv-x="745" 
d="M520 659v265h264v-265h-264zM184 0v1593h191v-1593h-191z" />
    <glyph glyph-name="Lslash" unicode="&#x141;" horiz-adv-x="1208" 
d="M1137 0h-942v512l-177 -102v168l177 100v868h198v-753l508 292v-165l-508 -293v-453h744v-174z" />
    <glyph glyph-name="lslash" unicode="&#x142;" horiz-adv-x="559" 
d="M375 0h-191v670l-170 -115v174l170 115v749h191v-620l180 123v-174l-180 -123v-799z" />
    <glyph glyph-name="Nacute" unicode="&#x143;" horiz-adv-x="1552" 
d="M705 1651l190 291h260l-287 -291h-163zM195 0v1546h233l674 -1155l61 -123h4v1278h189v-1546h-234l-673 1155l-62 123h-4v-1278h-188z" />
    <glyph glyph-name="nacute" unicode="&#x144;" horiz-adv-x="1271" 
d="M567 1251l197 342h252l-291 -342h-158zM184 0v1096h185v-162q129 190 348 190q184 0 282 -114t99 -297v-713h-191v655q0 301 -248 301q-131 0 -207 -82t-77 -245v-629h-191z" />
    <glyph glyph-name="Ncommaaccent" unicode="&#x145;" horiz-adv-x="1552" 
d="M676 -270v202h221v-96q0 -120 -42 -180t-173 -113l-37 72q121 45 137 115h-106zM195 0v1546h233l674 -1155l61 -123h4v1278h189v-1546h-234l-673 1155l-62 123h-4v-1278h-188z" />
    <glyph glyph-name="ncommaaccent" unicode="&#x146;" horiz-adv-x="1271" 
d="M539 -270v202h221v-96q0 -120 -42 -180t-173 -113l-37 72q121 45 137 115h-106zM184 0v1096h185v-162q129 190 348 190q184 0 282 -114t99 -297v-713h-191v655q0 301 -248 301q-131 0 -207 -82t-77 -245v-629h-191z" />
    <glyph glyph-name="Ncaron" unicode="&#x147;" horiz-adv-x="1552" 
d="M1098 1935v-161l-310 -168l-305 168v165l316 -153zM195 0v1546h233l674 -1155l61 -123h4v1278h189v-1546h-234l-673 1155l-62 123h-4v-1278h-188z" />
    <glyph glyph-name="ncaron" unicode="&#x148;" horiz-adv-x="1271" 
d="M961 1583v-166l-310 -209l-305 205v170l309 -192zM184 0v1096h185v-162q129 190 348 190q184 0 282 -114t99 -297v-713h-191v655q0 301 -248 301q-131 0 -207 -82t-77 -245v-629h-191z" />
    <glyph glyph-name="Eng" unicode="&#x14a;" horiz-adv-x="1552" 
d="M1067 -455q-86 0 -152 19l15 139q51 -10 112 -10q135 0 136 164v143h-56l-673 1155l-62 123h-4v-1278h-188v1546h233l674 -1155l61 -123h4v1278h189v-1661q0 -168 -84 -254t-205 -86z" />
    <glyph glyph-name="eng" unicode="&#x14b;" horiz-adv-x="1282" 
d="M907 655q0 301 -248 301q-131 0 -207 -82t-77 -245v-629h-191v1096h185v-162q129 190 348 190q184 0 282 -114t99 -297v-863q0 -150 -77 -228t-210 -77q-86 0 -152 19l15 145q51 -10 112 -10q121 0 121 164v792z" />
    <glyph glyph-name="Omacron" unicode="&#x14c;" horiz-adv-x="1624" 
d="M469 1692v153h684v-153h-684zM810 135q224 0 352 168t128 469t-127 466t-351 165t-351 -169t-127 -466t126 -465t350 -168zM818 1569q312 0 496 -210t183 -586q1 -376 -189 -590t-504 -214t-496 210q-181 210 -181 586t189 590q190 214 502 214z" />
    <glyph glyph-name="omacron" unicode="&#x14d;" horiz-adv-x="1273" 
d="M299 1337v154h684v-154h-684zM639 125q162 0 243 114q81 113 81 307t-83 308t-245 115q-162 0 -243 -114q-81 -113 -81 -307t83 -308t245 -115zM630 -31q-249 0 -383 160t-134 416t141 418q141 161 390 161t383 -160t134 -415q0 -256 -141 -418t-390 -162z" />
    <glyph glyph-name="Obreve" unicode="&#x14e;" horiz-adv-x="1624" 
d="M814 1663q-124 0 -213 74t-109 211h122q39 -140 199 -140t209 140h111q-15 -131 -105 -208t-214 -77zM810 135q224 0 352 168t128 469t-127 466t-351 165t-351 -169t-127 -466t126 -465t350 -168zM818 1569q312 0 496 -210t183 -586q1 -376 -189 -590t-504 -214t-496 210
q-181 210 -181 586t189 590q190 214 502 214z" />
    <glyph glyph-name="obreve" unicode="&#x14f;" horiz-adv-x="1273" 
d="M635 1227q-129 0 -218 80t-104 217h127q39 -152 204 -152t204 152h113q-13 -135 -105 -216t-221 -81zM639 125q162 0 243 114q81 113 81 307t-83 308t-245 115q-162 0 -243 -114q-81 -113 -81 -307t83 -308t245 -115zM630 -31q-249 0 -383 160t-134 416t141 418
q141 161 390 161t383 -160t134 -415q0 -256 -141 -418t-390 -162z" />
    <glyph glyph-name="Ohungarumlaut" unicode="&#x150;" horiz-adv-x="1624" 
d="M918 1651l165 291h226l-236 -291h-155zM535 1651l165 291h224l-236 -291h-153zM810 135q224 0 352 168t128 469t-127 466t-351 165t-351 -169t-127 -466t126 -465t350 -168zM818 1569q312 0 496 -210t183 -586q1 -376 -189 -590t-504 -214t-496 210q-181 210 -181 586
t189 590q190 214 502 214z" />
    <glyph glyph-name="ohungarumlaut" unicode="&#x151;" horiz-adv-x="1273" 
d="M750 1241l174 352h231l-260 -352h-145zM356 1241l174 352h232l-260 -352h-146zM639 125q162 0 243 114q81 113 81 307t-83 308t-245 115q-162 0 -243 -114q-81 -113 -81 -307t83 -308t245 -115zM630 -31q-249 0 -383 160t-134 416t141 418q141 161 390 161t383 -160
t134 -415q0 -256 -141 -418t-390 -162z" />
    <glyph glyph-name="OE" unicode="&#x152;" horiz-adv-x="2369" 
d="M1282 0v188q-172 -219 -477 -219t-492 211q-186 211 -186 586t189 589t499 214q145 0 258 -47t207 -162v186h942v-172h-743v-508h663v-168h-663v-526h757v-172h-954zM810 133q222 0 348 172t126 470t-125 464t-347 166t-349 -175t-127 -463t126 -461t348 -173z" />
    <glyph glyph-name="oe" unicode="&#x153;" horiz-adv-x="2035" 
d="M639 127q160 0 241 114q81 115 81 307t-83 306t-243 113q-160 0 -241 -114q-81 -115 -81 -307t83 -306t243 -113zM1452 971q-133 0 -210 -90t-89 -222h584q-10 143 -81 227t-204 85zM1470 -31q-293 0 -417 224h-4q-133 -223 -420 -224q-248 0 -382 160t-134 416t141 418
t391 161q289 0 414 -223h4q129 223 390 223t377 -169t116 -449h-797q2 -164 90 -269t249 -105t265 155l152 -82q-59 -104 -172 -170t-263 -66z" />
    <glyph glyph-name="Racute" unicode="&#x154;" horiz-adv-x="1404" 
d="M578 1651l190 291h260l-287 -291h-163zM393 645v-645h-198v1546h520q256 0 394 -114t138 -336q0 -158 -84 -264t-241 -152v-2l391 -678h-228l-366 645h-326zM690 1384h-297v-577h322q161 0 245 62q84 63 84 221t-89 226t-265 68z" />
    <glyph glyph-name="racute" unicode="&#x155;" horiz-adv-x="804" 
d="M377 1251l196 342h252l-290 -342h-158zM184 0v1096h185v-199h6q90 221 368 221v-196q-39 4 -111 4t-140 -47q-70 -47 -94 -129t-23 -306v-444h-191z" />
    <glyph glyph-name="Rcommaaccent" unicode="&#x156;" horiz-adv-x="1404" 
d="M598 -270v202h221v-96q0 -120 -42 -180t-173 -113l-37 72q121 45 138 115h-107zM393 645v-645h-198v1546h520q256 0 394 -114t138 -336q0 -158 -84 -264t-241 -152v-2l391 -678h-228l-366 645h-326zM690 1384h-297v-577h322q161 0 245 62q84 63 84 221t-89 226t-265 68z
" />
    <glyph glyph-name="rcommaaccent" unicode="&#x157;" horiz-adv-x="804" 
d="M170 -270v202h221v-96q0 -120 -42 -180t-173 -113l-37 72q121 45 137 115h-106zM184 0v1096h185v-199h6q90 221 368 221v-196q-39 4 -111 4t-140 -47q-70 -47 -94 -129t-23 -306v-444h-191z" />
    <glyph glyph-name="Rcaron" unicode="&#x158;" horiz-adv-x="1404" 
d="M971 1935v-161l-309 -168l-306 168v165l316 -153zM393 645v-645h-198v1546h520q256 0 394 -114t138 -336q0 -158 -84 -264t-241 -152v-2l391 -678h-228l-366 645h-326zM690 1384h-297v-577h322q161 0 245 62q84 63 84 221t-89 226t-265 68z" />
    <glyph glyph-name="rcaron" unicode="&#x159;" horiz-adv-x="804" 
d="M770 1583v-166l-309 -209l-305 205v170l309 -192zM184 0v1096h185v-199h6q90 221 368 221v-196q-39 4 -111 4t-140 -47q-70 -47 -94 -129t-23 -306v-444h-191z" />
    <glyph glyph-name="Sacute" unicode="&#x15a;" horiz-adv-x="1400" 
d="M637 1651l190 291h260l-286 -291h-164zM1278 451q0 -221 -157 -351t-409 -131q-252 0 -406 117q-155 117 -202 285l187 59q102 -291 411 -291q174 0 275 72q100 72 100 209q0 100 -68 163q-69 62 -245 101l-174 39q-184 43 -293 138t-111 277t140 306q142 125 374 125
q230 0 358 -89t193 -249l-174 -72q-55 125 -142 183t-240 58t-231 -70q-78 -72 -79 -180q0 -108 72 -162t229 -93l193 -45q399 -94 399 -399z" />
    <glyph glyph-name="sacute" unicode="&#x15b;" horiz-adv-x="1062" 
d="M442 1251l197 342h252l-291 -342h-158zM952 319q0 -158 -114 -254t-302 -96t-287 70t-155 203l162 67q86 -186 274 -186q113 0 176 45q62 46 62 114t-38 105t-142 64l-152 38q-295 76 -295 322q-1 127 105 220t284 93q301 0 408 -237l-162 -72q-80 154 -244 154
q-106 0 -155 -43t-49 -107q0 -65 43 -101t139 -61l176 -45q266 -68 266 -293z" />
    <glyph glyph-name="Scircumflex" unicode="&#x15c;" horiz-adv-x="1400" 
d="M416 1628v160l309 168l305 -168v-166l-315 154zM1278 451q0 -221 -157 -351t-409 -131q-252 0 -406 117q-155 117 -202 285l187 59q102 -291 411 -291q174 0 275 72q100 72 100 209q0 100 -68 163q-69 62 -245 101l-174 39q-184 43 -293 138t-111 277t140 306
q142 125 374 125q230 0 358 -89t193 -249l-174 -72q-55 125 -142 183t-240 58t-231 -70q-78 -72 -79 -180q0 -108 72 -162t229 -93l193 -45q399 -94 399 -399z" />
    <glyph glyph-name="scircumflex" unicode="&#x15d;" horiz-adv-x="1062" 
d="M221 1200v166l309 209l306 -205v-170l-310 193zM952 319q0 -158 -114 -254t-302 -96t-287 70t-155 203l162 67q86 -186 274 -186q113 0 176 45q62 46 62 114t-38 105t-142 64l-152 38q-295 76 -295 322q-1 127 105 220t284 93q301 0 408 -237l-162 -72q-80 154 -244 154
q-106 0 -155 -43t-49 -107q0 -65 43 -101t139 -61l176 -45q266 -68 266 -293z" />
    <glyph glyph-name="Scedilla" unicode="&#x15e;" horiz-adv-x="1400" 
d="M956 -278q0 -82 -63 -138t-179 -57q-116 0 -200 65l59 86q59 -43 144 -43q39 -1 63 19t25 55q0 35 -23 53q-24 18 -60 18t-67 -24l-92 47l74 168q-211 14 -350 129t-183 271l187 59q102 -291 411 -291q174 0 275 72q100 72 100 209q0 100 -68 163q-69 62 -245 101
l-174 39q-184 43 -293 138t-111 277t140 306q142 125 374 125q230 0 358 -89t193 -249l-174 -72q-55 125 -142 183t-240 58t-231 -70q-78 -72 -79 -180q0 -108 72 -162t229 -93l193 -45q399 -94 399 -399q0 -211 -144 -341t-397 -141l-45 -92l8 -2q40 16 98 16t108 -44
q50 -43 50 -125z" />
    <glyph glyph-name="scedilla" unicode="&#x15f;" horiz-adv-x="1062" 
d="M530 123q113 0 176 45q62 46 62 114t-38 105t-142 64l-152 38q-295 76 -295 322q-1 127 105 220t284 93q301 0 408 -237l-162 -72q-80 154 -244 154q-106 0 -155 -43t-49 -107q0 -65 43 -101t139 -61l176 -45q266 -68 266 -293q0 -157 -112 -253t-297 -97l-45 -92l8 -2
q40 16 98 16t108 -44q50 -43 50 -125t-64 -138t-179 -57q-116 0 -200 65l60 86q59 -43 143 -43q39 -1 64 19t24 55q0 70 -80 72q-39 0 -69 -25l-92 47l73 170q-139 16 -219 84t-129 185l162 67q86 -186 274 -186z" />
    <glyph glyph-name="Scaron" unicode="&#x160;" horiz-adv-x="1400" 
d="M1030 1935v-161l-309 -168l-305 168v165l315 -153zM1278 451q0 -221 -157 -351t-409 -131q-252 0 -406 117q-155 117 -202 285l187 59q102 -291 411 -291q174 0 275 72q100 72 100 209q0 100 -68 163q-69 62 -245 101l-174 39q-184 43 -293 138t-111 277t140 306
q142 125 374 125q230 0 358 -89t193 -249l-174 -72q-55 125 -142 183t-240 58t-231 -70q-78 -72 -79 -180q0 -108 72 -162t229 -93l193 -45q399 -94 399 -399z" />
    <glyph glyph-name="scaron" unicode="&#x161;" horiz-adv-x="1062" 
d="M836 1583v-166l-310 -209l-305 205v170l309 -192zM952 319q0 -158 -114 -254t-302 -96t-287 70t-155 203l162 67q86 -186 274 -186q113 0 176 45q62 46 62 114t-38 105t-142 64l-152 38q-295 76 -295 322q-1 127 105 220t284 93q301 0 408 -237l-162 -72
q-80 154 -244 154q-106 0 -155 -43t-49 -107q0 -65 43 -101t139 -61l176 -45q266 -68 266 -293z" />
    <glyph glyph-name="Tcommaaccent" unicode="&#x162;" horiz-adv-x="1284" 
d="M526 -270v202h222v-96q0 -120 -42 -180t-174 -113l-36 72q121 45 137 115h-107zM61 1374v172h1162v-172h-482v-1374h-198v1374h-482z" />
    <glyph glyph-name="tcommaaccent" unicode="&#x163;" horiz-adv-x="798" 
d="M338 -270v202h221v-96q0 -120 -42 -180t-173 -113l-37 72q121 45 137 115h-106zM61 946v150h189l12 297h172v-297h250v-150h-246v-676q0 -82 34 -110t114 -29l102 8l8 -141q-98 -20 -172 -21q-156 0 -217 67t-61 224l4 678h-189z" />
    <glyph glyph-name="Tcaron" unicode="&#x164;" horiz-adv-x="1284" 
d="M958 1935v-161l-309 -168l-305 168v165l315 -153zM61 1374v172h1162v-172h-482v-1374h-198v1374h-482z" />
    <glyph glyph-name="tcaron" unicode="&#x165;" horiz-adv-x="798" 
d="M580 1180l51 413h225l-170 -413h-106zM61 946v150h189l12 297h172v-297h250v-150h-246v-676q0 -82 34 -110t114 -29l102 8l8 -141q-98 -20 -172 -21q-156 0 -217 67t-61 224l4 678h-189z" />
    <glyph glyph-name="Tbar" unicode="&#x166;" horiz-adv-x="1284" 
d="M1081 838h-340v-838h-198v838h-338v141h338v395h-482v172h1162v-172h-482v-395h340v-141z" />
    <glyph glyph-name="tbar" unicode="&#x167;" horiz-adv-x="798" 
d="M61 604v150h189v192h-189v150h189l12 297h172v-297h250v-150h-246v-192h246v-150h-246v-334q0 -82 34 -110t114 -29l102 8l8 -141q-98 -20 -172 -21q-156 0 -217 67t-61 224l2 336h-187z" />
    <glyph glyph-name="Utilde" unicode="&#x168;" horiz-adv-x="1544" 
d="M545 1673h-137q0 117 56 196t145 79t193 -58t142 -59q90 0 90 125h137q-6 -272 -221 -273q-78 1 -177 59t-136 58q-92 0 -92 -127zM1360 528q0 -264 -146 -412t-439 -147q-294 1 -442 147t-149 412v1018h199v-997q0 -207 93 -309t299 -102t300 104t94 307v997h191v-1018z
" />
    <glyph glyph-name="utilde" unicode="&#x169;" horiz-adv-x="1251" 
d="M406 1264h-138q0 118 56 196t146 78t194 -58t141 -59q90 0 90 125h137q-6 -272 -221 -272q-78 0 -177 58t-136 59q-92 0 -92 -127zM545 -29q-174 0 -273 118q-98 118 -98 312v695h191v-656q0 -303 237 -303q147 0 211 90q63 90 64 234v635h190v-1096h-184v158
q-111 -187 -338 -187z" />
    <glyph glyph-name="Umacron" unicode="&#x16a;" horiz-adv-x="1544" 
d="M430 1692v153h684v-153h-684zM1360 528q0 -264 -146 -412t-439 -147q-294 1 -442 147t-149 412v1018h199v-997q0 -207 93 -309t299 -102t300 104t94 307v997h191v-1018z" />
    <glyph glyph-name="umacron" unicode="&#x16b;" horiz-adv-x="1251" 
d="M287 1337v154h684v-154h-684zM545 -29q-174 0 -273 118q-98 118 -98 312v695h191v-656q0 -303 237 -303q147 0 211 90q63 90 64 234v635h190v-1096h-184v158q-111 -187 -338 -187z" />
    <glyph glyph-name="Ubreve" unicode="&#x16c;" horiz-adv-x="1544" 
d="M775 1663q-124 0 -213 74t-109 211h122q39 -140 199 -140t209 140h111q-14 -131 -104 -208t-215 -77zM1360 528q0 -264 -146 -412t-439 -147q-294 1 -442 147t-149 412v1018h199v-997q0 -207 93 -309t299 -102t300 104t94 307v997h191v-1018z" />
    <glyph glyph-name="ubreve" unicode="&#x16d;" horiz-adv-x="1251" 
d="M627 1227q-129 0 -218 80t-104 217h127q39 -152 204 -152t204 152h112q-14 -135 -105 -216t-220 -81zM545 -29q-174 0 -273 118q-98 118 -98 312v695h191v-656q0 -303 237 -303q147 0 211 90q63 90 64 234v635h190v-1096h-184v158q-111 -187 -338 -187z" />
    <glyph glyph-name="Uring" unicode="&#x16e;" horiz-adv-x="1544" 
d="M623 1825q0 -63 44 -109t104 -45q60 0 103 45q44 46 44 108t-44 106t-103 44q-60 0 -104 -43t-44 -106zM522 1825q0 102 73 174t177 72t177 -72t73 -174t-73 -174t-177 -72t-177 72t-73 174zM1360 528q0 -264 -146 -412t-439 -147q-294 1 -442 147t-149 412v1018h199
v-997q0 -207 93 -309t299 -102t300 104t94 307v997h191v-1018z" />
    <glyph glyph-name="uring" unicode="&#x16f;" horiz-adv-x="1251" 
d="M479 1436q0 -62 44 -108q45 -46 105 -46t103 45t43 107t-43 107q-43 44 -103 44t-104 -43t-45 -106zM379 1436q0 102 73 174t177 72t177 -72t73 -174t-73 -174t-177 -72t-177 72t-73 174zM545 -29q-174 0 -273 118q-98 118 -98 312v695h191v-656q0 -303 237 -303
q147 0 211 90q63 90 64 234v635h190v-1096h-184v158q-111 -187 -338 -187z" />
    <glyph glyph-name="Uhungarumlaut" unicode="&#x170;" horiz-adv-x="1544" 
d="M862 1651l166 291h225l-235 -291h-156zM479 1651l166 291h223l-235 -291h-154zM1360 528q0 -264 -146 -412t-439 -147q-294 1 -442 147t-149 412v1018h199v-997q0 -207 93 -309t299 -102t300 104t94 307v997h191v-1018z" />
    <glyph glyph-name="uhungarumlaut" unicode="&#x171;" horiz-adv-x="1251" 
d="M731 1241l174 352h232l-260 -352h-146zM338 1241l174 352h231l-260 -352h-145zM545 -29q-174 0 -273 118q-98 118 -98 312v695h191v-656q0 -303 237 -303q147 0 211 90q63 90 64 234v635h190v-1096h-184v158q-111 -187 -338 -187z" />
    <glyph glyph-name="Uogonek" unicode="&#x172;" horiz-adv-x="1544" 
d="M838 -475q-240 0 -240 199q0 80 38 135t122 110q-287 5 -430 151t-144 408v1018h199v-997q0 -207 93 -309t299 -102t300 104t94 307v997h191v-1018q0 -229 -110 -371t-332 -177q-148 -113 -148 -214t115 -102q33 0 59 4v-137q-32 -6 -106 -6z" />
    <glyph glyph-name="uogonek" unicode="&#x173;" horiz-adv-x="1251" 
d="M961 -475q-240 0 -240 199q0 88 48 149t161 127h-47v158q-111 -186 -338 -187q-174 0 -273 118q-98 118 -98 312v695h191v-656q0 -303 237 -303q147 0 211 90q63 90 64 234v635h190v-1096q-174 -127 -174 -231t115 -105q33 0 59 4v-137q-33 -6 -106 -6z" />
    <glyph glyph-name="Wcircumflex" unicode="&#x174;" horiz-adv-x="2134" 
d="M774 1628v160l309 168l306 -168v-166l-316 154zM1399 0l-322 1337l-321 -1337h-277l-397 1546h207l334 -1376l333 1376h244l334 -1347l326 1347h192l-395 -1546h-258z" />
    <glyph glyph-name="wcircumflex" unicode="&#x175;" horiz-adv-x="1697" 
d="M545 1200v166l309 209l305 -205v-170l-309 193zM1085 0l-204 678l-33 139h-6q-6 -53 -35 -143l-209 -674h-211l-336 1096h201l213 -752l31 -147h6q12 68 37 147l227 752h172l227 -752l37 -162h8q12 80 35 160l213 754h191l-340 -1096h-224z" />
    <glyph glyph-name="Ycircumflex" unicode="&#x176;" horiz-adv-x="1353" 
d="M387 1628v160l309 168l305 -168v-166l-315 154zM582 0v631l-521 915h220l407 -737l408 737h196l-510 -903v-643h-200z" />
    <glyph glyph-name="ycircumflex" unicode="&#x177;" horiz-adv-x="1056" 
d="M248 1200v166l309 209l305 -205v-170l-309 193zM281 -455l151 455l-391 1096h205l254 -744q28 -78 37 -141h6q8 55 41 151l243 734h189l-547 -1551h-188z" />
    <glyph glyph-name="Ydieresis" unicode="&#x178;" horiz-adv-x="1353" 
d="M371 1692v206h202v-206h-202zM815 1692v206h203v-206h-203zM582 0v631l-521 915h220l407 -737l408 737h196l-510 -903v-643h-200z" />
    <glyph glyph-name="Zacute" unicode="&#x179;" horiz-adv-x="1351" 
d="M590 1651l190 291h260l-286 -291h-164zM113 0v147l886 1231h-843v168h1083v-147l-889 -1231h873v-168h-1110z" />
    <glyph glyph-name="zacute" unicode="&#x17a;" horiz-adv-x="1034" 
d="M477 1251l197 342h252l-291 -342h-158zM113 936v160h817v-160l-621 -776h637v-160h-850v158l625 778h-608z" />
    <glyph glyph-name="Zdotaccent" unicode="&#x17b;" horiz-adv-x="1351" 
d="M578 1708v203h198v-203h-198zM113 0v147l886 1231h-843v168h1083v-147l-889 -1231h873v-168h-1110z" />
    <glyph glyph-name="zdotaccent" unicode="&#x17c;" horiz-adv-x="1034" 
d="M463 1337v209h203v-209h-203zM113 936v160h817v-160l-621 -776h637v-160h-850v158l625 778h-608z" />
    <glyph glyph-name="Zcaron" unicode="&#x17d;" horiz-adv-x="1351" 
d="M983 1935v-161l-309 -168l-305 168v165l315 -153zM113 0v147l886 1231h-843v168h1083v-147l-889 -1231h873v-168h-1110z" />
    <glyph glyph-name="zcaron" unicode="&#x17e;" horiz-adv-x="1034" 
d="M870 1583v-166l-309 -209l-305 205v170l309 -192zM113 936v160h817v-160l-621 -776h637v-160h-850v158l625 778h-608z" />
    <glyph glyph-name="florin" unicode="&#x192;" horiz-adv-x="843" 
d="M625 1604q59 0 145 -19l-10 -162q-125 30 -182 4q-62 -26 -74 -163l-17 -168h230v-150h-244l-121 -1280h-180l121 1280h-182v150h196l19 200q14 164 89 236t210 72z" />
    <glyph glyph-name="AEacute" unicode="&#x1fc;" horiz-adv-x="1953" 
d="M1141 1651l190 291h260l-286 -291h-164zM926 0v444h-490l-188 -444h-197l678 1546h1077v-172h-682v-508h602v-168h-602v-526h697v-172h-895zM926 608v766h-99q-30 -84 -65 -166l-256 -600h420z" />
    <glyph glyph-name="aeacute" unicode="&#x1fd;" horiz-adv-x="1898" 
d="M932 1251l196 342h252l-290 -342h-158zM511 125q89 0 159 38q114 62 155 210q16 57 17 108v15h-99q-233 0 -332 -39t-99 -137t54 -146q56 -49 145 -49zM1316 971q-134 0 -210 -92t-88 -226h584q-10 143 -81 231t-205 87zM111 297q0 176 150 264q151 88 396 88h185v51
q0 123 -54 196t-202 73q-195 0 -252 -187l-172 52q24 116 132 204t308 88q260 0 367 -182q139 180 375 180t351 -173q116 -173 115 -451h-796q2 -166 89 -268t249 -101q162 0 266 156l151 -82q-59 -106 -171 -171t-264 -65q-152 -1 -262 59q-112 60 -161 175
q-141 -231 -438 -232q-158 -1 -260 89t-102 237z" />
    <glyph glyph-name="Oslashacute" unicode="&#x1fe;" horiz-adv-x="1624" 
d="M715 1651l190 291h260l-286 -291h-164zM809 -31q-233 0 -397 121l-140 -199l-104 72l149 213q-190 217 -190 591t189 587t499 215q231 0 395 -119l150 215l104 -68l-161 -231q195 -213 195 -591t-190 -592t-499 -214zM809 135q223 0 352 173q129 172 129 454t-100 442
l-676 -964q117 -105 295 -105zM334 782q0 -276 98 -442l674 963q-115 100 -295 100q-221 0 -349 -173q-128 -172 -128 -448z" />
    <glyph glyph-name="oslashacute" unicode="&#x1ff;" horiz-adv-x="1273" 
d="M551 1251l197 342h251l-290 -342h-158zM629 -31q-133 0 -244 56l-102 -164l-109 63l109 174q-170 160 -170 432t141 433q141 162 391 161q137 0 246 -57l94 152l113 -58l-105 -166q168 -162 168 -432t-141 -432t-391 -162zM637 123q160 0 243 117t83 302t-70 294
l-420 -670q68 -43 164 -43zM637 971q-160 -1 -243 -117t-83 -302t70 -296l422 672q-68 43 -166 43z" />
    <glyph glyph-name="Scommaaccent" unicode="&#x218;" horiz-adv-x="1400" 
d="M608 -270v202h221v-96q0 -120 -42 -180t-173 -113l-36 72q121 45 137 115h-107zM1278 451q0 -221 -157 -351t-409 -131q-252 0 -406 117q-155 117 -202 285l187 59q102 -291 411 -291q174 0 275 72q100 72 100 209q0 100 -68 163q-69 62 -245 101l-174 39
q-184 43 -293 138t-111 277t140 306q142 125 374 125q230 0 358 -89t193 -249l-174 -72q-55 125 -142 183t-240 58t-231 -70q-78 -72 -79 -180q0 -108 72 -162t229 -93l193 -45q399 -94 399 -399z" />
    <glyph glyph-name="scommaaccent" unicode="&#x219;" horiz-adv-x="1062" 
d="M414 -270v202h221v-96q0 -120 -42 -180t-173 -113l-37 72q121 45 137 115h-106zM952 319q0 -158 -114 -254t-302 -96t-287 70t-155 203l162 67q86 -186 274 -186q113 0 176 45q62 46 62 114t-38 105t-142 64l-152 38q-295 76 -295 322q-1 127 105 220t284 93
q301 0 408 -237l-162 -72q-80 154 -244 154q-106 0 -155 -43t-49 -107q0 -65 43 -101t139 -61l176 -45q266 -68 266 -293z" />
    <glyph glyph-name="uni021A" unicode="&#x21a;" horiz-adv-x="1284" 
d="M526 -270v202h222v-96q0 -120 -42 -180t-174 -113l-36 72q121 45 137 115h-107zM61 1374v172h1162v-172h-482v-1374h-198v1374h-482z" />
    <glyph glyph-name="uni021B" unicode="&#x21b;" horiz-adv-x="798" 
d="M338 -270v202h221v-96q0 -120 -42 -180t-173 -113l-37 72q121 45 137 115h-106zM61 946v150h189l12 297h172v-297h250v-150h-246v-676q0 -82 34 -110t114 -29l102 8l8 -141q-98 -20 -172 -21q-156 0 -217 67t-61 224l4 678h-189z" />
    <glyph glyph-name="uni0237" unicode="&#x237;" horiz-adv-x="559" 
d="M86 -455q-86 0 -152 19l15 145q51 -10 112 -10q123 0 123 164v1233h191v-1246q0 -147 -78 -226t-211 -79z" />
    <glyph glyph-name="circumflex" unicode="&#x2c6;" horiz-adv-x="1011" 
d="M199 1200v166l309 209l305 -205v-170l-309 193z" />
    <glyph glyph-name="caron" unicode="&#x2c7;" horiz-adv-x="1011" 
d="M813 1583v-166l-309 -209l-305 205v170l309 -192z" />
    <glyph glyph-name="breve" unicode="&#x2d8;" horiz-adv-x="1024" 
d="M504 1227q-129 0 -218 80t-104 217h127q39 -152 204 -152t204 152h112q-14 -135 -105 -216t-220 -81z" />
    <glyph glyph-name="dotaccent" unicode="&#x2d9;" horiz-adv-x="1026" 
d="M412 1337v209h202v-209h-202z" />
    <glyph glyph-name="ring" unicode="&#x2da;" horiz-adv-x="1024" 
d="M362 1466q0 -63 44 -108t105 -45q60 0 103 45t43 107q0 63 -43 107t-103 44q-61 0 -105 -44t-44 -106zM262 1466q0 102 73 174t177 72t177 -72t73 -174t-73 -174t-177 -72t-177 72t-73 174z" />
    <glyph glyph-name="ogonek" unicode="&#x2db;" horiz-adv-x="1024" 
d="M504 -475q-238 0 -240 199q0 88 48 149t161 127h137q-174 -127 -174 -231t115 -105q32 0 59 4v-137q-33 -6 -106 -6z" />
    <glyph glyph-name="tilde" unicode="&#x2dc;" horiz-adv-x="1024" 
d="M279 1264h-138q1 118 57 196t145 78t193 -58t142 -59q90 0 90 125h137q-6 -272 -221 -272q-78 0 -177 58t-136 59q-92 0 -92 -127z" />
    <glyph glyph-name="hungarumlaut" unicode="&#x2dd;" horiz-adv-x="1024" 
d="M492 1241l174 352h231l-260 -352h-145zM98 1241l174 352h232l-260 -352h-146z" />
    <glyph glyph-name="Wgrave" unicode="&#x1e80;" horiz-adv-x="2134" 
d="M977 1942l190 -291h-163l-287 291h260zM1399 0l-322 1337l-321 -1337h-277l-397 1546h207l334 -1376l333 1376h244l334 -1347l326 1347h192l-395 -1546h-258z" />
    <glyph glyph-name="wgrave" unicode="&#x1e81;" horiz-adv-x="1697" 
d="M774 1593l166 -342h-156l-262 342h252zM1085 0l-204 678l-33 139h-6q-6 -53 -35 -143l-209 -674h-211l-336 1096h201l213 -752l31 -147h6q12 68 37 147l227 752h172l227 -752l37 -162h8q12 80 35 160l213 754h191l-340 -1096h-224z" />
    <glyph glyph-name="Wacute" unicode="&#x1e82;" horiz-adv-x="2134" 
d="M995 1651l191 291h260l-287 -291h-164zM1399 0l-322 1337l-321 -1337h-277l-397 1546h207l334 -1376l333 1376h244l334 -1347l326 1347h192l-395 -1546h-258z" />
    <glyph glyph-name="wacute" unicode="&#x1e83;" horiz-adv-x="1697" 
d="M766 1251l197 342h251l-290 -342h-158zM1085 0l-204 678l-33 139h-6q-6 -53 -35 -143l-209 -674h-211l-336 1096h201l213 -752l31 -147h6q12 68 37 147l227 752h172l227 -752l37 -162h8q12 80 35 160l213 754h191l-340 -1096h-224z" />
    <glyph glyph-name="Wdieresis" unicode="&#x1e84;" horiz-adv-x="2134" 
d="M758 1692v206h203v-206h-203zM1202 1692v206h203v-206h-203zM1399 0l-322 1337l-321 -1337h-277l-397 1546h207l334 -1376l333 1376h244l334 -1347l326 1347h192l-395 -1546h-258z" />
    <glyph glyph-name="wdieresis" unicode="&#x1e85;" horiz-adv-x="1697" 
d="M539 1337v209h202v-209h-202zM963 1337v209h202v-209h-202zM1085 0l-204 678l-33 139h-6q-6 -53 -35 -143l-209 -674h-211l-336 1096h201l213 -752l31 -147h6q12 68 37 147l227 752h172l227 -752l37 -162h8q12 80 35 160l213 754h191l-340 -1096h-224z" />
    <glyph glyph-name="Ygrave" unicode="&#x1ef2;" horiz-adv-x="1353" 
d="M592 1942l190 -291h-164l-286 291h260zM582 0v631l-521 915h220l407 -737l408 737h196l-510 -903v-643h-200z" />
    <glyph glyph-name="ygrave" unicode="&#x1ef3;" horiz-adv-x="1056" 
d="M477 1593l166 -342h-156l-262 342h252zM281 -455l151 455l-391 1096h205l254 -744q28 -78 37 -141h6q8 55 41 151l243 734h189l-547 -1551h-188z" />
    <glyph glyph-name="uni2004" unicode="&#x2004;" horiz-adv-x="681" 
 />
    <glyph glyph-name="uni2007" unicode="&#x2007;" horiz-adv-x="819" 
 />
    <glyph glyph-name="uni2009" unicode="&#x2009;" horiz-adv-x="327" 
 />
    <glyph glyph-name="uni200A" unicode="&#x200a;" horiz-adv-x="163" 
 />
    <glyph glyph-name="uni200B" unicode="&#x200b;" horiz-adv-x="0" 
 />
    <glyph glyph-name="uni2012" unicode="&#x2012;" horiz-adv-x="1169" 
d="M-246 653v160h1661v-160h-1661z" />
    <glyph glyph-name="endash" unicode="&#x2013;" horiz-adv-x="1085" 
d="M61 532v144h963v-144h-963z" />
    <glyph glyph-name="emdash" unicode="&#x2014;" horiz-adv-x="1904" 
d="M61 532v144h1782v-144h-1782z" />
    <glyph glyph-name="quoteleft" unicode="&#x2018;" horiz-adv-x="471" 
d="M242 1278h125v-264h-265v229q0 276 287 350l29 -96q-88 -27 -132 -76t-44 -143z" />
    <glyph glyph-name="quoteright" unicode="&#x2019;" horiz-adv-x="471" 
d="M229 1282h-125v264h265v-229q0 -276 -287 -350l-29 96q88 27 132 76t44 143z" />
    <glyph glyph-name="quotesinglbase" unicode="&#x201a;" horiz-adv-x="471" 
d="M229 0h-125v264h265v-229q0 -276 -287 -350l-29 96q88 27 132 76t44 143z" />
    <glyph glyph-name="quotedblleft" unicode="&#x201c;" horiz-adv-x="880" 
d="M651 1278h125v-264h-264v229q0 276 287 350l28 -96q-88 -27 -132 -76t-44 -143zM242 1278h125v-264h-265v229q0 276 287 350l29 -96q-88 -27 -132 -76t-44 -143z" />
    <glyph glyph-name="quotedblright" unicode="&#x201d;" horiz-adv-x="880" 
d="M639 1282h-125v264h264v-229q1 -276 -286 -350l-29 96q88 27 132 76t44 143zM229 1282h-125v264h265v-229q0 -276 -287 -350l-29 96q88 27 132 76t44 143z" />
    <glyph glyph-name="quotedblbase" unicode="&#x201e;" horiz-adv-x="880" 
d="M639 0h-125v264h264v-229q1 -276 -286 -350l-29 96q88 27 132 76t44 143zM229 0h-125v264h265v-229q0 -276 -287 -350l-29 96q88 27 132 76t44 143z" />
    <glyph glyph-name="dagger" unicode="&#x2020;" horiz-adv-x="667" 
d="M70 1210v119h198v217h133v-217h197v-119h-197v-534h-133v534h-198z" />
    <glyph glyph-name="daggerdbl" unicode="&#x2021;" horiz-adv-x="667" 
d="M399 1546v-217h201v-117h-205v-202h205v-117h-201v-217h-129v217h-200v117h204v202h-204v117h200v217h129z" />
    <glyph glyph-name="bullet" unicode="&#x2022;" horiz-adv-x="798" 
d="M143 604q0 106 75 181t181 75q105 0 181 -75t76 -181t-76 -181q-74 -75 -180 -75t-182 75q-75 75 -75 181z" />
    <glyph glyph-name="ellipsis" unicode="&#x2026;" horiz-adv-x="1652" 
d="M143 0v264h265v-264h-265zM694 0v264h264v-264h-264zM1245 0v264h264v-264h-264z" />
    <glyph glyph-name="perthousand" unicode="&#x2030;" horiz-adv-x="2512" 
d="M1282 627q-170 -1 -170 -271t170 -270t170 270t-170 271zM2087 627q-170 -1 -170 -271t170 -270t170 270t-170 271zM952 353q0 183 94 285t248 103q152 0 237 -97q85 -96 85 -284t-92 -288t-245 -100t-240 98q-87 100 -87 283zM1757 353q0 183 94 285t247 103
q153 0 238 -97q85 -96 85 -284t-92 -288t-245 -100t-240 98q-87 100 -87 283zM422 1454q-170 0 -170 -270t172 -271q168 1 168 271t-170 270zM264 -29l1030 1598h152l-1028 -1598h-154zM756 1187q0 -187 -92 -287t-245 -101t-240 99t-87 283t94 285t247 102t238 -96
q85 -98 85 -285z" />
    <glyph glyph-name="uni2032" unicode="&#x2032;" horiz-adv-x="583" 
d="M123 926l141 620h248l-274 -620h-115z" />
    <glyph glyph-name="uni2033" unicode="&#x2033;" horiz-adv-x="993" 
d="M123 926l141 620h248l-274 -620h-115zM532 926l142 620h248l-275 -620h-115z" />
    <glyph glyph-name="guilsinglleft" unicode="&#x2039;" horiz-adv-x="634" 
d="M348 950h174l-239 -413l239 -420h-178l-252 418z" />
    <glyph glyph-name="guilsinglright" unicode="&#x203a;" horiz-adv-x="634" 
d="M287 117h-174l239 413l-239 420h178l252 -418z" />
    <glyph glyph-name="fraction" unicode="&#x2044;" horiz-adv-x="286" 
d="M-444 -29l1028 1598h145l-1026 -1598h-147z" />
    <glyph glyph-name="zero.sup" unicode="&#x2070;" horiz-adv-x="913" 
d="M457 1573q-90 0 -134 -76t-44 -250t44 -250q44 -75 134 -75t134 74t44 249q0 174 -44 251t-134 77zM119 1247q0 223 88 335t247 112q160 0 250 -111t90 -335t-88 -336q-89 -112 -250 -112t-249 112t-88 335z" />
    <glyph glyph-name="four.sup" unicode="&#x2074;" horiz-adv-x="831" 
d="M485 1141v424h-8q-35 -94 -129 -236l-125 -188h262zM623 819h-138v203h-411v96l370 561h179v-536h131v-121h-131v-203z" />
    <glyph glyph-name="five.sup" unicode="&#x2075;" horiz-adv-x="874" 
d="M750 1106q0 -137 -88 -220t-229 -83q-142 -1 -220 69t-94 170l141 19q31 -141 170 -141q174 0 174 180q0 78 -47 124t-136 46t-149 -76l-122 41l75 444h486v-129h-387l-37 -229h6q75 65 185 65t191 -72t81 -208z" />
    <glyph glyph-name="six.sup" unicode="&#x2076;" horiz-adv-x="882" 
d="M625 1092q0 82 -48 130t-126 48t-123 -48t-45 -131t48 -130t122 -47t123 48t49 130zM463 1579q-94 0 -141 -70t-54 -235h4q78 104 206 104t208 -72t80 -200q0 -129 -86 -217t-234 -88t-238 103q-89 104 -89 326t90 343t264 121q113 0 188 -60t93 -151l-146 -21
q-23 117 -145 117z" />
    <glyph glyph-name="seven.sup" unicode="&#x2077;" horiz-adv-x="759" 
d="M84 1550v129h592v-110l-369 -750h-157l368 731h-434z" />
    <glyph glyph-name="eight.sup" unicode="&#x2078;" horiz-adv-x="862" 
d="M604 1064q0 68 -45 108t-127 40t-127 -40t-45 -108t45 -109q45 -40 127 -40t127 40t45 109zM283 1452q0 -63 40 -97q39 -34 109 -34t110 35t40 96q0 133 -150 133q-72 0 -110 -35t-39 -98zM432 1696q135 0 216 -66t81 -166q0 -131 -129 -196v-2q158 -49 158 -209
q0 -113 -90 -185t-241 -72t-237 70q-86 68 -86 185q0 80 46 134t114 77v2q-131 61 -131 194q0 100 82 167t217 67z" />
    <glyph glyph-name="nine.sup" unicode="&#x2079;" horiz-adv-x="876" 
d="M431 1694q145 0 235 -102t90 -308q0 -483 -353 -483q-121 1 -201 59t-96 154l142 20q37 -117 155 -116q98 0 145 68q46 69 56 241h-4q-62 -105 -196 -105t-215 74t-81 200t90 212q89 86 233 86zM256 1407q0 -80 46 -127t121 -47t122 47t47 127t-45 126t-120 46t-123 -46
t-48 -126z" />
    <glyph glyph-name="plus.sup" unicode="&#x207a;" horiz-adv-x="839" 
d="M127 1163v115h231v233h123v-233h232v-115h-232v-241h-123v241h-231z" />
    <glyph glyph-name="minus.sup" unicode="&#x207b;" horiz-adv-x="839" 
d="M127 1163v115h586v-115h-586z" />
    <glyph glyph-name="zero.sub" unicode="&#x2080;" horiz-adv-x="913" 
d="M457 590q-90 0 -134 -76t-44 -250t44 -250t134 -76t134 76q44 74 44 248t-44 251t-134 77zM119 264q0 223 88 335t247 112q160 0 250 -111t90 -335t-88 -336q-89 -111 -250 -111t-249 112t-88 334z" />
    <glyph glyph-name="one.sub" unicode="&#x2081;" horiz-adv-x="628" 
d="M446 -164h-145v682l-174 -104l-64 106l277 178h106v-862z" />
    <glyph glyph-name="two.sub" unicode="&#x2082;" horiz-adv-x="831" 
d="M420 713q141 0 214 -69q73 -68 73 -178t-71 -193t-335 -306v-4h412v-127h-615v117q338 297 387 350q68 82 70 150q0 67 -36 103t-99 36q-152 0 -162 -172l-141 8q4 121 83 203t220 82z" />
    <glyph glyph-name="three.sub" unicode="&#x2083;" horiz-adv-x="858" 
d="M422 -66q80 0 125 40t45 110q0 135 -170 135h-94v121h90q152 0 151 127q0 61 -40 94t-105 33q-139 0 -166 -152l-133 17q12 113 92 183t214 71t208 -63t74 -163q0 -147 -150 -194v-4q178 -35 178 -207q0 -112 -90 -188t-230 -76t-222 70t-95 182l142 16q26 -152 176 -152
z" />
    <glyph glyph-name="four.sub" unicode="&#x2084;" horiz-adv-x="831" 
d="M485 158v424h-8q-35 -94 -129 -236l-125 -188h262zM623 -164h-138v203h-411v96l370 561h179v-536h131v-121h-131v-203z" />
    <glyph glyph-name="five.sub" unicode="&#x2085;" horiz-adv-x="874" 
d="M750 123q0 -137 -88 -220t-229 -83q-142 0 -220 70t-94 169l141 19q31 -141 170 -141q174 0 174 180q0 78 -47 124t-136 46t-149 -76l-122 41l75 444h486v-129h-387l-37 -229h6q75 66 185 66t191 -72t81 -209z" />
    <glyph glyph-name="six.sub" unicode="&#x2086;" horiz-adv-x="882" 
d="M625 109q0 82 -48 130t-126 48t-123 -48t-45 -131q0 -82 48 -130t122 -48t123 48t49 131zM463 596q-94 0 -141 -70t-54 -235h4q78 104 206 104q128 1 208 -71t80 -201t-86 -217t-234 -88t-238 103q-89 103 -89 325t90 344q90 121 264 121q113 -1 188 -61t93 -150
l-146 -21q-23 117 -145 117z" />
    <glyph glyph-name="seven.sub" unicode="&#x2087;" horiz-adv-x="759" 
d="M84 567v129h592v-110l-369 -750h-157l368 731h-434z" />
    <glyph glyph-name="eight.sub" unicode="&#x2088;" horiz-adv-x="862" 
d="M604 81q0 69 -45 109t-127 39q-82 0 -127 -40q-45 -41 -45 -109t45 -108t127 -40t127 40t45 109zM283 469q0 -63 40 -97q39 -34 109 -34t110 35t40 96q0 133 -150 133q-72 0 -110 -35t-39 -98zM432 713q135 0 216 -66t81 -166q0 -131 -129 -196v-2q158 -49 158 -209
q0 -113 -90 -185q-90 -71 -241 -71t-237 68t-86 186q0 80 46 134t114 77v2q-131 61 -131 194q0 100 82 167t217 67z" />
    <glyph glyph-name="nine.sub" unicode="&#x2089;" horiz-adv-x="876" 
d="M393 -66q108 0 155 69q46 69 56 241h-4q-62 -104 -196 -104t-215 73q-81 74 -81 200t90 212q89 86 233 86q145 1 235 -101t90 -309q0 -483 -353 -483q-121 0 -201 58t-96 155l142 20q37 -117 145 -117zM256 424q0 -80 46 -127t121 -47t122 47t47 127t-45 126t-120 46
t-123 -46t-48 -126z" />
    <glyph glyph-name="plus.sub" unicode="&#x208a;" horiz-adv-x="839" 
d="M127 180v115h231v233h123v-233h232v-115h-232v-241h-123v241h-231z" />
    <glyph glyph-name="minus.sub" unicode="&#x208b;" horiz-adv-x="839" 
d="M127 180v115h586v-115h-586z" />
    <glyph glyph-name="Euro" unicode="&#x20ac;" horiz-adv-x="1400" 
d="M817 -31q-475 0 -545 566h-176v131h164q-2 33 -2 87t4 119h-166v132h178q46 280 192 422t361 143q365 0 473 -346l-188 -60q-51 131 -119 191t-180 59q-281 0 -340 -409h477v-132h-491q-2 -36 -2 -106t2 -100h491v-131h-479q57 -412 350 -412q215 0 307 276l172 -49
q-51 -193 -182 -287t-301 -94z" />
    <glyph glyph-name="uni20B9" unicode="&#x20b9;" horiz-adv-x="1333" 
d="M195 522v158h219q324 0 362 270h-581v158h581q-20 139 -118 210t-255 71h-208v157h995v-162h-375v-2q135 -104 158 -274h217v-158h-219q-25 -164 -137 -274t-287 -141v-3l440 -532h-237l-435 522h-120z" />
    <glyph glyph-name="uni20BA" unicode="&#x20ba;" horiz-adv-x="1406" 
d="M551 0h-227v592l-181 -60v138l181 61v178l-181 -61v139l181 60v499h194v-434l479 160v-137l-479 -162v-176l479 161v-141l-479 -160v-495h53q229 0 358 101q128 101 179 341l176 -33q-58 -295 -240 -433t-493 -138z" />
    <glyph glyph-name="trademark" unicode="&#x2122;" horiz-adv-x="1349" 
d="M618 934v612h168l127 -360l21 -88h8q2 35 19 88l116 360h174v-612h-123v420h-8q-6 -39 -18 -76l-109 -344h-119l-118 350l-19 70h-6v-420h-113zM217 934v506h-176v106h479v-106h-174v-506h-129z" />
    <glyph glyph-name="onethird" unicode="&#x2153;" horiz-adv-x="1896" 
d="M1458 98q80 0 125 40t45 110q0 135 -170 135h-94v121h90q152 0 152 127q0 61 -40 94t-106 33q-139 0 -166 -152l-133 17q12 113 92 183t214 71t208 -63t74 -163q0 -147 -150 -194v-4q178 -35 179 -207q0 -113 -90 -189q-90 -75 -230 -75t-223 70q-82 70 -94 181l141 17
q26 -152 176 -152zM264 -29l1028 1598h146l-1026 -1598h-148zM446 686h-145v682l-174 -104l-64 106l277 178h106v-862z" />
    <glyph glyph-name="twothirds" unicode="&#x2154;" horiz-adv-x="2144" 
d="M1706 98q80 0 125 40t45 110q0 135 -170 135h-94v121h90q152 0 151 127q0 61 -39 94q-40 33 -106 33q-139 0 -166 -152l-133 17q12 113 92 183t214 71t208 -63t74 -163q0 -147 -150 -194v-4q178 -35 178 -207q0 -113 -90 -189q-90 -75 -230 -75t-222 70t-94 181l141 17
q26 -152 176 -152zM510 -29l1028 1598h145l-1026 -1598h-147zM420 1563q141 0 214 -69q73 -68 73 -178t-71 -193t-335 -306v-4h412v-127h-615v117q338 297 387 350q68 82 69 149q1 68 -35 104t-99 36q-152 0 -162 -172l-141 8q4 121 83 203t220 82z" />
    <glyph glyph-name="oneeighth" unicode="&#x215b;" horiz-adv-x="1910" 
d="M1651 245q0 69 -45 109t-127 39q-82 0 -127 -40q-45 -41 -45 -109t45 -108t127 -40t127 40t45 109zM1329 633q0 -63 40 -97t110 -34q69 0 109 35t40 96q0 133 -149 133q-72 0 -111 -35t-39 -98zM1479 877q135 0 216 -66t81 -166q0 -131 -129 -196v-3q158 -49 157 -208
q0 -113 -90 -185q-90 -71 -240 -71t-237 68q-86 68 -86 186q0 80 46 134t114 76v3q-131 61 -131 194q0 100 82 167t217 67zM264 -29l1028 1598h146l-1026 -1598h-148zM446 686h-145v682l-174 -104l-64 106l277 178h106v-862z" />
    <glyph glyph-name="threeeighths" unicode="&#x215c;" horiz-adv-x="2099" 
d="M1841 245q0 69 -45 109t-127 39q-82 0 -127 -40q-45 -41 -45 -109t45 -108t127 -40t127 40t45 109zM1520 633q0 -63 40 -97t110 -34t109 35q40 35 40 96q0 133 -150 133q-73 0 -111 -35t-38 -98zM1669 877q135 0 216 -66t81 -166q0 -131 -129 -196v-3q158 -49 158 -208
q0 -113 -90 -185q-90 -71 -241 -71t-237 68t-86 186q1 80 47 134t113 76v3q-131 61 -131 194q0 100 82 167t217 67zM453 -29l1028 1598h145l-1026 -1598h-147zM422 784q80 0 125 40t45 110q0 135 -170 135h-94v121h90q152 0 151 127q0 61 -40 94t-105 33q-139 0 -166 -152
l-133 17q12 113 92 183t214 71t208 -63t74 -163q0 -147 -150 -194v-4q178 -35 178 -207q0 -113 -90 -189q-90 -75 -230 -75t-222 70t-95 182l142 16q26 -152 176 -152z" />
    <glyph glyph-name="fiveeighths" unicode="&#x215d;" horiz-adv-x="2115" 
d="M1855 245q0 69 -45 109t-127 39q-82 0 -127 -40q-45 -41 -45 -109t45 -108t127 -40t127 40t45 109zM1534 633q0 -63 40 -97t110 -34t109 35q40 35 40 96q0 133 -150 133q-73 0 -111 -35t-38 -98zM1683 877q135 0 217 -66t80 -166q0 -131 -129 -196v-3q158 -49 158 -208
q0 -113 -90 -185q-90 -71 -241 -71q-150 0 -236 68t-86 186q0 80 46 134t114 76v3q-131 61 -132 194q0 100 82 167t217 67zM467 -29l1028 1598h145l-1026 -1598h-147zM750 973q0 -137 -88 -220t-229 -83q-142 0 -220 70t-94 169l141 19q31 -141 170 -142q174 0 174 181
q0 78 -47 124t-136 46t-149 -76l-122 41l75 444h486v-129h-387l-37 -229h6q75 66 185 66t191 -72t81 -209z" />
    <glyph glyph-name="seveneighths" unicode="&#x215e;" horiz-adv-x="1878" 
d="M1618 245q0 69 -45 109t-127 39q-82 0 -127 -40q-45 -41 -45 -109t45 -108t127 -40t127 40t45 109zM1296 633q0 -63 40 -97t110 -34t110 35t39 96q0 133 -149 133q-72 0 -111 -35t-39 -98zM1446 877q135 0 216 -66t81 -166q0 -131 -129 -196v-3q158 -49 158 -208
q0 -113 -90 -185q-90 -71 -242 -71q-150 0 -236 68t-86 186q0 80 46 134t114 76v3q-131 61 -131 194q0 100 82 167t217 67zM225 -29l1028 1598h146l-1026 -1598h-148zM84 1417v129h592v-110l-369 -750h-157l368 731h-434z" />
    <glyph glyph-name="uni2190" unicode="&#x2190;" horiz-adv-x="1945" 
d="M1772 813v-160h-1311l500 -495l-115 -115l-688 688v4l688 688l115 -114l-500 -496h1311z" />
    <glyph glyph-name="arrowup" unicode="&#x2191;" horiz-adv-x="1945" 
d="M1053 0h-160v1311l-496 -500l-114 115l688 688h4l688 -688l-115 -115l-495 500v-1311z" />
    <glyph glyph-name="uni2192" unicode="&#x2192;" horiz-adv-x="1945" 
d="M174 653v160h1311l-500 496l115 114l688 -688v-4l-688 -688l-115 115l500 495h-1311z" />
    <glyph glyph-name="arrowdown" unicode="&#x2193;" horiz-adv-x="1945" 
d="M893 1593h160v-1310l495 499l115 -114l-688 -688h-4l-688 688l114 114l496 -499v1310z" />
    <glyph glyph-name="uni2196" unicode="&#x2196;" horiz-adv-x="1945" 
d="M430 358v973l2 2h973v-162l-703 5l926 -928l-112 -113l-926 926l2 -703h-162z" />
    <glyph glyph-name="uni2197" unicode="&#x2197;" horiz-adv-x="1945" 
d="M541 1335h972l3 -2v-973h-162l4 703l-928 -926l-113 113l926 926l-702 -2v161z" />
    <glyph glyph-name="uni2198" unicode="&#x2198;" horiz-adv-x="1945" 
d="M1516 1108v-973l-3 -2h-972v162l702 -4l-926 928l113 112l926 -925l-2 702h162z" />
    <glyph glyph-name="uni2199" unicode="&#x2199;" horiz-adv-x="1945" 
d="M1405 133h-973l-2 2v973h162l-4 -702l928 925l112 -112l-926 -926l703 2v-162z" />
    <glyph glyph-name="minus" unicode="&#x2212;" horiz-adv-x="1228" 
d="M133 598v139h963v-139h-963z" />
    <glyph glyph-name="infinity" unicode="&#x221e;" horiz-adv-x="1822" 
d="M543 371q180 0 299 288q-76 168 -138 236t-174 68q-110 0 -166 -81t-56 -213t54 -215q56 -83 181 -83zM1278 371q127 0 182 84q56 84 56 212t-54 212t-176 84q-121 0 -191 -93t-112 -192q74 -174 140 -241q67 -66 155 -66zM1280 240q-139 0 -228 70t-151 229h-4
q-127 -299 -367 -299q-182 0 -279 120t-97 310q0 188 104 306t285 118q135 0 226 -71t153 -214h4q63 145 150 215t216 70q182 0 280 -118t97 -308q0 -190 -100 -310q-101 -118 -289 -118z" />
    <glyph glyph-name="approxequal" unicode="&#x2248;" horiz-adv-x="1228" 
d="M137 373q0 113 71 191q70 78 182 77q112 0 247 -62t190 -63q109 0 138 129h125q0 -111 -73 -189t-181 -79q-108 0 -246 63q-137 63 -193 64q-121 0 -135 -131h-125zM137 721q0 113 71 191q70 78 182 77q112 0 247 -63t190 -64q109 0 138 131h125q0 -113 -74 -191
t-184 -77q-110 0 -244 62q-135 62 -191 63q-121 0 -135 -129h-125z" />
    <glyph glyph-name="notequal" unicode="&#x2260;" horiz-adv-x="1228" 
d="M1096 424h-529l-127 -248h-155l127 248h-279v139h350l107 209h-457v139h529l124 242h156l-125 -242h279v-139h-351l-106 -209h457v-139z" />
    <glyph glyph-name="lessequal" unicode="&#x2264;" horiz-adv-x="1228" 
d="M133 0v139h963v-139h-963zM1096 283l-963 419v117l963 420v-158l-750 -317l750 -315v-166z" />
    <glyph glyph-name="greaterequal" unicode="&#x2265;" horiz-adv-x="1228" 
d="M133 0v139h963v-139h-963zM133 1241l963 -420v-116l-963 -420v157l750 318l-750 315v166z" />
    <glyph glyph-name="uni24C5" unicode="&#x24c5;" horiz-adv-x="1894" 
d="M985 1120h-149v-354h143q201 0 201 177t-195 177zM682 317v928h326q143 0 234 -79t91 -219t-91 -223t-245 -83h-161v-324h-154zM256 772q0 -293 202 -499q202 -205 488 -205t490 206q203 206 202 498q0 293 -202 500q-203 207 -490 207q-286 0 -488 -207t-202 -500z
M143 772q1 334 235 570t568 235q334 0 570 -236q236 -235 236 -569t-236 -568t-570 -234t-568 234t-235 568z" />
    <glyph glyph-name="uni2713" unicode="&#x2713;" horiz-adv-x="2048" 
d="M762 -29l-664 641l131 131l537 -524l1055 1151l127 -123l-1164 -1276h-22z" />
    <glyph glyph-name="uni2717" unicode="&#x2717;" horiz-adv-x="2048" 
d="M1569 41l-549 553l-547 -551l-121 121l549 553l-551 555l127 125l549 -553l547 551l121 -121l-549 -553l551 -555z" />
    <glyph glyph-name="apple" unicode="&#xf8ff;" horiz-adv-x="2541" 
d="M2191 772v23h23v-23h-23zM2191 692v21h23v-21h-23zM2109 772v23h23v-23h-23zM2109 692v21h23v-21h-23zM1804 754h39v18h-39v-18zM1559 713h38v59h-38v-59zM1436 754h39v18h-39v-18zM1067 713h39v59h-39v-59zM944 713h39v59h-39v-59zM410 772v23h22v-23h-22zM410 692v21
h22v-21h-22zM328 772v23h22v-23h-22zM328 692v21h22v-21h-22zM2007 772v23h21v20h22v-22h-20v-21h-23zM2028 672v20h-21v21h23v-21h20v-20h-22zM1925 772v21h-20v22h22v-20h21v-23h-23zM1905 672v20h20v21h23v-21h-21v-20h-22zM594 772v23h20v20h23v-22h-21v-21h-22z
M614 672v20h-20v21h22v-21h21v-20h-23zM512 772v21h-20v22h22v-20h21v-23h-23zM492 672v20h20v21h23v-21h-21v-20h-22zM1679 692v19h-20v84h22v-82h39v82h23v-103h-64zM1597 651v41h-41v19h-20v63h20v21h64v-144h-23zM922 651v144h63v-21h21v-63h-21v-19h-41v-41h-22z
M2294 711v20h-21v23h21v20h22v-20h21v-23h-21v-20h-22zM2150 711v20h-20v23h20v20h23v-20h20v-23h-20v-20h-23zM1966 711v20h-20v23h20v20h23v-20h20v-23h-20v-20h-23zM1290 692v144h23v-41h41v-21h20v-82h-22v80h-39v-80h-23zM1065 692v19h-21v63h21v21h43v-21h20v-63h-20
v-19h-43zM553 711v20h-21v23h21v20h22v-20h21v-23h-21v-20h-22zM369 711v20h-21v23h21v20h22v-20h21v-23h-21v-20h-22zM225 711v20h-20v23h20v20h23v-20h20v-23h-20v-20h-23zM1802 692v19h-20v63h20v21h43v-21h21v-43h-62v-18h62v-21h-64zM1434 692v19h-21v63h21v21h43v-21
h20v-43h-61v-18h61v-21h-63zM1208 692v19h-20v61h-21v23h21v20h22v-20h41v-23h-41v-59h41v-21h-43zM717 692v19h-21v61h-20v23h20v20h23v-20h41v-23h-41v-59h41v-21h-43zM799 651v23h20v37h-20v84h22v-82h39v82h23v-84h-21v-19h-20v-20h-21v-21h-22z" />
    <glyph glyph-name="fi" unicode="&#xfb01;" horiz-adv-x="1314" 
d="M940 0v1096h190v-1096h-190zM928 1327v219h215v-219h-215zM551 1604q60 0 145 -19l-10 -162q-66 16 -108 17q-86 0 -113 -44t-27 -132v-168h246v-150h-246v-946h-190v946h-187v150h187v213q0 145 83 220t220 75z" />
    <glyph glyph-name="fl" unicode="&#xfb02;" horiz-adv-x="1314" 
d="M940 0v1593h190v-1593h-190zM551 1604q60 0 145 -19l-10 -162q-66 16 -108 17q-86 0 -113 -44t-27 -132v-168h246v-150h-246v-946h-190v946h-187v150h187v213q0 145 83 220t220 75z" />
    <glyph glyph-name="zero.zero" horiz-adv-x="1400" 
d="M705 127q354 0 354 641q0 137 -15 236l-636 -670q86 -207 297 -207zM344 768q0 -133 16 -248l639 672q-86 219 -299 219q-356 0 -356 -643zM143 768q0 391 150 596t413 205t407 -202t144 -596q1 -394 -151 -598t-404 -204q-559 0 -559 799z" />
    <glyph glyph-name="idotaccent" horiz-adv-x="559" 
d="M184 0v1096h191v-1096h-191zM172 1327v219h215v-219h-215z" />
    <glyph glyph-name="germandbls.alt" horiz-adv-x="1288" 
d="M971 431q0 147 -88 231t-260 83h-54v164h19q129 0 213 72t84 200q-1 129 -63 201t-191 72t-191 -82t-61 -211v-1161h-195v1118q0 240 130 364t330 124t324 -104t124 -300q0 -125 -70 -213t-193 -133v-8q346 -78 347 -404q0 -233 -178 -368t-480 -88l23 155
q215 -35 323 53t107 235z" />
    <glyph glyph-name="a.alt" horiz-adv-x="1314" 
d="M608 -31q-228 1 -362 147q-133 146 -133 421q0 338 229 501q121 86 293 86q207 0 311 -174v146h184v-1096h-184v170q-110 -201 -338 -201zM315 548q0 -192 77 -302t238 -111q160 0 244 114t84 302t-81 302q-82 114 -239 114t-240 -114q-83 -113 -83 -305z" />
    <glyph glyph-name="t.alt" horiz-adv-x="722" 
d="M446 946v-946h-190v946h-225v150h225v297h190v-297h246v-150h-246z" />
    <glyph glyph-name="l.alt" horiz-adv-x="663" 
d="M365 1593v-1306q-1 -88 33 -118t114 -30l80 4l6 -141q-70 -16 -152 -16q-152 0 -212 66t-60 224v1317h191z" />
    <glyph glyph-name="aacute.alt" horiz-adv-x="1314" 
d="M565 1251l197 342h252l-291 -342h-158zM608 -31q-228 1 -362 147q-133 146 -133 421q0 338 229 501q121 86 293 86q207 0 311 -174v146h184v-1096h-184v170q-110 -201 -338 -201zM315 548q0 -192 77 -302t238 -111q160 0 244 114t84 302t-81 302q-82 114 -239 114
t-240 -114q-83 -113 -83 -305z" />
    <glyph glyph-name="abreve.alt" horiz-adv-x="1314" 
d="M649 1227q-129 0 -218 80t-103 217h127q37 -152 203 -152t204 152h113q-13 -135 -105 -216t-221 -81zM608 -31q-228 1 -362 147q-133 146 -133 421q0 338 229 501q121 86 293 86q207 0 311 -174v146h184v-1096h-184v170q-110 -201 -338 -201zM315 548q0 -192 77 -302
t238 -111q160 0 244 114t84 302t-81 302q-82 114 -239 114t-240 -114q-83 -113 -83 -305z" />
    <glyph glyph-name="acircumflex.alt" horiz-adv-x="1314" 
d="M344 1200v166l309 209l305 -205v-170l-309 193zM608 -31q-228 1 -362 147q-133 146 -133 421q0 338 229 501q121 86 293 86q207 0 311 -174v146h184v-1096h-184v170q-110 -201 -338 -201zM315 548q0 -192 77 -302t238 -111q160 0 244 114t84 302t-81 302
q-82 114 -239 114t-240 -114q-83 -113 -83 -305z" />
    <glyph glyph-name="adieresis.alt" horiz-adv-x="1314" 
d="M338 1337v209h203v-209h-203zM762 1337v209h203v-209h-203zM608 -31q-228 1 -362 147q-133 146 -133 421q0 338 229 501q121 86 293 86q207 0 311 -174v146h184v-1096h-184v170q-110 -201 -338 -201zM315 548q0 -192 77 -302t238 -111q160 0 244 114t84 302t-81 302
q-82 114 -239 114t-240 -114q-83 -113 -83 -305z" />
    <glyph glyph-name="agrave.alt" horiz-adv-x="1314" 
d="M573 1593l166 -342h-155l-262 342h251zM608 -31q-228 1 -362 147q-133 146 -133 421q0 338 229 501q121 86 293 86q207 0 311 -174v146h184v-1096h-184v170q-110 -201 -338 -201zM315 548q0 -192 77 -302t238 -111q160 0 244 114t84 302t-81 302q-82 114 -239 114
t-240 -114q-83 -113 -83 -305z" />
    <glyph glyph-name="amacron.alt" horiz-adv-x="1314" 
d="M309 1337v154h684v-154h-684zM608 -31q-228 1 -362 147q-133 146 -133 421q0 338 229 501q121 86 293 86q207 0 311 -174v146h184v-1096h-184v170q-110 -201 -338 -201zM315 548q0 -192 77 -302t238 -111q160 0 244 114t84 302t-81 302q-82 114 -239 114t-240 -114
q-83 -113 -83 -305z" />
    <glyph glyph-name="aogonek.alt" horiz-adv-x="1314" 
d="M1024 -475q-238 0 -240 199q0 88 48 149t161 127h-47v170q-111 -201 -339 -201q-228 1 -361 147t-133 421q0 338 229 501q121 86 293 86q207 0 311 -174v146h184v-1096q-174 -127 -174 -231t115 -105q33 0 59 4v-137q-33 -6 -106 -6zM315 548q0 -192 77 -302t238 -111
q160 0 244 114t84 302t-81 302q-82 114 -239 114t-240 -114q-83 -113 -83 -305z" />
    <glyph glyph-name="aring.alt" horiz-adv-x="1314" 
d="M502 1466q0 -63 44 -108t104 -45t104 45q43 45 43 107q0 63 -43 107q-44 44 -104 44t-104 -44t-44 -106zM401 1466q0 102 73 174t177 72t177 -72t73 -174t-73 -174t-177 -72t-177 72t-73 174zM608 -31q-228 1 -362 147q-133 146 -133 421q0 338 229 501q121 86 293 86
q207 0 311 -174v146h184v-1096h-184v170q-110 -201 -338 -201zM315 548q0 -192 77 -302t238 -111q160 0 244 114t84 302t-81 302q-82 114 -239 114t-240 -114q-83 -113 -83 -305z" />
    <glyph glyph-name="atilde.alt" horiz-adv-x="1314" 
d="M428 1264h-137q0 118 56 196q55 78 145 78t194 -58t141 -59q90 0 91 125h137q-6 -272 -221 -272q-78 0 -178 58t-136 59q-92 0 -92 -127zM608 -31q-228 1 -362 147q-133 146 -133 421q0 338 229 501q121 86 293 86q207 0 311 -174v146h184v-1096h-184v170
q-110 -201 -338 -201zM315 548q0 -192 77 -302t238 -111q160 0 244 114t84 302t-81 302q-82 114 -239 114t-240 -114q-83 -113 -83 -305z" />
    <glyph glyph-name="lacute.alt" horiz-adv-x="663" 
d="M190 1671l191 291h260l-287 -291h-164zM365 1593v-1306q-1 -88 33 -118t114 -30l80 4l6 -141q-70 -16 -152 -16q-152 0 -212 66t-60 224v1317h191z" />
    <glyph glyph-name="lcaron.alt" horiz-adv-x="663" 
d="M467 1180l51 413h225l-170 -413h-106zM365 1593v-1306q-1 -88 33 -118t114 -30l80 4l6 -141q-70 -16 -152 -16q-152 0 -212 66t-60 224v1317h191z" />
    <glyph glyph-name="lcommaaccent.alt" horiz-adv-x="663" 
d="M301 -270v202h221v-96q0 -120 -42 -180t-173 -113l-37 72q121 45 138 115h-107zM365 1593v-1306q-1 -88 33 -118t114 -30l80 4l6 -141q-70 -16 -152 -16q-152 0 -212 66t-60 224v1317h191z" />
    <glyph glyph-name="tcaron.alt" horiz-adv-x="722" 
d="M588 1180l51 413h225l-170 -413h-106zM446 946v-946h-190v946h-225v150h225v297h190v-297h246v-150h-246z" />
    <glyph glyph-name="tcommaaccent.alt" horiz-adv-x="722" 
d="M240 -270v202h221v-96q0 -120 -42 -180t-173 -113l-37 72q121 45 137 115h-106zM446 946v-946h-190v946h-225v150h225v297h190v-297h246v-150h-246z" />
    <glyph glyph-name="tbar.alt" horiz-adv-x="722" 
d="M692 604h-246v-604h-190v604h-225v150h225v192h-225v150h225v297h190v-297h246v-150h-246v-192h246v-150z" />
    <glyph glyph-name="ldot.alt" horiz-adv-x="745" 
d="M508 664v264h264v-264h-264zM365 1593v-1306q-1 -88 33 -118t114 -30l80 4l6 -141q-70 -16 -152 -16q-152 0 -212 66t-60 224v1317h191z" />
    <glyph glyph-name="ae.alt" horiz-adv-x="2025" 
d="M315 548q0 -192 77 -302t238 -111q160 0 244 114t84 302t-81 302q-82 114 -239 114t-240 -114q-83 -113 -83 -305zM1447 979q-134 0 -214 -94t-92 -226h581q-4 137 -72 229q-69 91 -203 91zM1440 -31q-127 -1 -206 53t-108 132v-154h-180v170q-111 -201 -339 -201
q-228 1 -361 147t-133 421q0 338 229 501q121 86 293 86q207 0 311 -174v146h180v-146q112 174 344 174t348 -166t97 -450h-776q2 -168 92 -274t235 -105q178 0 279 150l156 -74q-133 -236 -461 -236z" />
    <glyph glyph-name="aeacute.alt" horiz-adv-x="2025" 
d="M967 1251l196 342h252l-291 -342h-157zM315 548q0 -192 77 -302t238 -111q160 0 244 114t84 302t-81 302q-82 114 -239 114t-240 -114q-83 -113 -83 -305zM1447 979q-134 0 -214 -94t-92 -226h581q-4 137 -72 229q-69 91 -203 91zM1440 -31q-127 -1 -206 53t-108 132
v-154h-180v170q-111 -201 -339 -201q-228 1 -361 147t-133 421q0 338 229 501q121 86 293 86q207 0 311 -174v146h180v-146q112 174 344 174t348 -166t97 -450h-776q2 -168 92 -274t235 -105q178 0 279 150l156 -74q-133 -236 -461 -236z" />
    <glyph glyph-name="f_l.alt" horiz-adv-x="1419" 
d="M1120 1593v-1306q0 -88 34 -118t114 -30l80 4l6 -141q-70 -16 -152 -16q-152 0 -212 66t-60 224v1317h190zM551 1604q60 0 145 -19l-10 -162q-66 16 -108 17q-86 0 -113 -44t-27 -132v-168h246v-150h-246v-946h-190v946h-187v150h187v213q0 145 83 220t220 75z" />
    <glyph glyph-name="lslash.alt" horiz-adv-x="663" 
d="M446 -14q-152 0 -212 66t-60 224v404l-149 -100v188l149 100v725h191v-598l170 115v-188l-170 -115v-520q-1 -88 33 -118t114 -30l80 4l6 -141q-70 -16 -152 -16z" />
    <glyph glyph-name="comma.tab" horiz-adv-x="634" 
d="M311 0h-125v264h265v-229q0 -276 -287 -350l-29 96q88 27 132 76t44 143z" />
    <glyph glyph-name="period.tab" horiz-adv-x="634" 
d="M184 0v264h265v-264h-265z" />
    <glyph glyph-name="colon.tab" horiz-adv-x="634" 
d="M184 0v264h265v-264h-265zM184 729v264h265v-264h-265z" />
    <glyph glyph-name="semicolon.tab" horiz-adv-x="634" 
d="M299 0h-115v264h265v-229q1 -137 -57 -233t-193 -160l-56 86q80 45 118 105t38 167zM184 729v264h265v-264h-265z" />
    <glyph glyph-name="questiondown.uc" horiz-adv-x="1075" 
d="M657 1128v-129q-1 -121 -31 -178t-150 -156t-167 -168t-47 -171t75 -165q75 -62 204 -63q276 0 327 299l179 -28q-21 -197 -161 -314t-360 -117t-340 108q-121 108 -120 284q0 125 64 224q66 98 176 188t139 142q30 52 30 130v114h182zM698 1546v-264h-264v264h264z" />
    <glyph glyph-name="exclamdown.uc" horiz-adv-x="587" 
d="M393 -47h-196v600l30 573h135l31 -573v-600zM426 1546v-264h-264v264h264z" />
    <glyph glyph-name="hyphen.uc" horiz-adv-x="921" 
d="M133 608v178h655v-178h-655z" />
    <glyph glyph-name="endash.uc" horiz-adv-x="1085" 
d="M61 625v143h963v-143h-963z" />
    <glyph glyph-name="emdash.uc" horiz-adv-x="1904" 
d="M61 625v143h1782v-143h-1782z" />
    <glyph glyph-name="at.uc" horiz-adv-x="2193" 
d="M1018 342q96 0 168 76q131 138 131 392q0 253 -205 253q-147 0 -223 -133t-76 -309q0 -279 205 -279zM1055 -279q-410 0 -668 255q-258 254 -258 688t291 718t723 285q432 0 677 -242t244 -596q0 -289 -143 -461t-336 -173q-236 0 -285 184h-8q-100 -172 -311 -172
q-158 -1 -251 107t-93 326t122 388q122 172 337 172q100 0 170 -42t100 -109h6l27 135h151l-90 -625q-31 -233 148 -233q123 0 216 138t93 361q0 313 -215 514q-216 201 -578 201t-600 -250t-238 -626t234 -594q232 -220 578 -220t590 181l67 -99q-129 -104 -291 -158
t-409 -53z" />
    <glyph glyph-name="slash.tab" horiz-adv-x="952" 
d="M0 -334l723 1968h147l-720 -1968h-150z" />
    <glyph glyph-name="slash.tabuc" horiz-adv-x="952" 
d="M31 -242l723 1968h147l-721 -1968h-149z" />
    <glyph glyph-name="slash.uc" horiz-adv-x="854" 
d="M10 -170l723 1968h148l-721 -1968h-150z" />
    <glyph glyph-name="backslash.uc" horiz-adv-x="854" 
d="M143 1798l723 -1968h-149l-721 1968h147z" />
    <glyph glyph-name="bar.uc" horiz-adv-x="649" 
d="M256 -170v1968h137v-1968h-137z" />
    <glyph glyph-name="parenleft.tab" horiz-adv-x="952" 
d="M791 -334h-152q-47 68 -69 103t-74 140q-165 326 -162 740q0 468 201 817q33 60 63 106t32 48q1 2 4 6t5 8h152q-189 -313 -244 -632q-29 -167 -29 -353q1 -534 273 -983z" />
    <glyph glyph-name="parenleft.tabuc" horiz-adv-x="952" 
d="M791 -242h-152q-47 68 -69 103t-74 140q-165 326 -163 718q1 392 113 652q77 179 130 259t54 82t4 6t5 8h152q-189 -313 -244 -631q-29 -167 -29 -354q1 -534 273 -983z" />
    <glyph glyph-name="parenleft.uc" horiz-adv-x="655" 
d="M379 741q0 -534 272 -983h-151q-47 68 -69 103t-75 140t-82 199t-54 239q-55 311 3 644q55 311 235 581q30 46 32 48q0 2 4 6t6 8h151q-190 -315 -243 -631q-29 -167 -29 -354z" />
    <glyph glyph-name="parenright.tab" horiz-adv-x="952" 
d="M475 651q0 534 -272 983h151q47 -68 69 -102t75 -140q164 -324 161 -741q0 -370 -112 -629q-79 -183 -130 -261q-52 -78 -53 -80q0 -3 -4 -7t-6 -8h-151q190 315 243 632q29 167 29 353z" />
    <glyph glyph-name="parenright.tabuc" horiz-adv-x="952" 
d="M475 743q0 534 -272 983h151q47 -68 69 -102t75 -140q164 -324 161 -741q0 -370 -112 -629q-79 -183 -130 -261q-52 -78 -53 -80q0 -2 -4 -6t-6 -9h-151q190 315 243 632q29 167 29 353z" />
    <glyph glyph-name="parenright.uc" horiz-adv-x="655" 
d="M502 730q0 -356 -113 -616q-78 -182 -133 -265q-55 -84 -59 -91h-152q189 313 244 632q29 167 28 353q0 534 -272 983h152q47 -68 69 -102t74 -140q162 -321 162 -754z" />
    <glyph glyph-name="bracketleft.tab" horiz-adv-x="952" 
d="M391 -334v1968h400v-116h-222v-1735h222v-117h-400z" />
    <glyph glyph-name="bracketleft.tabuc" horiz-adv-x="952" 
d="M391 -242v1968h400v-116h-222v-1735h222v-117h-400z" />
    <glyph glyph-name="bracketleft.uc" horiz-adv-x="655" 
d="M225 -242v1968h400v-116h-222v-1735h222v-117h-400z" />
    <glyph glyph-name="bracketright.tab" horiz-adv-x="952" 
d="M602 1634v-1968h-399v117h221v1735h-221v116h399z" />
    <glyph glyph-name="bracketright.tabuc" horiz-adv-x="952" 
d="M602 1726v-1968h-399v117h221v1735h-221v116h399z" />
    <glyph glyph-name="bracketright.uc" horiz-adv-x="655" 
d="M471 1726v-1968h-399v117h221v1735h-221v116h399z" />
    <glyph glyph-name="braceleft.uc" horiz-adv-x="686" 
d="M102 666v155h64q86 0 113 43t20 137l-29 416q-12 160 64 235t209 74h102v-127h-59q-84 1 -117 -39t-27 -143l25 -454q10 -178 -143 -218v-4q154 -39 143 -217l-25 -456q-6 -102 27 -142t117 -41h59v-127h-102q-133 0 -209 75t-64 235l29 417q6 94 -20 138q-27 43 -113 43
h-64z" />
    <glyph glyph-name="braceleft.tab" horiz-adv-x="952" 
d="M276 573v156h64q86 0 113 43t20 137l-29 416q-12 160 64 235t209 74h102v-127h-59q-84 0 -117 -40t-27 -142l25 -455q10 -178 -143 -217v-4q154 -39 143 -217l-25 -457q-6 -102 27 -142t117 -40h59v-127h-102q-133 0 -209 75t-64 234l29 418q6 94 -20 137q-27 43 -113 43
h-64z" />
    <glyph glyph-name="braceleft.tabuc" horiz-adv-x="952" 
d="M276 666v155h64q86 0 113 43t20 137l-29 416q-12 160 64 235t209 74h102v-127h-59q-84 1 -117 -39t-27 -143l25 -454q10 -178 -143 -218v-4q154 -39 143 -217l-25 -456q-6 -102 27 -142t117 -41h59v-127h-102q-133 0 -209 75t-64 235l29 417q6 94 -20 138q-27 43 -113 43
h-64z" />
    <glyph glyph-name="braceright.uc" horiz-adv-x="686" 
d="M604 817v-155h-63q-86 0 -113 -44t-20 -137l28 -415q12 -160 -64 -235t-208 -75h-103v127h60q84 0 117 40t26 143l-24 454q-10 178 143 217v4q-154 39 -143 217l24 457q6 102 -26 143q-33 40 -117 39h-60v127h103q133 0 209 -74t63 -235l-28 -418q-6 -94 20 -137t113 -43
h63z" />
    <glyph glyph-name="braceright.tab" horiz-adv-x="952" 
d="M727 725v-156h-63q-86 0 -113 -43t-21 -137l29 -416q13 -161 -63 -235t-209 -74h-103v127h60q84 0 116 40t27 142l-25 455q-10 178 144 217v4q-154 39 -144 217l25 457q6 102 -27 142t-116 40h-60v127h103q133 0 209 -74t63 -235l-29 -418q-6 -94 21 -137t113 -43h63z
" />
    <glyph glyph-name="braceright.tabuc" horiz-adv-x="952" 
d="M727 817v-155h-63q-86 0 -113 -44t-21 -137l29 -415q13 -160 -63 -235t-209 -75h-103v127h60q84 0 116 40t27 143l-25 454q-10 178 144 217v4q-154 39 -144 217l25 457q6 103 -27 143t-116 39h-60v127h103q133 0 209 -74t63 -235l-29 -418q-6 -94 21 -137t113 -43h63z
" />
    <glyph glyph-name="degree.old" horiz-adv-x="819" 
d="M223 1157q0 -88 51 -143q50 -56 134 -56t136 56t52 143q0 89 -52 145t-135 56t-135 -56q-51 -57 -51 -145zM102 1157q0 131 88 219t220 88t220 -88q87 -88 87 -219t-89 -218t-221 -87t-219 87q-86 87 -86 218z" />
    <glyph glyph-name="numbersign.tab" 
d="M55 395v137h267l59 361h-244v137h266l58 352h133l-57 -352h297l57 352h133l-57 -352h235v-137h-258l-59 -361h235v-137h-258l-63 -395h-133l63 395h-297l-63 -395h-133l63 395h-244zM752 532l59 361h-297l-59 -361h297z" />
    <glyph glyph-name="percent.old" horiz-adv-x="1751" 
d="M1325 578q-166 0 -166 -248t166 -248t166 248t-166 248zM1001 328q-1 170 93 265t242 95t233 -91q84 -91 84 -264t-91 -267t-240 -94t-235 92q-86 94 -86 264zM422 1354q-166 0 -166 -248t166 -248t166 248t-166 248zM338 0l922 1434h151l-919 -1434h-154zM98 1104
q0 170 93 265t242 95t233 -91t84 -264t-92 -267t-240 -94t-234 93t-86 263z" />
    <glyph glyph-name="percent.tab" horiz-adv-x="1587" 
d="M1028 356q0 -270 166 -270t166 270t-166 271q-166 -1 -166 -271zM1522 360q0 -188 -90 -288t-242 -101q-150 -1 -235 99t-85 283t94 285t242 103q148 0 232 -97q84 -96 84 -284zM223 1184q0 -264 166 -264t166 264t-166 264t-166 -264zM362 0h-155l1026 1546h153z
M386 807q-150 0 -236 97q-84 98 -84 278t93 279t241 99t233 -94q84 -96 84 -279t-90 -282q-91 -98 -241 -98z" />
    <glyph glyph-name="percent.tabold" horiz-adv-x="1587" 
d="M1200 578q-162 0 -162 -248t162 -248t162 248t-162 248zM883 328q0 170 92 265t236 95q143 0 227 -91t84 -264t-89 -267t-236 -94t-231 92q-84 94 -83 264zM383 1354q-162 0 -162 -248t162 -248t162 248t-162 248zM252 0l934 1434h149l-932 -1434h-151zM394 1464
q144 0 228 -91t83 -264q1 -173 -89 -267t-236 -94t-230 93t-84 263t92 265t236 95z" />
    <glyph glyph-name="perthousand.old" horiz-adv-x="2519" 
d="M1325 578q-166 0 -166 -248t166 -248t166 248t-166 248zM2093 578q-166 0 -166 -248t166 -248t166 248t-166 248zM1001 328q-1 170 93 265t242 95t233 -91q84 -91 84 -264t-91 -267t-240 -94t-235 92q-86 94 -86 264zM1769 328q-1 170 93 265t242 95t233 -91
q84 -91 84 -264t-91 -267t-240 -94t-235 92q-86 94 -86 264zM422 1354q-166 0 -166 -248t166 -248t166 248t-166 248zM338 0l922 1434h151l-919 -1434h-154zM98 1104q0 170 93 265t242 95t233 -91t84 -264t-92 -267t-240 -94t-234 93t-86 263z" />
    <glyph glyph-name="perthousand.tab" horiz-adv-x="2539" 
d="M1933 356q0 -270 166 -270t166 270t-166 271q-166 -1 -166 -271zM1128 356q0 -270 166 -270t166 270t-166 271q-166 -1 -166 -271zM2427 360q-1 -188 -91 -288t-240 -101t-236 99q-84 100 -84 283t93 285t241 103q148 0 233 -97q84 -96 84 -284zM1290 -29
q-150 -1 -234 99t-85 283q0 183 93 285t242 103q148 0 232 -97q84 -96 84 -284t-90 -288q-92 -100 -242 -101zM434 1454q-166 0 -166 -270t166 -271q166 1 166 271t-166 270zM451 0h-154l995 1546h152zM430 799q-150 0 -234 99q-84 98 -85 282q0 184 93 286q94 102 242 102
t232 -96q84 -98 84 -285t-90 -288q-92 -100 -242 -100z" />
    <glyph glyph-name="perthousand.tabold" horiz-adv-x="2539" 
d="M1276 578q-162 0 -162 -248t162 -248t162 248t-162 248zM2085 578q-162 0 -162 -248t162 -248t162 248t-162 248zM958 328q0 170 92 265t237 95q144 0 227 -91t83 -264t-89 -267q-90 -94 -236 -94t-230 92q-84 94 -84 264zM1767 328q1 170 93 265t236 95t227 -91t83 -264
t-89 -267t-235 -94t-231 92q-84 94 -84 264zM276 1106q0 -248 162 -248t162 248t-162 248t-162 -248zM317 0l934 1434h150l-932 -1434h-152zM435 748q-147 0 -231 93t-83 263q0 170 92 265t236 95q143 0 227 -91t84 -264t-89 -267t-236 -94z" />
    <glyph glyph-name="ordfeminine.old" horiz-adv-x="927" 
d="M387 596q-131 0 -208 68t-77 190t110 190t290 68l131 -6v18q0 211 -182 211q-125 0 -179 -137l-139 45q68 219 334 219q155 0 237 -76t82 -264v-286l9 -218h-154l-8 125q-90 -147 -246 -147zM399 723q119 0 176 82t58 168v18q-59 6 -125 6q-238 0 -238 -149q0 -57 35 -91
t94 -34z" />
    <glyph glyph-name="ordmasculine.old" horiz-adv-x="995" 
d="M498 725q109 0 165 83t56 221q-1 138 -59 221t-166 83t-163 -82t-55 -221t56 -222t166 -83zM490 596q-185 0 -281 114t-96 318t101 320q100 114 286 114t284 -114t98 -316q0 -204 -103 -320q-104 -116 -289 -116z" />
    <glyph glyph-name="guilsinglright.uc" horiz-adv-x="634" 
d="M287 209h-174l239 414l-239 419h178l252 -417z" />
    <glyph glyph-name="guilsinglleft.uc" horiz-adv-x="634" 
d="M348 1042h174l-239 -413l239 -420h-178l-252 418z" />
    <glyph glyph-name="guillemotleft.uc" horiz-adv-x="1003" 
d="M348 1042h174l-239 -413l239 -420h-178l-252 418zM717 1042h174l-240 -413l240 -420h-178l-252 418z" />
    <glyph glyph-name="guillemotright.uc" horiz-adv-x="1003" 
d="M287 209h-174l239 414l-239 419h178l252 -417zM655 209h-174l240 414l-240 419h178l252 -417z" />
    <glyph glyph-name="minus.tab" 
d="M154 598v139h962v-139h-962z" />
    <glyph glyph-name="plus.tab" 
d="M154 598v139h407v418h148v-418h407v-139h-407v-426h-148v426h-407z" />
    <glyph glyph-name="multiply.tab" 
d="M254 176l-104 107l378 379l-378 380l104 107l379 -383l379 383l106 -107l-381 -380l381 -379l-106 -107l-379 381z" />
    <glyph glyph-name="less.tab" 
d="M1116 98l-962 461v117l962 461v-158l-760 -358l760 -357v-166z" />
    <glyph glyph-name="equal.tab" 
d="M154 424v139h962v-139h-962zM154 772v139h962v-139h-962z" />
    <glyph glyph-name="greater.tab" 
d="M154 1139l962 -461v-117l-962 -461v158l759 358l-759 357v166z" />
    <glyph glyph-name="plusminus.tab" 
d="M154 0v139h962v-139h-962zM154 690v139h407v367h148v-367h407v-139h-407v-375h-148v375h-407z" />
    <glyph glyph-name="lessequal.tab" 
d="M154 0v139h962v-139h-962zM1116 283l-962 419v117l962 420v-158l-749 -317l749 -315v-166z" />
    <glyph glyph-name="notequal.tab" 
d="M1116 424h-528l-127 -248h-156l127 248h-278v139h350l106 209h-456v139h528l125 242h156l-125 -242h278v-139h-350l-107 -209h457v-139z" />
    <glyph glyph-name="greaterequal.tab" 
d="M154 0v139h962v-139h-962zM154 1241l962 -420v-116l-962 -420v157l749 318l-749 315v166z" />
    <glyph glyph-name="divide.tab" 
d="M535 207v201h200v-201h-200zM154 598v139h962v-139h-962zM535 928v200h200v-200h-200z" />
    <glyph glyph-name="approxequal.tab" 
d="M158 373q0 113 70 191t182 77q112 0 247 -62t191 -63q109 0 137 129h125q0 -111 -73 -189t-181 -79q-108 0 -246 63t-192 64q-121 0 -135 -131h-125zM158 721q0 113 70 191t182 77q112 0 247 -63t191 -64q109 0 137 131h125q0 -113 -74 -191t-183 -77q-109 0 -245 62
t-190 63q-121 0 -135 -129h-125z" />
    <glyph glyph-name="acute.uc" horiz-adv-x="1024" 
d="M287 1651l190 291h260l-286 -291h-164z" />
    <glyph glyph-name="breve.uc" horiz-adv-x="1024" 
d="M509 1663q-124 0 -213 74t-110 211h123q39 -140 199 -140t209 140h110q-14 -131 -104 -208t-214 -77z" />
    <glyph glyph-name="caron.uc" horiz-adv-x="1011" 
d="M813 1935v-161l-309 -168l-305 168v165l315 -153z" />
    <glyph glyph-name="circumflex.uc" horiz-adv-x="1011" 
d="M199 1628v160l309 168l305 -168v-166l-315 154z" />
    <glyph glyph-name="dieresis.uc" horiz-adv-x="1024" 
d="M188 1692v206h203v-206h-203zM633 1692v206h203v-206h-203z" />
    <glyph glyph-name="dotaccent.uc" horiz-adv-x="1026" 
d="M414 1708v203h198v-203h-198z" />
    <glyph glyph-name="hungarumlaut.uc" horiz-adv-x="1024" 
d="M494 1651l165 291h226l-236 -291h-155zM111 1651l165 291h224l-236 -291h-153z" />
    <glyph glyph-name="grave.uc" horiz-adv-x="1024" 
d="M547 1942l190 -291h-164l-286 291h260z" />
    <glyph glyph-name="macron.uc" horiz-adv-x="1024" 
d="M164 1692v153h684v-153h-684z" />
    <glyph glyph-name="tilde.uc" horiz-adv-x="1024" 
d="M279 1673h-138q1 117 57 196t145 79t193 -58t142 -59q90 0 90 125h137q-6 -272 -221 -273q-78 1 -177 59t-136 58q-92 0 -92 -127z" />
    <glyph glyph-name="commaaccent" horiz-adv-x="1024" 
d="M444 -270v202h222v-96q0 -120 -42 -180t-173 -113l-37 72q121 45 137 115h-107z" />
    <glyph glyph-name="ring.uc" horiz-adv-x="1024" 
d="M362 1855q0 -63 44 -108t105 -45q60 0 103 45t43 107t-43 106t-103 45q-61 1 -105 -43t-44 -107zM262 1855q0 103 73 175t177 72t177 -72t73 -174t-73 -175q-73 -71 -177 -71t-177 72t-73 173z" />
    <glyph glyph-name="caron.alt" horiz-adv-x="1024" 
d="M274 1180l52 413h225l-170 -413h-107z" />
    <glyph glyph-name="zero.tabzero" 
d="M639 131q172 0 249 145t77 492q0 127 -9 209l-602 -629q70 -217 285 -217zM305 768q0 -115 10 -223l603 637q-72 225 -283 225q-176 -1 -253 -147t-77 -492zM637 -31q-272 1 -400 185t-128 607t134 615t398 193q264 -1 392 -189t128 -612q0 -799 -524 -799z" />
    <glyph glyph-name="zero.tab" 
d="M952 764q0 344 -74 494t-243 149q-170 0 -244 -146q-74 -147 -74 -491t75 -491t244 -147t243 143q73 145 73 489zM637 -31q-272 1 -400 185t-128 607t134 615t398 193q264 -1 392 -189t128 -612q0 -799 -524 -799z" />
    <glyph glyph-name="one.tab" 
d="M1151 0h-926v164h389v1139l-342 -240l-90 137l477 346h148v-1382h344v-164z" />
    <glyph glyph-name="two.tab" 
d="M668 1569q230 0 343 -119q114 -119 113 -285q0 -72 -9 -127q-31 -191 -375 -530q-168 -166 -347 -338v-6h758v-164h-1008v170q492 475 594 590q150 166 176 284q10 47 11 111q0 119 -69 185t-189 65q-287 0 -312 -297l-4 -37l-180 19l2 30q12 190 139 320t357 129z" />
    <glyph glyph-name="three.tab" 
d="M632 129q138 0 226 78t88 215t-86 218t-262 81h-111v164h121q135 -1 215 73t80 192t-73 188t-201 69q-264 0 -297 -301l-185 20q9 190 143 316t356 127q222 0 340 -113t118 -295q0 -121 -70 -210t-200 -134v-8q145 -33 229 -128t84 -249q0 -201 -141 -332
q-142 -131 -374 -131t-362 111q-129 111 -159 309l186 31q35 -145 116 -218t219 -73z" />
    <glyph glyph-name="four.tab" 
d="M782 557v735h-14q-20 -49 -90 -159l-365 -576h469zM971 0h-189v397h-663v150l649 999h203v-987h207v-162h-207v-397z" />
    <glyph glyph-name="five.tab" 
d="M612 -31q-438 0 -497 420l188 25q31 -158 114 -224t214 -66t222 91q91 89 91 271t-89 275t-234 93q-105 0 -173 -40t-120 -120l-152 33l72 819h837v-170h-686l-41 -491h4q114 139 310 139t332 -131t137 -384t-135 -397t-394 -143z" />
    <glyph glyph-name="six.tab" 
d="M973 482q0 167 -85 261q-86 95 -232 95t-234 -96t-88 -263q0 -168 93 -261t229 -93t227 95q90 95 90 262zM682 1411q-365 0 -371 -643h4q119 233 410 233q195 0 319 -129t123 -359q0 -230 -139 -387t-371 -157q-545 0 -544 740q0 422 148 641t427 219q351 0 453 -332
l-183 -51q-70 225 -276 225z" />
    <glyph glyph-name="seven.tab" 
d="M123 1376v170h1048v-164l-645 -1382h-209l658 1376h-852z" />
    <glyph glyph-name="eight.tab" 
d="M963 426q-1 139 -91 222t-235 83t-237 -84t-93 -221q0 -137 91 -220q92 -83 238 -83t236 82t91 221zM352 1145q0 -131 79 -199t204 -68t204 70t79 201t-79 199t-206 68t-204 -70t-77 -201zM639 1569q225 0 350 -113t125 -293q0 -250 -225 -352v-4q276 -106 276 -399
q0 -195 -141 -317t-392 -122t-389 121t-139 320q0 285 275 397v4q-223 100 -223 352q0 178 129 292t354 114z" />
    <glyph glyph-name="nine.tab" 
d="M578 555q-207 0 -340 131t-134 379q0 207 142 355t384 148q243 0 387 -167q144 -168 144 -551q0 -446 -134 -664t-437 -217q-204 -1 -328 97t-147 266l182 24q61 -236 301 -235q188 0 276 166t91 491h-7q-117 -223 -380 -223zM620 1411q-136 0 -228 -88t-91 -254
q0 -166 87 -258q86 -92 230 -92t231 91t87 254t-90 255t-226 92z" />
    <glyph glyph-name="zero.oldzero" horiz-adv-x="1331" 
d="M668 127q166 0 251 137t85 449q0 131 -15 219l-598 -627q80 -178 277 -178zM326 713q0 -129 16 -238l602 633q-82 190 -278 190q-170 0 -255 -139t-85 -446zM135 713q0 371 141 556t385 185q245 0 389 -184t144 -556t-140 -557t-389 -185t-389 184q-140 186 -141 557z
" />
    <glyph glyph-name="zero.old" horiz-adv-x="1331" 
d="M338 712q0 -308 82 -446t245 -139q163 0 245 137q82 138 81 446q1 308 -81 448t-245 140t-245 -139t-82 -447zM135 715q0 369 141 554t383 185q243 0 389 -185t146 -556t-140 -556t-389 -185t-389 186q-140 188 -141 557z" />
    <glyph glyph-name="one.old" horiz-adv-x="843" 
d="M596 0h-184v1204l-267 -178l-82 131l394 277h139v-1434z" />
    <glyph glyph-name="two.old" horiz-adv-x="1183" 
d="M615 1458q220 0 331 -114t111 -288q0 -176 -109 -310t-522 -500q-53 -49 -82 -74v-8h723v-164h-965v166q535 479 648 608t112 281q0 113 -68 179t-197 66q-128 0 -197 -71t-83 -223l-178 10q14 194 135 318t341 124z" />
    <glyph glyph-name="three.old" horiz-adv-x="1218" 
d="M606 123q127 0 211 77q84 78 84 200t-79 194t-228 72h-131v159h127q112 -1 186 63t74 178t-67 174t-189 60t-191 -66q-70 -66 -96 -208l-174 23q31 188 149 299q118 110 324 110t322 -108q117 -108 116 -273q0 -229 -245 -317v-8q297 -61 297 -355q0 -182 -136 -304
t-361 -122q-224 -1 -347 105t-146 284l179 29q65 -266 321 -266z" />
    <glyph glyph-name="four.old" horiz-adv-x="1165" 
d="M705 522v709h-15q-57 -113 -153 -256l-306 -453h474zM883 0h-178v365h-654v143l611 926h221v-910h217v-159h-217v-365z" />
    <glyph glyph-name="five.old" horiz-adv-x="1234" 
d="M638 948q198 0 332 -117t134 -349t-135 -372q-135 -139 -365 -139t-352 113q-121 113 -148 276l181 27q61 -262 317 -262q135 0 223 86t88 246t-86 249t-225 89q-195 0 -299 -150l-151 62l129 727h761v-168h-626l-78 -443h2q100 125 298 125z" />
    <glyph glyph-name="six.old" horiz-adv-x="1263" 
d="M658 129q128 0 214 84q86 83 86 233t-82 235q-84 85 -218 85t-218 -86t-84 -236t87 -232q87 -83 215 -83zM686 1305q-174 0 -263 -150t-93 -422h6q117 199 362 199q190 0 322 -122t131 -335q0 -213 -135 -358t-354 -146q-526 0 -527 707q1 364 145 570t406 206
q182 0 294 -88t150 -248l-188 -24q-63 211 -256 211z" />
    <glyph glyph-name="seven.old" horiz-adv-x="1073" 
d="M70 1266v168h938v-158l-631 -1276h-197l629 1266h-739z" />
    <glyph glyph-name="eight.old" horiz-adv-x="1245" 
d="M624 672q-132 0 -220 -77t-87 -201q0 -124 87 -200q86 -76 220 -75t219 75t85 200t-86 202t-218 76zM885 1064q0 118 -74 182q-75 64 -191 65t-188 -65t-72 -184t74 -180t190 -62t188 62q72 64 73 182zM625 1454q211 0 331 -111t121 -266q0 -223 -223 -329v-5
q121 -37 197 -123t75 -231q0 -178 -139 -298t-371 -120t-364 114q-133 114 -133 304q0 135 81 226t193 128v5q-225 96 -225 329q0 157 123 267t334 110z" />
    <glyph glyph-name="nine.old" horiz-adv-x="1261" 
d="M582 121q176 0 258 143t94 453h-6q-50 -99 -144 -153t-209 -54q-199 0 -331 122t-131 351q0 191 136 331t364 140q227 0 369 -161t142 -537t-128 -580q-128 -205 -418 -205q-202 0 -312 93t-137 249l182 17q35 -109 99 -159t172 -50zM905 986q0 146 -80 228
q-80 84 -211 84t-219 -82t-88 -230q0 -150 83 -233t216 -83t216 85t83 231z" />
    <glyph glyph-name="zero.taboldzero" 
d="M639 127q164 0 248 137t84 449q0 123 -13 215l-596 -621q82 -180 277 -180zM299 713q0 -127 16 -236l596 629q-78 193 -274 192q-168 0 -253 -139t-85 -446zM109 712q0 370 141 556q140 186 382 186t386 -184t143 -557q0 -373 -138 -557t-387 -184t-388 184
q-139 186 -139 556z" />
    <glyph glyph-name="zero.tabold" 
d="M952 710q0 312 -74 450q-75 138 -243 138t-243 -138t-75 -449t75 -447t244 -137q169 0 243 135q73 136 73 448zM641 1454q520 0 520 -734q0 -372 -138 -560t-386 -189q-528 1 -528 742q0 369 136 555t396 186z" />
    <glyph glyph-name="one.tabold" 
d="M1147 0h-918v164h389v1048l-335 -211l-84 138l465 295h139v-1270h344v-164z" />
    <glyph glyph-name="two.tabold" 
d="M641 1458q221 0 335 -114t114 -271q0 -116 -28 -179q-28 -64 -44 -98t-70 -96t-91 -98q-36 -37 -128 -122q-91 -85 -153 -137t-197 -171v-8h741v-164h-989v166q487 426 612 557t146 248q6 37 6 84q0 113 -66 179t-201 66q-136 0 -202 -72t-84 -222l-178 10
q18 198 137 320t340 122z" />
    <glyph glyph-name="three.tabold" 
d="M633 125q135 0 224 75q89 74 89 198t-84 196t-252 72h-123v159h123q139 1 217 61t78 175t-68 177q-69 62 -196 62q-274 0 -307 -274l-178 21q18 184 144 298q126 113 345 113t336 -106t117 -262q0 -258 -264 -330v-8q307 -59 307 -365q1 -176 -139 -296t-381 -120
q-422 0 -502 389l180 25q35 -137 117 -199t217 -61z" />
    <glyph glyph-name="four.tabold" 
d="M791 522v682h-15q-43 -86 -131 -213l-323 -469h469zM971 369v-369h-180v369h-672v139l649 926h203v-910h207v-155h-207z" />
    <glyph glyph-name="five.tabold" 
d="M616 -29q-215 -1 -342 103t-159 286l182 25q59 -260 319 -260q141 0 236 92q94 92 94 248t-84 243t-212 87t-194 -38t-122 -114l-160 49l74 742h837v-168h-686l-41 -447h4q122 129 318 129t328 -119t133 -349t-133 -370t-392 -139z" />
    <glyph glyph-name="six.tabold" 
d="M969 448q0 150 -81 235q-80 85 -228 85t-235 -86t-87 -236t91 -234q91 -83 229 -83t224 84q87 85 87 235zM717 932q188 0 316 -122t128 -336t-135 -358t-364 -145q-543 0 -543 707q0 368 146 572t421 204q377 0 453 -336l-189 -24q-35 110 -96 160t-166 51
q-194 -1 -280 -147t-91 -425h5q117 199 395 199z" />
    <glyph glyph-name="seven.tabold" 
d="M139 1266v168h1008v-158l-672 -1276h-186l665 1266h-815z" />
    <glyph glyph-name="eight.tabold" 
d="M307 395q0 -125 91 -201q92 -76 238 -75t236 75t91 200q-1 126 -91 202t-235 76t-237 -76t-93 -201zM918 1064q0 118 -80 182t-206 65t-203 -65t-77 -184t80 -180t204 -62t203 62q79 64 79 182zM631 -29q-250 0 -386 114t-136 304q0 135 78 226q79 91 192 128v5
q-219 96 -219 329q0 157 129 267t350 110t346 -110t125 -267q0 -225 -221 -329v-5q119 -37 195 -123t77 -231q0 -182 -140 -300t-390 -118z" />
    <glyph glyph-name="nine.tabold" 
d="M598 123q186 0 272 147t95 451h-7q-109 -211 -366 -211q-213 0 -345 124t-132 337t138 348q137 135 377 135t382 -161t143 -511q0 -811 -565 -811q-192 0 -316 96t-149 246l178 17q63 -207 295 -207zM307 986q0 -150 84 -233q85 -83 229 -83t230 84t86 229t-90 230
t-224 85t-225 -80q-90 -82 -90 -232z" />
    <glyph glyph-name="zero.num" horiz-adv-x="913" 
d="M457 1440q-90 0 -134 -76t-44 -250t44 -250t134 -76t134 75t44 249t-44 251t-134 77zM119 1114q0 223 88 335t247 112q160 0 250 -111t90 -335t-88 -336q-89 -111 -250 -111t-249 112t-88 334z" />
    <glyph glyph-name="one.num" horiz-adv-x="628" 
d="M446 686h-145v682l-174 -104l-64 106l277 178h106v-862z" />
    <glyph glyph-name="two.num" horiz-adv-x="831" 
d="M420 1563q141 0 214 -69q73 -68 73 -178t-71 -193t-335 -306v-4h412v-127h-615v117q338 297 387 350q68 82 69 149q1 68 -35 104t-99 36q-152 0 -162 -172l-141 8q4 121 83 203t220 82z" />
    <glyph glyph-name="three.num" horiz-adv-x="858" 
d="M422 784q80 0 125 40t45 110q0 135 -170 135h-94v121h90q152 0 151 127q0 61 -40 94t-105 33q-139 0 -166 -152l-133 17q12 113 92 183t214 71t208 -63t74 -163q0 -147 -150 -194v-4q178 -35 178 -207q0 -113 -90 -189q-90 -75 -230 -75t-222 70t-95 182l142 16
q26 -152 176 -152z" />
    <glyph glyph-name="four.num" horiz-adv-x="831" 
d="M485 1008v424h-8q-35 -94 -129 -236l-125 -188h262zM623 686h-138v203h-411v96l370 561h179v-536h131v-121h-131v-203z" />
    <glyph glyph-name="five.num" horiz-adv-x="874" 
d="M750 973q0 -137 -88 -220t-229 -83q-142 0 -220 70t-94 169l141 19q31 -141 170 -142q174 0 174 181q0 78 -47 124t-136 46t-149 -76l-122 41l75 444h486v-129h-387l-37 -229h6q75 66 185 66t191 -72t81 -209z" />
    <glyph glyph-name="six.num" horiz-adv-x="882" 
d="M625 958q0 82 -48 130t-126 49q-78 0 -123 -48q-45 -47 -45 -131t48 -131t122 -47t123 48t49 130zM463 1446q-94 0 -141 -70t-54 -235h4q78 104 206 104q128 1 208 -71t80 -201t-86 -217t-234 -88t-238 103q-89 103 -89 325t90 344t264 121q113 -1 188 -61t93 -150
l-146 -21q-23 117 -145 117z" />
    <glyph glyph-name="seven.num" horiz-adv-x="759" 
d="M84 1417v129h592v-110l-369 -750h-157l368 731h-434z" />
    <glyph glyph-name="eight.num" horiz-adv-x="862" 
d="M604 931q0 69 -45 109t-127 39q-82 0 -127 -40q-45 -41 -45 -109t45 -108t127 -40t127 40t45 109zM283 1319q0 -63 40 -97q39 -34 109 -34t110 35t40 96q0 133 -150 133q-72 0 -110 -35t-39 -98zM432 1563q135 0 216 -66t81 -166q0 -131 -129 -196v-2q158 -49 158 -209
q0 -113 -90 -185q-90 -71 -241 -71t-237 68t-86 186q0 80 46 134t114 77v2q-131 61 -131 194q0 100 82 167t217 67z" />
    <glyph glyph-name="nine.num" horiz-adv-x="876" 
d="M393 784q108 0 155 69q46 69 56 241h-4q-62 -104 -196 -104t-215 73q-81 74 -81 200t90 212q89 86 233 86q145 1 235 -101t90 -309q0 -483 -353 -483q-121 0 -201 58t-96 155l142 20q37 -117 145 -117zM256 1274q0 -80 46 -127t121 -47t122 47t47 127t-45 126t-120 46
t-123 -46t-48 -126z" />
    <glyph glyph-name="Euro.tab" 
d="M713 -31q-233 0 -358 135q-124 135 -156 431h-148v131h139q-2 34 -2 104t2 102h-139v132h152q72 565 518 565q182 0 291 -86t162 -258l-183 -60q-41 123 -108 183q-67 59 -189 59t-197 -95t-100 -308h471v-132h-479q-2 -34 -2 -104t2 -102h479v-131h-469
q25 -219 104 -311t214 -93q225 0 301 268l164 -49q-51 -195 -176 -288t-293 -93z" />
    <glyph glyph-name="dollar.tab" 
d="M702 -291h-122v262q-420 23 -496 437l176 43q39 -156 114 -232t206 -90v594l-31 6q-161 35 -281 126q-121 91 -121 277q0 185 116 300t317 133v207h122v-205q334 -25 441 -346l-170 -47q-80 211 -271 239v-528l33 -8q229 -57 327 -159t97 -286q0 -182 -128 -310
t-329 -149v-264zM969 424q0 211 -267 270v-563q125 14 196 90t71 203zM334 1160q0 -106 59 -160t187 -87v502q-126 -12 -186 -80q-60 -69 -60 -175z" />
    <glyph glyph-name="uni20B9.tab" 
d="M195 522v158h178q324 0 362 270h-540v158h540q-19 139 -117 210t-256 71h-167v157h913v-162h-336v-2q137 -102 160 -274h176v-158h-178q-26 -164 -138 -274t-286 -141v-3l440 -532h-237l-435 522h-79z" />
    <glyph glyph-name="uni20BA.tab" 
d="M479 0h-225v592l-143 -47v137l143 49v176l-143 -47v139l143 48v499h195v-434l448 148v-138l-448 -149v-178l448 151v-141l-448 -148v-495h49q217 0 337 101t169 341l172 -37q-54 -293 -228 -430t-469 -137z" />
    <glyph glyph-name="cent.tab" 
d="M360 545q0 -162 65 -275t189 -141v838q-118 -29 -186 -145t-68 -277zM737 -291h-123v264q-222 20 -334 171t-112 382q0 232 115 398t331 194v287h123v-281q160 -10 253 -86t136 -178l-174 -74q-23 45 -43 76t-66 65t-106 44v-848q166 20 252 194l154 -67
q-127 -258 -406 -279v-262z" />
    <glyph glyph-name="sterling.tab" 
d="M1149 176v-176h-1034v154q305 10 241 413l-18 119h-182v133h161l-34 221q-37 231 76 380q114 148 360 149q369 0 434 -375l-182 -35q-31 133 -87 193t-173 61q-152 0 -207 -100t-23 -305l31 -189h430v-133h-410l17 -98q25 -154 -5 -246t-114 -160v-6h719z" />
    <glyph glyph-name="yen.tab" 
d="M1153 289h-412v-289h-188v289h-434v131h434v207h-434v131h413l-428 788h207l340 -674l324 674h192l-409 -788h395v-131h-412v-207h412v-131z" />
    <glyph glyph-name="florin.tab" 
d="M991 1096v-150h-305l-121 -1280h-180l121 1280h-250v150h264l15 159q33 348 344 349q74 0 143 -23l-10 -162q-63 21 -137 21t-112 -52t-50 -165l-13 -127h291z" />
    <glyph glyph-name="Euro.old" horiz-adv-x="1318" 
d="M766 -29q-225 0 -354 128t-164 395h-166v127h156q-2 29 -2 92t2 92h-156v127h170q41 260 180 391q138 131 332 131t298 -80t155 -241l-170 -56q-45 117 -112 172t-171 56q-264 0 -320 -373h449v-127h-461q-2 -31 -2 -94t2 -90h461v-127h-449q51 -371 326 -371
q215 0 287 250l168 -47q-51 -184 -174 -270t-285 -85z" />
    <glyph glyph-name="dollar.old" horiz-adv-x="1251" 
d="M686 -270h-121v243q-399 25 -473 404l174 41q37 -145 107 -214t192 -81v545l-59 12q-356 76 -359 377q-2 159 110 267t308 126v213h121v-211q326 -18 416 -319l-164 -46q-39 101 -98 153t-154 65v-486l47 -10q207 -45 301 -142t94 -265t-124 -288t-318 -139v-245z
M940 395q0 195 -254 248v-518q118 11 186 81t68 189zM334 1074q0 -99 56 -149t175 -77v459q-231 -23 -231 -233z" />
    <glyph glyph-name="uni20B9.old" horiz-adv-x="1290" 
d="M176 473v154h199q319 0 360 245h-559v158h561q-21 124 -119 188t-253 64h-189v150h975v-154h-363v-2q123 -106 144 -246h219v-158h-221q-26 -152 -138 -254t-284 -133v-2l369 -483h-222l-362 473h-117z" />
    <glyph glyph-name="uni20BA.old" horiz-adv-x="1363" 
d="M518 0h-223v477l-162 -53v133l162 53v195l-162 -55v135l162 53v496h186v-433l465 156v-133l-465 -158v-192l467 155v-133l-467 -155v-385h58q233 0 363 101t181 341l168 -27q-57 -295 -239 -433t-494 -138z" />
    <glyph glyph-name="sterling.old" horiz-adv-x="1277" 
d="M1147 168v-168h-1020v152q287 6 227 370l-18 111h-170v131h149l-30 188q-35 218 85 360t355 142q176 0 288 -86t138 -262l-180 -31q-55 229 -262 230q-285 0 -224 -371l29 -170h399v-131h-378l14 -88q23 -139 -9 -223t-114 -148v-6h721z" />
    <glyph glyph-name="yen.old" horiz-adv-x="1263" 
d="M1147 266h-412v-266h-182v266h-436v127h436v185h-436v127h413l-428 729h201l344 -621l328 621h186l-407 -729h393v-127h-412v-185h412v-127z" />
    <glyph glyph-name="florin.old" horiz-adv-x="843" 
d="M705 958v-149h-244l-109 -1143h-180l109 1143h-183v149h197l18 201q14 164 89 236t210 71q89 0 146 -18l-10 -162q-186 45 -226 -36q-23 -47 -30 -124l-17 -168h230z" />
    <glyph glyph-name="Euro.tabold" 
d="M57 494v127h144q-2 29 -2 92t2 92h-144v127h156q70 522 504 522q183 0 289 -80t159 -241l-176 -56q-80 227 -284 228q-133 1 -208 -89t-100 -284h465v-127h-475q-2 -31 -2 -94t2 -90h475v-127h-465q25 -203 104 -288t214 -85q207 0 289 252l172 -47q-98 -354 -467 -355
q-236 0 -354 122t-146 401h-152z" />
    <glyph glyph-name="dollar.tabold" 
d="M700 -270h-122v243q-406 23 -482 404l172 41q39 -147 110 -217t200 -80v549l-35 8q-385 66 -385 379q0 157 112 267t308 128v211h122v-211q336 -23 430 -319l-165 -46q-41 99 -103 153t-162 67v-484l41 -8q215 -43 311 -142t95 -269q0 -170 -123 -290t-324 -139v-245z
M961 384q1 108 -59 168t-202 89v-518q125 13 193 83t68 178zM340 1072q0 -100 55 -148t183 -76v461q-126 -12 -182 -75q-56 -62 -56 -162z" />
    <glyph glyph-name="uni20B9.tabold" 
d="M193 473v154h178q319 0 360 245h-538v158h540q-21 124 -119 188t-254 64h-167v150h913v-154h-322v-2q123 -106 144 -246h178v-158h-180q-27 -152 -139 -254t-283 -133v-2l368 -483h-221l-362 473h-96z" />
    <glyph glyph-name="uni20BA.tabold" 
d="M481 0h-223v477l-147 -49v133l147 49v193l-147 -49v135l147 49v496h184v-435l424 142v-133l-424 -144v-192l426 141v-133l-426 -141v-383h60q215 0 334 101t170 341l159 -31q-49 -283 -225 -425t-459 -142z" />
    <glyph glyph-name="sterling.tabold" 
d="M1149 172v-172h-1034v152q303 6 241 370l-18 111h-182v131h159l-32 188q-37 221 76 362q114 140 360 140q369 0 434 -348l-182 -31q-31 123 -87 176t-173 54q-295 0 -230 -371l29 -170h432v-131h-407l14 -88q25 -141 -5 -222t-114 -145v-6h719z" />
    <glyph glyph-name="yen.tabold" 
d="M1153 266h-412v-266h-188v266h-434v127h434v185h-434v127h411l-426 729h207l340 -621l324 621h192l-407 -729h393v-127h-412v-185h412v-127z" />
    <glyph glyph-name="florin.tabold" 
d="M981 958v-149h-301l-115 -1143h-180l115 1143h-254v149h268l21 201q18 160 110 234t234 73q89 0 143 -18l-10 -162q-72 16 -140 16q-133 1 -159 -176l-17 -168h285z" />
    <glyph glyph-name="zero.den" horiz-adv-x="913" 
d="M457 754q-90 0 -134 -76t-44 -250t44 -250t134 -76t134 75t44 249t-44 251t-134 77zM119 428q0 223 88 335q88 111 247 111q160 0 250 -110t90 -335q0 -224 -88 -336q-89 -111 -250 -111t-249 112t-88 334z" />
    <glyph glyph-name="one.den" horiz-adv-x="628" 
d="M446 0h-145v682l-174 -104l-64 106l277 178h106v-862z" />
    <glyph glyph-name="two.den" horiz-adv-x="831" 
d="M420 877q141 0 214 -69q73 -68 73 -178t-71 -193t-335 -306v-4h412v-127h-615v117q338 297 387 350q68 81 69 149t-35 104t-99 36q-152 0 -162 -172l-141 8q4 121 83 203t220 82z" />
    <glyph glyph-name="three.den" horiz-adv-x="858" 
d="M422 98q80 0 125 40t45 110q0 135 -170 135h-94v121h90q152 0 151 127q0 61 -40 94t-105 33q-139 0 -166 -152l-133 17q12 113 92 183t214 71t208 -63t74 -163q0 -147 -150 -194v-4q178 -35 178 -207q0 -113 -90 -189q-90 -75 -230 -75t-222 70t-95 181l142 17
q26 -152 176 -152z" />
    <glyph glyph-name="four.den" horiz-adv-x="831" 
d="M485 322v423h-8q-35 -94 -129 -235l-125 -188h262zM623 0h-138v203h-411v96l370 561h179v-536h131v-121h-131v-203z" />
    <glyph glyph-name="five.den" horiz-adv-x="874" 
d="M750 287q0 -137 -88 -220t-229 -83q-142 0 -220 70t-94 169l141 19q31 -141 170 -142q174 0 174 181q0 77 -47 123t-136 46t-149 -75l-122 41l75 444h486v-129h-387l-37 -229h6q75 66 185 66t191 -72t81 -209z" />
    <glyph glyph-name="six.den" horiz-adv-x="882" 
d="M625 272q0 82 -48 130t-126 48t-123 -48t-45 -131t48 -130t122 -47t123 48t49 130zM463 760q-94 0 -141 -70t-54 -235h4q78 104 206 104t208 -72q80 -73 80 -201t-86 -216t-234 -88t-238 103q-89 103 -89 325t90 344t264 120q113 0 188 -60t93 -150l-146 -21
q-23 117 -145 117z" />
    <glyph glyph-name="seven.den" horiz-adv-x="759" 
d="M84 731v129h592v-110l-369 -750h-157l368 731h-434z" />
    <glyph glyph-name="eight.den" horiz-adv-x="862" 
d="M604 245q0 69 -45 109t-127 39q-82 0 -127 -40q-45 -41 -45 -109t45 -108t127 -40t127 40t45 109zM283 633q0 -63 40 -97q39 -34 109 -34t110 35t40 96q0 133 -150 133q-72 0 -110 -35t-39 -98zM432 877q135 0 216 -66t81 -166q0 -131 -129 -196v-3q158 -49 158 -208
q0 -113 -90 -185q-90 -71 -241 -71t-237 68t-86 186q0 80 46 134t114 76v3q-131 61 -131 194q0 100 82 167t217 67z" />
    <glyph glyph-name="nine.den" horiz-adv-x="876" 
d="M393 98q108 0 155 69q46 69 56 241h-4q-62 -104 -196 -104t-215 73q-81 74 -81 200q0 125 90 211q89 86 233 86q145 0 235 -101t90 -308q0 -483 -353 -483q-121 0 -201 58t-96 155l142 20q37 -117 145 -117zM256 588q0 -80 46 -127t121 -47t122 47t47 127t-45 126
t-120 46t-123 -46t-48 -126z" />
    <glyph glyph-name="space_uni0326" horiz-adv-x="1024" 
d="M444 -270v202h222v-96q0 -120 -42 -180t-173 -113l-37 72q121 45 137 115h-107z" />
    <glyph glyph-name="space.tab" horiz-adv-x="634" 
 />
    <glyph glyph-name="one.sup" horiz-adv-x="628" 
d="M446 819h-145v682l-174 -104l-64 106l277 178h106v-862z" />
    <glyph glyph-name="two.sup" horiz-adv-x="831" 
d="M420 1696q141 0 214 -69t73 -179t-71 -192q-71 -83 -335 -306v-4h412v-127h-615v117q338 297 387 350q68 82 70 150q0 68 -36 104t-99 35q-152 0 -162 -172l-141 8q4 121 83 203t220 82z" />
    <glyph glyph-name="three.sup" horiz-adv-x="858" 
d="M422 918q80 0 125 40t45 109q0 135 -170 135h-94v121h90q152 0 151 127q0 61 -40 94t-105 33q-139 0 -166 -152l-133 17q12 114 92 184t214 70t208 -64t74 -162q0 -147 -150 -194v-4q178 -35 178 -207q0 -113 -90 -189t-230 -75q-140 -1 -222 69t-95 183l142 16
q26 -151 176 -151z" />
    <glyph glyph-name="space_uni0326.alt" horiz-adv-x="1026" 
d="M614 1540v-203h-202v97q0 120 38 190t150 127q37 -57 47 -72q-53 -31 -77 -59t-35 -80h79z" />
    <glyph glyph-name="cent.old" horiz-adv-x="1179" 
d="M305 545q0 -162 65 -275t189 -141v838q-119 -29 -187 -145t-67 -277zM682 -291h-123v264q-221 20 -334 171t-112 382q0 231 114 398q115 166 332 194v287h123v-281q160 -10 253 -86t136 -178l-174 -74q-23 45 -43 76t-66 65t-106 44v-848q166 20 252 194l153 -67
q-127 -258 -405 -279v-262z" />
    <glyph glyph-name="cent.tabold" 
d="M360 545q0 -162 65 -275t189 -141v838q-118 -29 -186 -145t-68 -277zM737 -291h-123v264q-222 20 -334 171t-112 382q0 232 115 398t331 194v287h123v-281q160 -10 253 -86t136 -178l-174 -74q-23 45 -43 76t-66 65t-106 44v-848q166 20 252 194l154 -67
q-127 -258 -406 -279v-262z" />
    </font>
</defs>
</svg>
